<?xml version="1.0" encoding="UTF-8" standalone="no"?>
<!-- Created with Inkscape (http://www.inkscape.org/) -->

<svg
   xmlns:dc="http://purl.org/dc/elements/1.1/"
   xmlns:cc="http://creativecommons.org/ns#"
   xmlns:rdf="http://www.w3.org/1999/02/22-rdf-syntax-ns#"
   xmlns:svg="http://www.w3.org/2000/svg"
   xmlns="http://www.w3.org/2000/svg"
   xmlns:sodipodi="http://sodipodi.sourceforge.net/DTD/sodipodi-0.dtd"
   xmlns:inkscape="http://www.inkscape.org/namespaces/inkscape"
   id="svg2"
   version="1.1"
   inkscape:version="0.91 r13725"
   xml:space="preserve"
   width="1000"
   height="1000"
   viewBox="0 0 1000 1000"
   sodipodi:docname="climb.svg"><metadata
     id="metadata8"><rdf:RDF><cc:Work
         rdf:about=""><dc:format>image/svg+xml</dc:format><dc:type
           rdf:resource="http://purl.org/dc/dcmitype/StillImage" /><dc:title></dc:title></cc:Work></rdf:RDF></metadata><defs
     id="defs6"><clipPath
       clipPathUnits="userSpaceOnUse"
       id="clipPath18"><path
         d="M 0,800 800,800 800,0 0,0 0,800 Z"
         id="path20"
         inkscape:connector-curvature="0" /></clipPath></defs><sodipodi:namedview
     pagecolor="#ffffff"
     bordercolor="#666666"
     borderopacity="1"
     objecttolerance="10"
     gridtolerance="10"
     guidetolerance="10"
     inkscape:pageopacity="0"
     inkscape:pageshadow="2"
     inkscape:window-width="1171"
     inkscape:window-height="658"
     id="namedview4"
     showgrid="false"
     inkscape:zoom="1.3350176"
     inkscape:cx="166.14402"
     inkscape:cy="-214.51225"
     inkscape:window-x="162"
     inkscape:window-y="28"
     inkscape:window-maximized="0"
     inkscape:current-layer="g10" /><g
     id="g10"
     inkscape:groupmode="layer"
     inkscape:label="10"
     transform="matrix(1.25,0,0,-1.25,0,1000)"><path
       d="M 0.001,0 800,0 l 0,800 -799.999,0 0,-800 z"
       style="fill:#86cccc;fill-opacity:1;fill-rule:nonzero;stroke:none"
       id="path12"
       inkscape:connector-curvature="0" /><g
       id="g14"><g
         id="g16"
         clip-path="url(#clipPath18)"><g
           id="g22"
           transform="translate(307.2695,18.1875)" /><g
           id="g26"
           transform="translate(316.0586,18.7686)" /><g
           id="g30"
           transform="translate(328.7129,16.832)" /><g
           id="g34"
           transform="translate(332.1309,20.8848)" /><g
           id="g38"
           transform="translate(335.4863,18.2295)" /><g
           id="g42"
           transform="translate(344.3984,20.9111)" /><g
           id="g46"
           transform="translate(352.6465,18.7686)" /><g
           id="g50"
           transform="translate(360.7793,18.1875)" /><g
           id="g54"
           transform="translate(373.2891,18.1348)" /><g
           id="g58"
           transform="translate(381.6914,14.1855)" /><g
           id="g62"
           transform="translate(415.9248,21.7734)" /><g
           id="g66"
           transform="translate(422.5342,17.0889)" /><g
           id="g70"
           transform="translate(427.9736,18.7686)" /><g
           id="g74"
           transform="translate(436.2197,18.7686)" /><g
           id="g78"
           transform="translate(448.0752,18.207)" /><g
           id="g82"
           transform="translate(453.2666,20.8848)" /><g
           id="g86"
           transform="translate(459.7842,15.2607)" /><g
           id="g90"
           transform="translate(464.3584,14.4141)" /><g
           id="g94"
           transform="translate(474.1123,16.7051)" /><g
           id="g98"
           transform="translate(480.7939,18.1738)" /><g
           id="g102"
           transform="translate(490.2607,18.042)" /><g
           id="g106"
           transform="translate(401.3447,26.7031)" /><g
           id="g110"
           transform="translate(410.7236,24.1592)" /><g
           id="g114"
           transform="translate(407.0498,20.3672)" /><g
           id="g118"
           transform="translate(393.5254,23.0195)" /><g
           id="g122"
           transform="translate(404.1572,15.0215)" /><g
           id="g126"
           transform="translate(441.2393,233.2295)"><path
             d="m 0,0 c 0,-0.189 -0.009,-0.377 -0.015,-0.565 l 3.562,-0.628 -0.948,-5.376 -3.556,0.627 c -0.119,-0.361 -0.248,-0.714 -0.388,-1.064 l 3.127,-1.806 -2.729,-4.728 -3.131,1.809 c -0.234,-0.296 -0.475,-0.586 -0.725,-0.868 l 2.323,-2.768 -4.183,-3.509 -2.321,2.766 c -0.321,-0.199 -0.646,-0.389 -0.979,-0.569 l 1.234,-3.39 -5.13,-1.868 -1.234,3.39 c -0.368,-0.076 -0.741,-0.139 -1.116,-0.193 l 0,-3.611 -5.46,0 0,3.611 c -0.375,0.054 -0.748,0.117 -1.116,0.193 l -1.234,-3.39 -5.129,1.868 1.233,3.39 c -0.333,0.18 -0.658,0.37 -0.979,0.569 l -2.321,-2.766 -4.181,3.509 2.322,2.767 c -0.251,0.283 -0.492,0.573 -0.726,0.869 l -3.131,-1.809 -2.729,4.728 3.127,1.806 c -0.14,0.35 -0.269,0.703 -0.388,1.064 l -3.556,-0.627 -0.948,5.376 3.562,0.629 c -0.005,0.187 -0.014,0.375 -0.014,0.564 0,0.189 0.009,0.377 0.014,0.564 l -3.562,0.629 0.948,5.376 3.556,-0.627 c 0.119,0.36 0.248,0.714 0.388,1.064 l -3.127,1.806 2.729,4.728 3.131,-1.808 c 0.234,0.295 0.475,0.585 0.726,0.868 l -2.322,2.767 4.181,3.51 2.321,-2.767 c 0.321,0.199 0.647,0.389 0.979,0.569 l -1.233,3.39 5.129,1.868 1.235,-3.389 c 0.368,0.075 0.74,0.138 1.115,0.192 l 0,3.611 5.46,0 0,-3.611 c 0.375,-0.054 0.748,-0.117 1.116,-0.192 l 1.234,3.389 5.13,-1.868 -1.234,-3.39 c 0.332,-0.18 0.658,-0.37 0.979,-0.569 l 2.321,2.767 4.182,-3.51 -2.323,-2.767 c 0.251,-0.282 0.492,-0.572 0.726,-0.868 L -0.947,13.54 1.782,8.812 -1.345,7.006 c 0.14,-0.35 0.269,-0.703 0.388,-1.064 L 2.599,6.569 3.547,1.193 -0.015,0.565 C -0.009,0.377 0,0.189 0,0 m 14.329,-10.147 1.465,8.304 -5.501,0.97 c 0.009,0.291 0.021,0.58 0.021,0.873 0,0.293 -0.012,0.582 -0.021,0.873 l 5.5,0.97 -1.464,8.304 L 8.837,9.18 C 8.653,9.734 8.453,10.282 8.238,10.822 l 4.83,2.788 -4.215,7.304 -4.836,-2.792 c -0.362,0.457 -0.735,0.905 -1.121,1.34 l 3.586,4.274 -6.459,5.422 -3.585,-4.273 c -0.496,0.306 -0.999,0.601 -1.513,0.879 l 1.906,5.236 -7.924,2.885 -1.906,-5.236 c -0.568,0.117 -1.144,0.214 -1.723,0.298 l 0,5.577 -8.433,0 0,-5.577 c -0.58,-0.084 -1.156,-0.181 -1.724,-0.298 l -1.905,5.236 -7.925,-2.884 1.906,-5.237 c -0.513,-0.278 -1.017,-0.573 -1.512,-0.878 l -3.585,4.272 -6.461,-5.421 3.589,-4.276 c -0.388,-0.435 -0.76,-0.882 -1.122,-1.339 l -4.835,2.792 -4.217,-7.304 4.83,-2.788 c -0.215,-0.54 -0.415,-1.088 -0.599,-1.643 l -5.492,0.968 -1.465,-8.304 5.502,-0.971 C -48.179,0.582 -48.192,0.293 -48.192,0 c 0,-0.293 0.013,-0.582 0.022,-0.872 l -5.502,-0.971 1.465,-8.304 5.492,0.967 c 0.184,-0.554 0.384,-1.102 0.599,-1.642 l -4.83,-2.788 4.216,-7.304 4.836,2.792 c 0.362,-0.457 0.734,-0.904 1.122,-1.339 l -3.589,-4.276 6.46,-5.421 3.585,4.273 c 0.495,-0.306 0.999,-0.601 1.513,-0.879 l -1.906,-5.236 7.924,-2.885 1.906,5.237 c 0.567,-0.118 1.144,-0.215 1.724,-0.298 l 0,-5.578 8.433,0 0,5.578 c 0.579,0.083 1.155,0.18 1.723,0.298 l 1.906,-5.236 7.925,2.884 -1.906,5.236 c 0.514,0.278 1.016,0.573 1.512,0.879 l 3.585,-4.273 6.46,5.422 -3.587,4.275 c 0.387,0.435 0.759,0.882 1.121,1.339 l 4.835,-2.792 4.216,7.304 -4.83,2.788 c 0.216,0.54 0.415,1.088 0.599,1.642 l 5.492,-0.967 z"
             style="fill:#ffffff;fill-opacity:1;fill-rule:nonzero;stroke:none"
             id="path128"
             inkscape:connector-curvature="0" /></g><g
           id="g130"
           transform="translate(579.0273,194.5439)"><path
             d="m 0,0 0,9.731 c 3.293,1.125 5.898,3.731 7.023,7.024 l 9.731,0 C 15.241,8.231 8.523,1.514 0,0 m -24.044,16.755 9.731,0 c 1.125,-3.293 3.731,-5.899 7.025,-7.024 l 0,-9.731 c -8.524,1.513 -15.243,8.231 -16.756,16.755 m 16.756,24.044 0,-9.732 c -3.294,-1.125 -5.9,-3.73 -7.025,-7.024 l -9.731,0 c 1.513,8.524 8.231,15.243 16.756,16.756 m -2.05,-20.4 c 0,3.145 2.549,5.694 5.694,5.694 3.144,0 5.694,-2.549 5.694,-5.694 0,-3.144 -2.55,-5.693 -5.694,-5.693 -3.145,0 -5.694,2.549 -5.694,5.693 m 26.093,3.644 -9.732,0 C 5.899,27.337 3.293,29.942 0,31.067 l 0,9.732 C 8.523,39.285 15.241,32.566 16.755,24.043 m 8.349,-12.413 1.266,7.177 -4.753,0.839 c 0.007,0.25 0.019,0.5 0.019,0.753 0,0.253 -0.012,0.503 -0.019,0.754 l 4.753,0.839 -1.265,7.177 -4.747,-0.837 c -0.158,0.48 -0.331,0.953 -0.517,1.42 l 4.175,2.409 -3.644,6.312 -4.18,-2.413 c -0.312,0.395 -0.633,0.782 -0.968,1.158 l 3.1,3.694 -5.583,4.685 -3.097,-3.693 c -0.428,0.265 -0.863,0.52 -1.308,0.759 L 9.983,47.188 3.136,49.682 1.489,45.157 C 0.998,45.258 0.501,45.342 0,45.414 l 0,4.82 -7.288,0 0,-4.82 c -0.501,-0.072 -0.998,-0.156 -1.489,-0.257 l -1.647,4.525 -6.848,-2.493 1.646,-4.526 c -0.443,-0.239 -0.879,-0.494 -1.306,-0.759 l -3.098,3.693 -5.584,-4.684 3.101,-3.696 c -0.335,-0.375 -0.656,-0.762 -0.968,-1.157 l -4.18,2.413 -3.644,-6.312 4.174,-2.41 c -0.185,-0.467 -0.358,-0.939 -0.516,-1.42 l -4.747,0.838 -1.265,-7.177 4.754,-0.839 c -0.007,-0.251 -0.019,-0.501 -0.019,-0.754 0,-0.253 0.012,-0.503 0.019,-0.753 l -4.754,-0.839 1.265,-7.177 4.747,0.837 c 0.158,-0.48 0.331,-0.952 0.517,-1.419 l -4.175,-2.41 3.644,-6.312 4.18,2.413 c 0.312,-0.395 0.633,-0.782 0.968,-1.157 l -3.101,-3.696 5.583,-4.684 3.098,3.693 c 0.428,-0.265 0.864,-0.52 1.307,-0.759 l -1.646,-4.527 6.847,-2.492 1.647,4.525 c 0.491,-0.101 0.988,-0.185 1.49,-0.257 l 0,-4.821 7.288,0 0,4.821 c 0.501,0.072 0.998,0.156 1.489,0.257 l 1.647,-4.524 6.847,2.491 -1.646,4.527 c 0.444,0.239 0.879,0.494 1.307,0.759 l 3.097,-3.693 5.584,4.685 -3.1,3.695 c 0.335,0.376 0.656,0.762 0.967,1.157 l 4.179,-2.413 3.645,6.312 -4.175,2.41 c 0.187,0.467 0.359,0.939 0.517,1.419 l 4.746,-0.837 z"
             style="fill:#ffffff;fill-opacity:1;fill-rule:nonzero;stroke:none"
             id="path132"
             inkscape:connector-curvature="0" /></g><g
           id="g134"
           transform="translate(281.7031,51.1143)"><path
             d="m 0,0 c -15.68,0 -28.391,12.711 -28.391,28.391 0,15.679 12.711,28.39 28.391,28.39 15.68,0 28.391,-12.711 28.391,-28.39 C 28.391,12.711 15.68,0 0,0 m 39.676,16.288 1.748,9.905 -6.561,1.157 c 0.01,0.346 0.026,0.691 0.026,1.041 0,0.349 -0.016,0.694 -0.026,1.041 l 6.559,1.156 -1.746,9.905 -6.549,-1.155 C 32.908,40 32.67,40.653 32.412,41.298 l 5.76,3.325 -5.027,8.71 -5.768,-3.33 c -0.43,0.546 -0.875,1.08 -1.336,1.599 l 4.277,5.097 -7.703,6.466 -4.275,-5.096 c -0.592,0.366 -1.192,0.717 -1.805,1.048 l 2.272,6.244 -9.45,3.442 -2.273,-6.244 c -0.678,0.139 -1.363,0.254 -2.055,0.354 l 0,6.652 -10.058,0 0,-6.652 c -0.691,-0.1 -1.377,-0.215 -2.054,-0.354 l -2.274,6.244 -9.451,-3.441 2.273,-6.245 c -0.613,-0.331 -1.213,-0.682 -1.802,-1.048 l -4.277,5.096 -7.705,-6.464 4.279,-5.1 c -0.461,-0.519 -0.906,-1.052 -1.336,-1.598 l -5.768,3.33 -5.029,-8.71 5.76,-3.326 C -32.669,40.653 -32.908,40 -33.125,39.338 l -6.551,1.155 -1.747,-9.905 6.561,-1.156 c -0.011,-0.347 -0.026,-0.692 -0.026,-1.041 0,-0.35 0.015,-0.695 0.026,-1.041 l -6.561,-1.157 1.747,-9.905 6.551,1.155 c 0.217,-0.662 0.456,-1.315 0.713,-1.959 l -5.761,-3.326 5.028,-8.71 5.769,3.33 c 0.43,-0.546 0.875,-1.079 1.336,-1.597 l -4.279,-5.101 7.703,-6.464 4.277,5.096 c 0.59,-0.365 1.191,-0.717 1.804,-1.048 l -2.273,-6.246 9.45,-3.439 2.274,6.245 c 0.677,-0.141 1.364,-0.256 2.055,-0.356 l 0,-6.652 10.058,0 0,6.652 c 0.692,0.1 1.377,0.215 2.055,0.356 l 2.273,-6.245 9.452,3.439 -2.274,6.246 c 0.613,0.331 1.213,0.683 1.805,1.048 l 4.275,-5.096 7.705,6.466 -4.279,5.1 c 0.461,0.517 0.906,1.05 1.336,1.596 l 5.768,-3.33 5.029,8.71 -5.762,3.326 c 0.258,0.644 0.496,1.297 0.715,1.959 l 6.549,-1.155 z"
             style="fill:#ffffff;fill-opacity:1;fill-rule:nonzero;stroke:none"
             id="path136"
             inkscape:connector-curvature="0" /></g><g
           id="g138"
           transform="translate(281.7031,58.8643)"><path
             d="m 0,0 c -11.4,0 -20.64,9.241 -20.64,20.641 0,11.399 9.24,20.64 20.64,20.64 11.398,0 20.641,-9.241 20.641,-20.64 C 20.641,9.241 11.398,0 0,0 m 0,46.729 c -14.409,0 -26.088,-11.68 -26.088,-26.088 0,-14.409 11.679,-26.088 26.088,-26.088 14.408,0 26.088,11.679 26.088,26.088 0,14.408 -11.68,26.088 -26.088,26.088"
             style="fill:#ffffff;fill-opacity:1;fill-rule:nonzero;stroke:none"
             id="path140"
             inkscape:connector-curvature="0" /></g><g
           id="g142"
           transform="translate(284.1191,81.9209)"><path
             d="M 0,0 16.338,0 C 15.252,8.513 8.512,15.253 0,16.339 L 0,0 Z"
             style="fill:#ffffff;fill-opacity:1;fill-rule:nonzero;stroke:none"
             id="path144"
             inkscape:connector-curvature="0" /></g><g
           id="g146"
           transform="translate(279.2876,81.9209)"><path
             d="M 0,0 0,16.339 C -8.514,15.253 -15.254,8.513 -16.34,0 L 0,0 Z"
             style="fill:#ffffff;fill-opacity:1;fill-rule:nonzero;stroke:none"
             id="path148"
             inkscape:connector-curvature="0" /></g><g
           id="g150"
           transform="translate(279.2876,77.0889)"><path
             d="M 0,0 -16.34,0 C -15.254,-8.513 -8.514,-15.253 0,-16.339 L 0,0 Z"
             style="fill:#ffffff;fill-opacity:1;fill-rule:nonzero;stroke:none"
             id="path152"
             inkscape:connector-curvature="0" /></g><g
           id="g154"
           transform="translate(284.1191,77.0889)"><path
             d="M 0,0 0,-16.339 C 8.512,-15.253 15.252,-8.512 16.338,0 L 0,0 Z"
             style="fill:#ffffff;fill-opacity:1;fill-rule:nonzero;stroke:none"
             id="path156"
             inkscape:connector-curvature="0" /></g><g
           id="g158"
           transform="translate(210.8345,38.1738)"><path
             d="M 0,0 0,2.431 C 5.861,2.99 10.973,6.104 14.219,10.644 L 16.328,9.426 C 12.649,4.166 6.757,0.574 0,0 m -20.137,9.427 2.108,1.217 C -14.782,6.104 -9.67,2.99 -3.81,2.432 L -3.81,0 c -6.757,0.574 -12.649,4.167 -16.327,9.427 m 0.2,4.514 -2.109,-1.217 c -1.343,2.863 -2.097,6.057 -2.097,9.428 0,3.371 0.754,6.566 2.097,9.429 l 2.109,-1.218 c -1.141,-2.502 -1.782,-5.281 -1.782,-8.211 0,-2.929 0.641,-5.709 1.782,-8.211 m 16.127,30.364 0,-2.432 c -5.86,-0.559 -10.972,-3.672 -14.219,-8.212 l -2.108,1.218 c 3.678,5.26 9.57,8.851 16.327,9.426 M -14.907,22.152 c 0,7.181 5.822,13.003 13.002,13.003 7.181,0 13.003,-5.822 13.003,-13.003 0,-7.18 -5.822,-13.003 -13.003,-13.003 -7.18,0 -13.002,5.823 -13.002,13.003 M 16.328,34.879 14.219,33.661 C 10.973,38.201 5.861,41.314 0,41.874 l 0,2.431 C 6.757,43.73 12.65,40.139 16.328,34.879 m -0.201,-4.515 2.11,1.218 c 1.343,-2.863 2.097,-6.058 2.097,-9.43 0,-3.371 -0.754,-6.565 -2.097,-9.428 l -2.11,1.217 c 1.142,2.502 1.783,5.282 1.783,8.211 0,2.93 -0.641,5.709 -1.783,8.212 m 10.553,-16.93 1.259,7.135 -4.727,0.833 c 0.008,0.25 0.019,0.499 0.019,0.75 0,0.252 -0.011,0.501 -0.019,0.75 l 4.727,0.833 -1.258,7.136 -4.72,-0.831 c -0.157,0.477 -0.329,0.947 -0.514,1.412 l 4.15,2.396 -3.622,6.274 -4.155,-2.398 c -0.311,0.393 -0.631,0.778 -0.964,1.151 l 3.082,3.673 -5.55,4.658 -3.08,-3.671 c -0.426,0.264 -0.858,0.517 -1.3,0.755 l 1.638,4.499 -6.809,2.479 -1.638,-4.498 c -0.488,0.1 -0.982,0.183 -1.48,0.254 l 0,4.793 -7.247,0 0,-4.793 C -6.026,46.953 -6.52,46.87 -7.008,46.77 l -1.638,4.498 -6.81,-2.479 1.639,-4.499 c -0.442,-0.238 -0.874,-0.491 -1.3,-0.755 l -3.081,3.671 -5.551,-4.657 3.083,-3.675 c -0.333,-0.373 -0.652,-0.758 -0.963,-1.15 l -4.155,2.398 -3.623,-6.274 4.15,-2.397 c -0.185,-0.464 -0.356,-0.934 -0.514,-1.412 l -4.719,0.832 -1.259,-7.136 4.728,-0.833 c -0.008,-0.249 -0.02,-0.498 -0.02,-0.75 0,-0.251 0.012,-0.5 0.02,-0.749 l -4.728,-0.834 1.259,-7.135 4.719,0.832 c 0.158,-0.478 0.329,-0.948 0.515,-1.412 l -4.151,-2.397 3.622,-6.274 4.156,2.398 c 0.311,-0.393 0.63,-0.777 0.963,-1.15 l -3.083,-3.675 5.551,-4.657 3.08,3.672 c 0.426,-0.264 0.859,-0.517 1.301,-0.756 l -1.639,-4.499 6.809,-2.479 1.638,4.499 c 0.488,-0.1 0.983,-0.183 1.481,-0.256 l 0,-4.793 7.247,0 0,4.793 c 0.498,0.073 0.992,0.156 1.48,0.256 l 1.638,-4.499 6.809,2.479 -1.638,4.499 c 0.442,0.239 0.874,0.492 1.3,0.756 l 3.08,-3.672 5.551,4.658 -3.082,3.675 c 0.332,0.373 0.653,0.756 0.963,1.149 l 4.155,-2.398 3.623,6.274 -4.151,2.397 c 0.186,0.464 0.357,0.934 0.514,1.412 l 4.719,-0.832 z"
             style="fill:#ffffff;fill-opacity:1;fill-rule:nonzero;stroke:none"
             id="path160"
             inkscape:connector-curvature="0" /></g><g
           id="g162"
           transform="translate(499.623,160.9355)"><path
             d="m 0,0 0,3.899 c 9.403,0.898 17.605,5.893 22.814,13.177 l 3.383,-1.953 C 20.295,6.685 10.841,0.921 0,0 m -32.31,15.124 3.383,1.953 C -23.718,9.792 -15.516,4.797 -6.113,3.9 l 0,-3.9 C -16.954,0.921 -26.408,6.685 -32.31,15.124 m 0.323,7.244 -3.385,-1.955 c -2.154,4.595 -3.364,9.72 -3.364,15.129 0,5.409 1.21,10.534 3.364,15.128 l 3.385,-1.954 c -1.832,-4.015 -2.861,-8.474 -2.861,-13.174 0,-4.7 1.029,-9.159 2.861,-13.174 m 25.874,48.716 0,-3.9 c -9.403,-0.897 -17.605,-5.892 -22.814,-13.177 l -3.383,1.954 c 5.902,8.438 15.356,14.202 26.197,15.123 M -23.918,35.542 c 0,11.521 9.341,20.862 20.862,20.862 11.522,0 20.863,-9.341 20.863,-20.862 0,-11.521 -9.341,-20.862 -20.863,-20.862 -11.521,0 -20.862,9.341 -20.862,20.862 M 26.198,55.961 22.814,54.008 C 17.605,61.292 9.403,66.287 0,67.185 l 0,3.899 C 10.841,70.163 20.296,64.4 26.198,55.961 m -0.322,-7.244 3.385,1.954 c 2.154,-4.594 3.364,-9.719 3.364,-15.129 0,-5.409 -1.21,-10.534 -3.364,-15.129 l -3.385,1.955 c 1.831,4.015 2.859,8.473 2.859,13.174 0,4.701 -1.028,9.16 -2.859,13.175 m 16.932,-27.164 2.019,11.448 -7.584,1.338 c 0.012,0.401 0.03,0.8 0.03,1.203 0,0.404 -0.018,0.804 -0.03,1.203 l 7.583,1.337 -2.017,11.449 -7.573,-1.334 c -0.253,0.766 -0.528,1.521 -0.825,2.266 l 6.658,3.843 -5.811,10.068 -6.667,-3.849 c -0.498,0.632 -1.012,1.249 -1.546,1.848 l 4.945,5.893 -8.904,7.473 -4.943,-5.889 c -0.683,0.422 -1.376,0.829 -2.085,1.211 L 18.685,78.278 7.761,82.257 5.134,75.038 C 4.35,75.2 3.557,75.334 2.758,75.448 l 0,7.691 -11.627,0 0,-7.691 c -0.799,-0.114 -1.593,-0.248 -2.376,-0.41 l -2.627,7.219 -10.926,-3.977 2.628,-7.219 c -0.708,-0.382 -1.402,-0.789 -2.084,-1.211 l -4.943,5.889 -8.907,-7.471 4.947,-5.896 c -0.534,-0.6 -1.047,-1.217 -1.545,-1.847 l -6.667,3.849 -5.814,-10.068 6.66,-3.845 c -0.297,-0.743 -0.573,-1.498 -0.825,-2.265 l -7.573,1.335 -2.018,-11.449 7.585,-1.337 c -0.013,-0.399 -0.032,-0.799 -0.032,-1.203 0,-0.403 0.019,-0.802 0.032,-1.202 l -7.585,-1.339 2.018,-11.448 7.573,1.335 c 0.252,-0.767 0.528,-1.52 0.826,-2.265 l -6.661,-3.845 5.813,-10.068 6.668,3.849 c 0.498,-0.63 1.011,-1.247 1.545,-1.847 l -4.947,-5.896 8.906,-7.471 4.943,5.89 c 0.683,-0.423 1.376,-0.828 2.085,-1.212 l -2.628,-7.219 10.925,-3.977 2.628,7.22 c 0.783,-0.162 1.576,-0.295 2.376,-0.411 l 0,-7.691 11.627,0 0,7.691 c 0.799,0.116 1.592,0.249 2.376,0.411 l 2.627,-7.219 10.925,3.976 -2.628,7.219 c 0.709,0.384 1.402,0.789 2.085,1.212 l 4.943,-5.89 8.906,7.473 -4.946,5.896 c 0.533,0.599 1.048,1.215 1.545,1.845 l 6.666,-3.849 5.813,10.068 -6.659,3.845 c 0.297,0.745 0.572,1.498 0.825,2.265 l 7.572,-1.335 z"
             style="fill:#ffffff;fill-opacity:1;fill-rule:nonzero;stroke:none"
             id="path164"
             inkscape:connector-curvature="0" /></g><g
           id="g166"
           transform="translate(496.5654,213.0703)"><path
             d="m 0,0 c -9.162,0 -16.591,-7.429 -16.591,-16.593 0,-3.516 1.097,-6.775 2.964,-9.459 L 9.461,-2.964 C 6.777,-1.098 3.518,0 0,0"
             style="fill:#ffffff;fill-opacity:1;fill-rule:nonzero;stroke:none"
             id="path168"
             inkscape:connector-curvature="0" /></g><g
           id="g170"
           transform="translate(510.0049,206.2041)"><path
             d="m 0,0 -23.166,-23.165 c 2.733,-1.981 6.092,-3.154 9.727,-3.154 9.164,0 16.592,7.428 16.592,16.592 C 3.153,-6.092 1.982,-2.733 0,0"
             style="fill:#ffffff;fill-opacity:1;fill-rule:nonzero;stroke:none"
             id="path172"
             inkscape:connector-curvature="0" /></g><g
           id="g174"
           transform="translate(643.0566,385.6738)"><path
             d="m 0,0 c -11.4,0 -20.641,9.241 -20.641,20.641 0,11.399 9.241,20.64 20.641,20.64 11.398,0 20.641,-9.241 20.641,-20.64 C 20.641,9.241 11.398,0 0,0 m 0,46.729 c -14.408,0 -26.088,-11.68 -26.088,-26.088 0,-14.409 11.68,-26.088 26.088,-26.088 14.408,0 26.088,11.679 26.088,26.088 0,14.408 -11.68,26.088 -26.088,26.088"
             style="fill:#ffffff;fill-opacity:1;fill-rule:nonzero;stroke:none"
             id="path176"
             inkscape:connector-curvature="0" /></g><g
           id="g178"
           transform="translate(645.4736,425.0693)"><path
             d="m 0,0 0,-16.339 16.338,0 C 15.252,-7.826 8.512,-1.086 0,0"
             style="fill:#ffffff;fill-opacity:1;fill-rule:nonzero;stroke:none"
             id="path180"
             inkscape:connector-curvature="0" /></g><g
           id="g182"
           transform="translate(624.3018,408.7305)"><path
             d="m 0,0 16.34,0 0,16.339 C 7.826,15.253 1.086,8.513 0,0"
             style="fill:#ffffff;fill-opacity:1;fill-rule:nonzero;stroke:none"
             id="path184"
             inkscape:connector-curvature="0" /></g><g
           id="g186"
           transform="translate(640.6416,387.5596)"><path
             d="m 0,0 0,16.339 -16.34,0 C -15.254,7.826 -8.514,1.086 0,0"
             style="fill:#ffffff;fill-opacity:1;fill-rule:nonzero;stroke:none"
             id="path188"
             inkscape:connector-curvature="0" /></g><g
           id="g190"
           transform="translate(645.4736,387.5596)"><path
             d="M 0,0 C 8.512,1.086 15.252,7.827 16.338,16.339 L 0,16.339 0,0 Z"
             style="fill:#ffffff;fill-opacity:1;fill-rule:nonzero;stroke:none"
             id="path192"
             inkscape:connector-curvature="0" /></g><g
           id="g194"
           transform="translate(647.2627,357.4033)"><path
             d="m 0,0 0,5.366 c 12.94,1.236 24.228,8.109 31.396,18.133 l 4.655,-2.687 C 27.93,9.198 14.919,1.267 0,0 m -44.464,20.812 4.656,2.688 C -32.639,13.476 -21.352,6.602 -8.412,5.367 l 0,-5.367 c -14.919,1.267 -27.93,9.198 -36.052,20.812 m 0.444,9.969 -4.659,-2.689 c -2.965,6.322 -4.63,13.375 -4.63,20.819 0,7.444 1.665,14.497 4.63,20.819 l 4.659,-2.69 c -2.52,-5.524 -3.935,-11.66 -3.935,-18.129 0,-6.469 1.415,-12.604 3.935,-18.13 m 35.608,67.041 0,-5.367 c -12.94,-1.234 -24.227,-8.108 -31.396,-18.133 l -4.656,2.689 c 8.121,11.613 21.133,19.545 36.052,20.811 M -32.915,48.911 c 0,15.856 12.854,28.71 28.71,28.71 15.855,0 28.71,-12.854 28.71,-28.71 0,-15.855 -12.855,-28.71 -28.71,-28.71 -15.856,0 -28.71,12.855 -28.71,28.71 m 68.967,28.1 -4.656,-2.688 C 24.229,84.348 12.94,91.221 0,92.456 l 0,5.366 C 14.919,96.556 27.93,88.624 36.052,77.011 m -0.443,-9.969 4.658,2.688 c 2.964,-6.321 4.629,-13.375 4.629,-20.819 0,-7.444 -1.665,-14.497 -4.629,-20.818 l -4.658,2.688 c 2.521,5.526 3.936,11.66 3.936,18.13 0,6.47 -1.416,12.606 -3.936,18.131 m 23.3,-37.383 2.779,15.756 -10.436,1.84 c 0.017,0.553 0.042,1.101 0.042,1.656 0,0.557 -0.025,1.106 -0.042,1.656 l 10.436,1.84 -2.778,15.756 -10.42,-1.836 c -0.347,1.053 -0.727,2.092 -1.136,3.117 l 9.164,5.289 -7.998,13.856 -9.175,-5.297 c -0.686,0.869 -1.393,1.719 -2.127,2.543 l 6.805,8.109 -12.254,10.285 -6.802,-8.105 c -0.94,0.582 -1.895,1.141 -2.87,1.666 l 3.615,9.934 -15.033,5.474 -3.616,-9.933 c -1.078,0.222 -2.169,0.406 -3.269,0.564 l 0,10.582 -16,0 0,-10.582 c -1.1,-0.158 -2.191,-0.342 -3.27,-0.564 l -3.615,9.933 -15.035,-5.472 3.616,-9.936 c -0.974,-0.525 -1.929,-1.084 -2.868,-1.666 l -6.803,8.105 -12.257,-10.283 6.808,-8.113 c -0.735,-0.824 -1.441,-1.674 -2.127,-2.541 l -9.175,5.297 -8,-13.856 9.164,-5.291 c -0.408,-1.023 -0.787,-2.062 -1.134,-3.117 l -10.421,1.838 -2.779,-15.756 10.438,-1.84 c -0.017,-0.55 -0.042,-1.099 -0.042,-1.656 0,-0.555 0.025,-1.103 0.042,-1.654 l -10.438,-1.842 2.779,-15.756 10.421,1.838 c 0.347,-1.055 0.726,-2.092 1.135,-3.117 l -9.165,-5.291 7.999,-13.856 9.176,5.297 c 0.686,-0.867 1.392,-1.717 2.127,-2.541 L -52.438,3.876 -40.183,-6.407 -33.38,1.7 c 0.94,-0.582 1.895,-1.14 2.87,-1.668 l -3.616,-9.935 15.033,-5.473 3.616,9.936 c 1.079,-0.223 2.17,-0.407 3.271,-0.567 l 0,-10.582 16,0 0,10.582 c 1.1,0.16 2.191,0.344 3.269,0.567 l 3.616,-9.934 15.035,5.471 -3.616,9.935 c 0.975,0.528 1.929,1.086 2.869,1.668 l 6.802,-8.107 12.256,10.285 -6.806,8.113 c 0.734,0.824 1.441,1.672 2.126,2.539 l 9.174,-5.297 8,13.856 -9.165,5.291 c 0.41,1.025 0.789,2.062 1.136,3.117 l 10.419,-1.838 z"
             style="fill:#ffffff;fill-opacity:1;fill-rule:nonzero;stroke:none"
             id="path196"
             inkscape:connector-curvature="0" /></g><g
           id="g198"
           transform="translate(766.0684,425.0693)"><path
             d="m 0,0 c 0,-0.18 -0.009,-0.358 -0.014,-0.536 l 3.38,-0.597 -0.9,-5.103 -3.374,0.595 c -0.113,-0.341 -0.236,-0.677 -0.368,-1.008 l 2.967,-1.714 -2.59,-4.489 -2.972,1.716 c -0.221,-0.28 -0.45,-0.555 -0.688,-0.823 l 2.205,-2.627 -3.97,-3.331 -2.203,2.626 c -0.304,-0.188 -0.615,-0.369 -0.93,-0.54 l 1.172,-3.219 -4.869,-1.771 -1.172,3.217 c -0.349,-0.073 -0.703,-0.131 -1.059,-0.184 l 0,-3.427 -5.182,0 0,3.427 c -0.357,0.053 -0.71,0.111 -1.06,0.184 l -1.17,-3.218 -4.87,1.772 1.172,3.219 c -0.317,0.171 -0.626,0.352 -0.93,0.54 l -2.203,-2.626 -3.97,3.331 2.205,2.627 c -0.238,0.268 -0.466,0.543 -0.688,0.823 l -2.973,-1.716 -2.59,4.489 2.968,1.714 c -0.133,0.331 -0.256,0.667 -0.367,1.008 l -3.376,-0.595 -0.899,5.103 3.38,0.597 c -0.006,0.178 -0.014,0.356 -0.014,0.536 0,0.18 0.008,0.358 0.014,0.536 l -3.38,0.596 0.899,5.104 3.376,-0.596 c 0.111,0.341 0.234,0.678 0.367,1.009 l -2.968,1.714 2.59,4.488 2.973,-1.715 c 0.222,0.281 0.45,0.555 0.688,0.822 l -2.205,2.628 3.97,3.331 2.204,-2.625 c 0.304,0.187 0.612,0.368 0.929,0.539 l -1.172,3.219 4.87,1.772 1.171,-3.218 c 0.35,0.072 0.702,0.132 1.059,0.184 l 0,3.427 5.182,0 0,-3.427 c 0.356,-0.052 0.71,-0.112 1.059,-0.184 l 1.172,3.218 4.868,-1.773 -1.171,-3.218 c 0.315,-0.171 0.626,-0.352 0.93,-0.54 l 2.203,2.626 3.969,-3.332 -2.204,-2.627 c 0.238,-0.266 0.467,-0.541 0.688,-0.822 l 2.972,1.715 2.59,-4.488 -2.967,-1.714 c 0.131,-0.331 0.255,-0.667 0.368,-1.008 l 3.374,0.595 0.9,-5.104 -3.38,-0.596 C -0.009,0.358 0,0.18 0,0 m 13.601,-9.632 1.389,7.883 -5.221,0.92 C 9.777,-0.553 9.79,-0.278 9.79,0 9.79,0.278 9.777,0.553 9.769,0.829 L 14.99,1.749 13.601,9.632 8.388,8.712 C 8.214,9.239 8.023,9.759 7.819,10.272 l 4.585,2.647 -4.002,6.931 -4.59,-2.649 C 3.47,17.635 3.115,18.06 2.748,18.473 L 6.153,22.53 0.021,27.676 -3.381,23.62 c -0.47,0.291 -0.947,0.571 -1.435,0.834 l 1.808,4.969 -7.521,2.739 -1.809,-4.97 c -0.539,0.112 -1.086,0.204 -1.636,0.283 l 0,5.294 -8.005,0 0,-5.294 c -0.549,-0.079 -1.095,-0.171 -1.635,-0.283 l -1.808,4.97 -7.523,-2.738 1.81,-4.97 c -0.488,-0.263 -0.967,-0.543 -1.435,-0.833 l -3.404,4.055 -6.131,-5.145 3.406,-4.059 c -0.369,-0.413 -0.722,-0.837 -1.066,-1.271 l -4.589,2.649 -4.002,-6.931 4.585,-2.647 c -0.206,-0.513 -0.395,-1.033 -0.568,-1.56 l -5.214,0.92 -1.39,-7.883 5.221,-0.921 c -0.008,-0.275 -0.02,-0.55 -0.02,-0.828 0,-0.278 0.012,-0.553 0.02,-0.828 l -5.221,-0.921 1.39,-7.883 5.214,0.92 c 0.173,-0.527 0.362,-1.048 0.568,-1.559 l -4.585,-2.648 4.002,-6.931 4.589,2.65 c 0.344,-0.435 0.697,-0.859 1.066,-1.272 l -3.406,-4.059 6.13,-5.145 3.404,4.056 c 0.469,-0.291 0.948,-0.57 1.436,-0.834 l -1.81,-4.971 7.521,-2.737 1.809,4.97 c 0.54,-0.112 1.087,-0.204 1.636,-0.283 l 0,-5.294 8.005,0 0,5.294 c 0.55,0.079 1.097,0.171 1.636,0.283 l 1.809,-4.969 7.522,2.736 -1.809,4.971 c 0.488,0.264 0.965,0.543 1.435,0.834 l 3.402,-4.056 6.132,5.146 -3.404,4.059 c 0.366,0.412 0.721,0.836 1.063,1.271 l 4.59,-2.65 4.002,6.931 -4.585,2.648 c 0.204,0.511 0.395,1.032 0.569,1.559 l 5.213,-0.92 z"
             style="fill:#ffffff;fill-opacity:1;fill-rule:nonzero;stroke:none"
             id="path200"
             inkscape:connector-curvature="0" /></g><g
           id="g202"
           transform="translate(756.2686,436.8477)"><path
             d="m 0,0 c -2.319,1.613 -5.137,2.562 -8.177,2.562 -7.918,0 -14.338,-6.42 -14.338,-14.34 0,-3.039 0.948,-5.856 2.561,-8.175 L 0,0 Z"
             style="fill:#ffffff;fill-opacity:1;fill-rule:nonzero;stroke:none"
             id="path204"
             inkscape:connector-curvature="0" /></g><g
           id="g206"
           transform="translate(759.7061,433.4756)"><path
             d="m 0,0 -20.021,-20.02 c 2.363,-1.712 5.266,-2.726 8.407,-2.726 7.92,0 14.34,6.42 14.34,14.34 C 2.726,-5.265 1.714,-2.363 0,0"
             style="fill:#ffffff;fill-opacity:1;fill-rule:nonzero;stroke:none"
             id="path208"
             inkscape:connector-curvature="0" /></g><g
           id="g210"
           transform="translate(383.0669,94.0469)"><path
             d="m 0,0 0,21.363 c 7.23,2.47 12.95,8.19 15.42,15.42 l 21.363,0 C 33.462,18.071 18.712,3.321 0,0 m -52.785,36.783 21.364,0 c 2.47,-7.23 8.19,-12.95 15.421,-15.42 L -16,0 C -34.713,3.32 -49.464,18.07 -52.785,36.783 M -16,89.568 -16,68.205 c -7.231,-2.47 -12.952,-8.19 -15.421,-15.422 l -21.365,0 c 3.321,18.714 18.072,33.465 36.786,36.785 m -4.5,-44.784 c 0,6.904 5.597,12.5 12.5,12.5 6.903,0 12.5,-5.596 12.5,-12.5 0,-6.903 -5.597,-12.5 -12.5,-12.5 -6.903,0 -12.5,5.597 -12.5,12.5 m 57.285,7.999 -21.364,0 C 12.951,60.015 7.231,65.735 0,68.205 L 0,89.568 C 18.712,86.247 33.462,71.496 36.785,52.783 m 18.33,-27.251 2.779,15.756 -10.436,1.84 c 0.016,0.552 0.042,1.101 0.042,1.656 0,0.556 -0.026,1.105 -0.042,1.656 l 10.436,1.84 -2.777,15.756 -10.42,-1.837 c -0.348,1.054 -0.729,2.093 -1.137,3.117 l 9.164,5.29 -7.998,13.856 -9.176,-5.297 c -0.685,0.868 -1.392,1.718 -2.127,2.542 l 6.807,8.11 -12.256,10.286 -6.801,-8.107 c -0.939,0.582 -1.894,1.141 -2.871,1.667 l 3.615,9.934 L 6.885,109.071 3.27,99.138 C 2.191,99.359 1.1,99.543 0,99.702 l 0,10.582 -16,0 0,-10.582 c -1.1,-0.159 -2.191,-0.343 -3.27,-0.564 l -3.615,9.933 -15.035,-5.472 3.616,-9.936 c -0.974,-0.526 -1.929,-1.085 -2.868,-1.666 l -6.803,8.106 -12.256,-10.284 6.807,-8.113 c -0.735,-0.824 -1.441,-1.674 -2.127,-2.541 l -9.175,5.297 -8,-13.856 9.164,-5.291 c -0.408,-1.024 -0.787,-2.063 -1.134,-3.117 l -10.421,1.838 -2.779,-15.756 10.438,-1.841 c -0.017,-0.55 -0.042,-1.099 -0.042,-1.655 0,-0.555 0.025,-1.104 0.042,-1.655 l -10.438,-1.841 2.779,-15.756 10.421,1.837 c 0.347,-1.054 0.726,-2.092 1.135,-3.116 l -9.165,-5.291 7.999,-13.856 9.176,5.297 c 0.686,-0.867 1.392,-1.716 2.127,-2.541 l -6.807,-8.113 12.254,-10.283 6.803,8.106 c 0.94,-0.582 1.895,-1.14 2.87,-1.667 l -3.616,-9.935 15.033,-5.473 3.616,9.935 c 1.079,-0.223 2.17,-0.407 3.271,-0.566 l 0,-10.582 16,0 0,10.582 c 1.1,0.159 2.191,0.343 3.27,0.566 l 3.615,-9.933 15.034,5.471 -3.615,9.935 c 0.975,0.527 1.93,1.085 2.869,1.667 l 6.801,-8.106 12.258,10.285 -6.807,8.112 c 0.735,0.825 1.442,1.673 2.125,2.54 l 9.174,-5.297 8,13.856 -9.164,5.291 c 0.41,1.024 0.789,2.062 1.137,3.116 l 10.418,-1.837 z"
             style="fill:#ffffff;fill-opacity:1;fill-rule:nonzero;stroke:none"
             id="path212"
             inkscape:connector-curvature="0" /></g><g
           id="g214"
           transform="translate(420.6035,138.8301)"><path
             d="m 0,0 c 0,-25.149 -20.387,-45.537 -45.537,-45.537 -25.15,0 -45.538,20.388 -45.538,45.537 0,25.151 20.388,45.539 45.538,45.539 C -20.387,45.539 0,25.151 0,0"
             style="fill:#4c7184;fill-opacity:1;fill-rule:nonzero;stroke:none"
             id="path216"
             inkscape:connector-curvature="0" /></g><g
           id="g218"
           transform="translate(356.002,117.3242)"><path
             d="M 0,0 23.787,-23.788 C 44,-21.705 60.278,-6.398 63.855,13.333 L 33.578,43.611 0,42.758 0,0 Z"
             style="fill:#2d586e;fill-opacity:1;fill-rule:nonzero;stroke:none"
             id="path220"
             inkscape:connector-curvature="0" /></g><g
           id="g222"
           transform="translate(385.8447,121.3643)"><path
             d="M 0,0 -2.108,2.108 C -3.062,1.67 -4.082,1.383 -5.128,1.257 -5.896,1.139 -6.387,1.163 -7.236,1.223 l -0.101,0.008 c -5.324,0.498 -9.329,4.909 -9.329,10.256 0.01,2.784 1.098,5.372 3.045,7.313 1.956,1.931 4.546,2.994 7.295,2.985 2.388,-0.009 4.58,-0.835 6.326,-2.21 l 0,14.583 c 0,0.886 -0.717,1.595 -1.594,1.595 l -27.158,0.017 c 0,1.087 1.645,1.644 1.645,1.644 l 27.107,0 c 1.695,0 1.645,-1.493 1.645,-1.493 l 0,-17.965 c 1.442,-1.771 2.302,-4.023 2.302,-6.469 0,-1.493 -0.32,-2.935 -0.919,-4.259 l 1.13,-1.13 0,32.387 c 0,1.19 -1.492,1.493 -1.492,1.493 l -30.069,0 c -4.487,0 -4.487,-4.159 -4.487,-4.159 l 0,-38.265 c 0,-0.877 0.709,-1.594 1.593,-1.594 l 28.703,0 C -0.708,-4.04 0,-3.323 0,-2.446 l 2.438,0 L 0.835,-0.835 0,0 Z"
             style="fill:#86cccc;fill-opacity:1;fill-rule:nonzero;stroke:none"
             id="path224"
             inkscape:connector-curvature="0" /></g><path
           d="m 361.791,151.195 16.463,0 0,-3.111 -16.463,0 0,3.111 z"
           style="fill:#ffffff;fill-opacity:1;fill-rule:nonzero;stroke:none"
           id="path226"
           inkscape:connector-curvature="0" /><g
           id="g228"
           transform="translate(395.7466,118.834)"><path
             d="m 0,0 -9.286,9.277 c 0.945,1.35 1.501,2.986 1.51,4.757 0.017,4.622 -3.72,8.384 -8.342,8.392 -4.613,0.017 -8.374,-3.719 -8.392,-8.332 -0.008,-4.362 3.306,-7.954 7.566,-8.36 l 0.042,0 c 0.835,-0.058 1.153,-0.066 1.729,0.026 1.408,0.16 2.707,0.675 3.812,1.442 l 9.286,-9.286 c 0.574,-0.573 1.502,-0.573 2.075,0 C 0.574,-1.51 0.574,-0.582 0,0"
             style="fill:#ed5947;fill-opacity:1;fill-rule:nonzero;stroke:none"
             id="path230"
             inkscape:connector-curvature="0" /></g><g
           id="g232"
           transform="translate(379.5869,126.627)"><path
             d="m 0,0 c -3.467,0.008 -6.267,2.825 -6.257,6.292 0.008,3.466 2.833,6.267 6.299,6.25 C 3.5,12.533 6.3,9.716 6.292,6.25 6.283,2.783 3.458,-0.017 0,0"
             style="fill:#ffffff;fill-opacity:1;fill-rule:nonzero;stroke:none"
             id="path234"
             inkscape:connector-curvature="0" /></g><g
           id="g236"
           transform="translate(591.4189,306.2187)"><path
             d="m 0,0 c 0,-0.311 -0.015,-0.618 -0.024,-0.927 l 5.84,-1.03 -1.554,-8.818 -5.831,1.028 c -0.195,-0.59 -0.407,-1.17 -0.636,-1.743 l 5.128,-2.962 -4.477,-7.755 -5.134,2.965 c -0.382,-0.486 -0.779,-0.96 -1.19,-1.422 l 3.81,-4.54 -6.86,-5.757 -3.807,4.538 c -0.526,-0.326 -1.061,-0.638 -1.607,-0.932 l 2.025,-5.563 -8.414,-3.061 -2.024,5.559 c -0.603,-0.125 -1.215,-0.227 -1.83,-0.317 l 0,-5.922 -8.955,0 0,5.922 c -0.616,0.09 -1.228,0.192 -1.831,0.317 l -2.023,-5.56 -8.415,3.062 2.025,5.563 c -0.546,0.294 -1.081,0.606 -1.606,0.932 l -3.807,-4.538 -6.86,5.756 3.811,4.54 c -0.412,0.463 -0.808,0.937 -1.191,1.423 l -5.135,-2.965 -4.477,7.755 5.129,2.962 c -0.228,0.573 -0.441,1.153 -0.635,1.743 l -5.833,-1.028 -1.554,8.818 5.84,1.031 c -0.009,0.308 -0.023,0.615 -0.023,0.926 0,0.311 0.014,0.618 0.023,0.926 l -5.84,1.031 1.554,8.818 5.833,-1.03 c 0.194,0.591 0.407,1.172 0.635,1.745 l -5.129,2.962 4.477,7.755 5.135,-2.965 c 0.383,0.486 0.779,0.96 1.191,1.422 l -3.811,4.541 6.86,5.756 3.808,-4.536 c 0.525,0.324 1.059,0.636 1.605,0.93 l -2.025,5.563 8.415,3.062 2.024,-5.559 c 0.604,0.124 1.214,0.226 1.83,0.316 l 0,5.922 8.955,0 0,-5.922 c 0.615,-0.09 1.227,-0.192 1.83,-0.316 l 2.024,5.559 8.413,-3.064 -2.024,-5.561 c 0.546,-0.294 1.081,-0.606 1.607,-0.932 l 3.807,4.538 6.859,-5.757 -3.809,-4.54 c 0.41,-0.46 0.808,-0.935 1.19,-1.422 l 5.134,2.965 4.477,-7.755 -5.128,-2.962 c 0.227,-0.573 0.441,-1.153 0.636,-1.743 l 5.831,1.028 1.554,-8.818 -5.84,-1.03 C -0.015,0.618 0,0.311 0,0 m 23.502,-16.644 2.401,13.622 -9.022,1.589 c 0.015,0.478 0.037,0.953 0.037,1.433 0,0.48 -0.022,0.955 -0.037,1.433 l 9.022,1.589 -2.401,13.622 -9.008,-1.589 c -0.301,0.911 -0.629,1.809 -0.982,2.696 l 7.923,4.573 -6.915,11.977 -7.933,-4.578 c -0.592,0.75 -1.203,1.485 -1.838,2.198 l 5.884,7.011 -10.595,8.892 -5.881,-7.009 c -0.811,0.503 -1.636,0.987 -2.48,1.442 l 3.125,8.587 -12.996,4.732 -3.125,-8.588 c -0.933,0.193 -1.877,0.352 -2.827,0.489 l 0,9.148 -13.833,0 0,-9.148 c -0.951,-0.137 -1.894,-0.296 -2.826,-0.489 l -3.125,8.588 -12.999,-4.73 3.127,-8.589 c -0.843,-0.455 -1.669,-0.939 -2.48,-1.441 l -5.881,7.008 -10.596,-8.89 5.886,-7.015 c -0.637,-0.713 -1.247,-1.446 -1.84,-2.196 l -7.931,4.578 -6.916,-11.977 7.922,-4.574 c -0.353,-0.886 -0.68,-1.785 -0.98,-2.695 l -9.01,1.589 -2.402,-13.622 9.023,-1.591 C -79.021,0.955 -79.042,0.48 -79.042,0 c 0,-0.48 0.021,-0.955 0.035,-1.431 l -9.023,-1.591 2.402,-13.622 9.01,1.589 c 0.3,-0.911 0.627,-1.809 0.98,-2.695 l -7.922,-4.574 6.915,-11.977 7.932,4.578 c 0.593,-0.75 1.203,-1.483 1.84,-2.196 l -5.886,-7.015 10.594,-8.889 5.882,7.008 c 0.811,-0.503 1.637,-0.987 2.481,-1.442 l -3.127,-8.589 12.996,-4.73 3.126,8.588 c 0.933,-0.193 1.877,-0.352 2.828,-0.489 l 0,-9.148 13.833,0 0,9.148 c 0.95,0.137 1.894,0.296 2.827,0.489 l 3.125,-8.587 12.998,4.729 -3.127,8.589 c 0.844,0.455 1.669,0.939 2.48,1.442 l 5.881,-7.008 10.596,8.891 -5.884,7.014 c 0.634,0.712 1.245,1.445 1.837,2.195 l 7.933,-4.578 6.915,11.977 -7.923,4.574 c 0.353,0.886 0.681,1.784 0.982,2.695 l 9.008,-1.589 z"
             style="fill:#ffffff;fill-opacity:1;fill-rule:nonzero;stroke:none"
             id="path238"
             inkscape:connector-curvature="0" /></g><g
           id="g240"
           transform="translate(574.4844,326.5713)"><path
             d="m 0,0 c -4.007,2.788 -8.876,4.427 -14.129,4.427 -13.683,0 -24.776,-11.094 -24.776,-24.78 0,-5.251 1.636,-10.117 4.426,-14.126 L 0,0 Z"
             style="fill:#ffffff;fill-opacity:1;fill-rule:nonzero;stroke:none"
             id="path242"
             inkscape:connector-curvature="0" /></g><g
           id="g244"
           transform="translate(580.4248,320.7451)"><path
             d="m 0,0 -34.596,-34.595 c 4.082,-2.96 9.099,-4.711 14.527,-4.711 13.685,0 24.779,11.094 24.779,24.78 C 4.71,-9.099 2.961,-4.083 0,0"
             style="fill:#ffffff;fill-opacity:1;fill-rule:nonzero;stroke:none"
             id="path246"
             inkscape:connector-curvature="0" /></g><g
           id="g248"
           transform="translate(602.6172,306.2178)"><path
             d="m 0,0 c 0,-23.34 -18.921,-42.262 -42.262,-42.262 -23.34,0 -42.261,18.922 -42.261,42.262 0,23.342 18.921,42.264 42.261,42.264 C -18.921,42.264 0,23.342 0,0"
             style="fill:#4c7184;fill-opacity:1;fill-rule:nonzero;stroke:none"
             id="path250"
             inkscape:connector-curvature="0" /></g><g
           id="g252"
           transform="translate(602.6006,306.8818)"><path
             d="m 0,0 -10.675,10.548 -11.093,-4.097 -22.674,7.238 -11.076,-2.321 -14.957,-17.158 0,-4.607 17.315,-12.511 -1.906,-4.758 15.19,-15.19 C -17.638,-41.627 0.017,-23.209 0.017,-0.664 0.017,-0.441 0.003,-0.222 0,0"
             style="fill:#2d586e;fill-opacity:1;fill-rule:nonzero;stroke:none"
             id="path254"
             inkscape:connector-curvature="0" /></g><g
           id="g256"
           transform="translate(591.9258,317.4297)"><path
             d="m 0,0 0,-19.136 c 0,0 -4.096,-0.806 -4.938,-0.912 -0.842,-0.106 -3.484,-0.96 -5.401,0.882 -2.954,2.831 -13.449,13.269 -13.449,13.269 0,0 -1.81,1.775 -4.715,0.241 -2.668,-1.406 -6.622,-3.467 -8.272,-4.269 -3.122,-1.662 -5.71,0.975 -5.71,2.983 0,1.557 0.971,2.615 2.362,3.393 3.765,2.282 11.702,6.737 15.008,8.494 2.01,1.069 3.457,1.16 6.216,-1.164 3.397,-2.857 6.421,-5.463 6.421,-5.463 0,0 0.986,-0.822 2.559,-0.491 C -6.058,-1.355 0,0 0,0"
             style="fill:#ffffff;fill-opacity:1;fill-rule:nonzero;stroke:none"
             id="path258"
             inkscape:connector-curvature="0" /></g><g
           id="g260"
           transform="translate(550.1504,285.0059)"><path
             d="m 0,0 c 0.51,1.307 0.339,2.767 -0.636,3.77 -0.874,0.896 -2.153,1.131 -3.373,0.852 0.342,1.209 0.154,2.495 -0.726,3.403 -0.878,0.895 -2.155,1.136 -3.374,0.854 0.338,1.207 0.151,2.494 -0.73,3.399 -1.38,1.415 -3.765,1.355 -5.332,-0.139 -1.559,-1.495 -2.559,-4.206 -1.167,-5.802 1.39,-1.588 2.985,-0.622 4.202,-0.344 -0.338,-1.208 -1.352,-2.33 -0.104,-3.911 1.249,-1.58 2.986,-0.622 4.204,-0.347 -0.34,-1.203 -1.311,-2.438 -0.109,-3.903 1.211,-1.47 3.197,-0.686 4.507,-0.279 -0.505,-1.301 -1.589,-2.703 -0.196,-4.275 1.39,-1.583 4.599,-0.85 6.168,0.646 1.564,1.496 1.714,3.867 0.338,5.286 C 2.722,0.184 1.307,0.411 0,0"
             style="fill:#ffffff;fill-opacity:1;fill-rule:nonzero;stroke:none"
             id="path262"
             inkscape:connector-curvature="0" /></g><g
           id="g264"
           transform="translate(578.7656,294.9619)"><path
             d="m 0,0 c -11.337,11.337 -6.004,6.002 -12.105,12.116 0,0 -1.833,1.826 -4.249,0.765 -1.697,-0.743 -3.881,-1.756 -5.524,-2.529 -1.806,-0.948 -3.105,-1.241 -3.717,-1.237 -3.49,0.024 -6.323,2.828 -6.323,6.317 0,2.262 1.202,4.232 2.993,5.35 2.52,1.743 8.318,4.827 8.318,4.827 0,0 -1.766,2.239 -5.636,2.239 -3.868,0 -11.95,-5.295 -11.95,-5.295 0,0 -2.294,-1.469 -5.562,-0.147 l -6.3,2.195 0,-21.898 c 0,0 1.799,-0.52 3.415,-1.181 0.366,1.041 0.954,2.003 1.771,2.796 2.681,2.555 7.127,2.581 9.566,0.07 0.736,-0.765 1.247,-1.675 1.509,-2.682 0.983,-0.304 1.874,-0.841 2.59,-1.578 0.737,-0.758 1.247,-1.675 1.511,-2.677 0.983,-0.304 1.871,-0.843 2.589,-1.581 0.808,-0.833 1.348,-1.84 1.599,-2.932 1.026,-0.298 1.953,-0.855 2.7,-1.619 1.467,-1.506 1.987,-3.548 1.672,-5.519 0.002,0 0.008,0 0.01,-0.004 0.024,-0.032 0.908,-1.019 1.46,-1.574 1.081,-1.082 2.846,-1.082 3.931,0 1.076,1.082 1.08,2.842 0,3.929 -0.04,0.039 -3.901,4.077 -3.589,4.391 0.308,0.311 5.226,-4.808 5.317,-4.901 1.08,-1.079 2.843,-1.079 3.928,0 1.082,1.082 1.079,2.842 0,3.926 -0.053,0.051 -0.274,0.264 -0.357,0.348 0,0 -4.876,4.345 -4.505,4.716 0.375,0.373 6.432,-5.28 6.444,-5.28 1.087,-0.98 2.765,-0.973 3.813,0.075 1.019,1.018 1.04,2.632 0.138,3.718 -0.019,0.057 -4.617,4.862 -4.258,5.223 0.363,0.367 4.913,-4.317 4.922,-4.327 1.077,-1.08 2.843,-1.08 3.928,0 1.079,1.079 1.079,2.843 0,3.932 C 0.034,-0.019 0.015,-0.01 0,0"
             style="fill:#86cccc;fill-opacity:1;fill-rule:nonzero;stroke:none"
             id="path266"
             inkscape:connector-curvature="0" /></g><g
           id="g268"
           transform="translate(477.5986,254.4092)"><path
             d="m 0,0 0,7.765 c 2.335,0.617 4.421,1.847 6.073,3.508 L 12.801,7.39 C 9.636,3.543 5.13,0.846 0,0 m -19.679,7.39 6.727,3.883 c 1.653,-1.661 3.739,-2.891 6.073,-3.508 l 0,-7.764 c -5.13,0.845 -9.635,3.543 -12.8,7.389 m 3.286,9.84 -6.727,-3.884 c -0.864,2.3 -1.341,4.79 -1.341,7.391 0,2.602 0.477,5.092 1.34,7.392 l 6.728,-3.885 c -0.301,-1.118 -0.465,-2.293 -0.465,-3.507 0,-1.214 0.164,-2.388 0.465,-3.507 m 9.514,24.245 0,-7.765 C -9.213,33.093 -11.3,31.862 -12.953,30.2 l -6.727,3.885 c 3.165,3.847 7.67,6.545 12.801,7.39 m 3.44,-28.038 c -4.033,0 -7.301,3.267 -7.301,7.299 0,4.034 3.268,7.302 7.301,7.302 4.032,0 7.301,-3.268 7.301,-7.302 0,-4.032 -3.269,-7.299 -7.301,-7.299 M 12.801,34.085 6.073,30.2 C 4.421,31.862 2.335,33.093 0,33.71 l 0,7.766 C 5.131,40.63 9.637,37.932 12.801,34.085 m 4.782,-13.348 c 0,-2.602 -0.477,-5.091 -1.341,-7.392 l -6.728,3.884 c 0.301,1.12 0.466,2.294 0.466,3.508 0,1.214 -0.165,2.389 -0.466,3.507 l 6.728,3.885 c 0.864,-2.3 1.341,-4.79 1.341,-7.392 m 8.919,-9.133 1.319,7.475 -4.951,0.872 c 0.008,0.263 0.02,0.523 0.02,0.786 0,0.264 -0.012,0.524 -0.02,0.786 l 4.95,0.873 -1.317,7.474 -4.943,-0.871 c -0.165,0.5 -0.345,0.992 -0.539,1.479 l 4.347,2.509 -3.794,6.573 -4.352,-2.513 c -0.326,0.412 -0.661,0.815 -1.01,1.206 L 19.44,42.101 13.627,46.979 10.4,43.134 C 9.954,43.41 9.502,43.675 9.039,43.925 l 1.715,4.713 -7.132,2.596 -1.715,-4.713 C 1.396,46.627 0.878,46.714 0.356,46.79 l 0,5.02 -7.589,0 0,-5.02 c -0.523,-0.076 -1.04,-0.163 -1.552,-0.269 l -1.715,4.713 -7.133,-2.595 1.716,-4.714 c -0.462,-0.25 -0.916,-0.515 -1.36,-0.79 l -3.228,3.844 -5.814,-4.877 3.229,-3.849 c -0.349,-0.391 -0.683,-0.795 -1.009,-1.206 l -4.352,2.513 -3.795,-6.573 4.347,-2.509 c -0.194,-0.487 -0.373,-0.98 -0.538,-1.48 l -4.944,0.872 -1.318,-7.474 4.951,-0.874 c -0.008,-0.261 -0.02,-0.521 -0.02,-0.785 0,-0.263 0.012,-0.523 0.02,-0.785 l -4.951,-0.873 1.318,-7.475 4.944,0.872 c 0.165,-0.5 0.344,-0.993 0.539,-1.479 l -4.348,-2.51 3.794,-6.572 4.353,2.513 c 0.326,-0.411 0.66,-0.816 1.009,-1.206 l -3.229,-3.849 5.813,-4.878 3.228,3.846 c 0.445,-0.277 0.898,-0.542 1.361,-0.791 l -1.716,-4.713 7.132,-2.597 1.716,4.713 c 0.512,-0.105 1.029,-0.192 1.552,-0.268 l 0,-5.02 7.589,0 0,5.02 c 0.522,0.076 1.04,0.163 1.551,0.268 l 1.715,-4.712 7.133,2.596 -1.716,4.713 c 0.463,0.249 0.915,0.514 1.361,0.791 l 3.227,-3.846 5.815,4.879 -3.229,3.848 c 0.349,0.391 0.683,0.795 1.009,1.206 l 4.351,-2.513 3.795,6.572 -4.347,2.51 c 0.194,0.486 0.374,0.979 0.539,1.479 l 4.942,-0.872 z"
             style="fill:#ffffff;fill-opacity:1;fill-rule:nonzero;stroke:none"
             id="path270"
             inkscape:connector-curvature="0" /></g><g
           id="g272"
           transform="translate(497.1816,275.1445)"><path
             d="m 0,0 c 0,-12.713 -10.307,-23.021 -23.021,-23.021 -12.715,0 -23.024,10.308 -23.024,23.021 0,12.717 10.309,23.025 23.024,23.025 C -10.307,23.025 0,12.717 0,0"
             style="fill:#f17a6c;fill-opacity:1;fill-rule:nonzero;stroke:none"
             id="path274"
             inkscape:connector-curvature="0" /></g><g
           id="g276"
           transform="translate(459.7373,260.5)"><path
             d="m 0,0 7.237,-7.227 c 2.262,-0.743 4.676,-1.15 7.186,-1.15 12.715,0 23.021,10.309 23.021,23.022 0,0.05 -0.004,0.101 -0.004,0.153 L 26.042,26.195 20.739,28.271 3.46,11.087 2.2,8.807 0,0 Z"
             style="fill:#ed5947;fill-opacity:1;fill-rule:nonzero;stroke:none"
             id="path278"
             inkscape:connector-curvature="0" /></g><g
           id="g280"
           transform="translate(468.4004,262.7979)"><path
             d="M 0,0 C -0.431,0.431 -0.639,0.979 -0.716,1.542 -0.898,1.515 -1.084,1.487 -1.272,1.487 c -0.963,0 -1.869,0.376 -2.549,1.059 -0.683,0.683 -1.057,1.586 -1.057,2.548 0,0.177 0.027,0.346 0.051,0.517 -0.582,0.08 -1.121,0.335 -1.544,0.758 -0.04,0.041 -0.054,0.096 -0.092,0.14 l -2.2,-8.807 8.783,2.199 C 0.082,-0.062 0.038,-0.037 0,0 M 11.475,20.391 -2.547,6.369 c -0.704,-0.702 -0.703,-1.845 0,-2.55 0.704,-0.704 1.845,-0.708 2.551,0.003 l 14.021,14.02 -2.55,2.549 z M -5.097,8.918 c -0.351,-0.352 -0.351,-0.923 0,-1.274 0.353,-0.352 0.923,-0.352 1.276,0 L 10.201,21.666 8.928,22.939 -5.097,8.918 Z M 1.278,2.546 c -0.351,-0.353 -0.351,-0.923 0,-1.275 0.353,-0.354 0.923,-0.354 1.275,0 L 16.577,15.292 15.301,16.566 1.278,2.546 Z m 17.848,15.296 -1.274,-1.277 -7.651,7.649 1.277,1.276 c 1.407,1.407 3.69,1.407 5.099,0 l 2.549,-2.551 c 1.406,-1.407 1.406,-3.69 0,-5.097"
             style="fill:#ffffff;fill-opacity:1;fill-rule:nonzero;stroke:none"
             id="path282"
             inkscape:connector-curvature="0" /></g><g
           id="g284"
           transform="translate(718.8418,467.2803)"><path
             d="m 0,0 0,3.899 c 9.403,0.898 17.605,5.893 22.814,13.177 l 3.383,-1.953 C 20.295,6.685 10.841,0.921 0,0 m -32.31,15.124 3.383,1.953 C -23.718,9.792 -15.516,4.797 -6.113,3.9 l 0,-3.9 C -16.954,0.921 -26.408,6.685 -32.31,15.124 m 0.323,7.244 -3.385,-1.955 c -2.154,4.595 -3.364,9.72 -3.364,15.129 0,5.409 1.21,10.534 3.364,15.128 l 3.385,-1.954 c -1.832,-4.015 -2.861,-8.474 -2.861,-13.174 0,-4.7 1.029,-9.159 2.861,-13.174 m 25.874,48.716 0,-3.9 c -9.403,-0.897 -17.605,-5.892 -22.814,-13.177 l -3.383,1.954 c 5.902,8.438 15.356,14.202 26.197,15.123 M -23.918,35.542 c 0,11.521 9.341,20.862 20.862,20.862 11.522,0 20.863,-9.341 20.863,-20.862 0,-11.521 -9.341,-20.862 -20.863,-20.862 -11.521,0 -20.862,9.341 -20.862,20.862 M 26.198,55.961 22.814,54.008 C 17.605,61.292 9.403,66.287 0,67.185 l 0,3.899 C 10.841,70.163 20.296,64.4 26.198,55.961 m -0.322,-7.244 3.385,1.954 c 2.154,-4.594 3.364,-9.719 3.364,-15.129 0,-5.409 -1.21,-10.534 -3.364,-15.129 l -3.385,1.955 c 1.831,4.015 2.859,8.473 2.859,13.174 0,4.701 -1.028,9.16 -2.859,13.175 m 16.932,-27.164 2.019,11.448 -7.584,1.338 c 0.012,0.401 0.03,0.8 0.03,1.203 0,0.404 -0.018,0.804 -0.03,1.203 l 7.583,1.337 -2.017,11.449 -7.573,-1.334 c -0.253,0.766 -0.528,1.521 -0.825,2.266 l 6.658,3.843 -5.811,10.068 -6.667,-3.849 c -0.498,0.632 -1.012,1.249 -1.546,1.848 l 4.945,5.893 -8.904,7.473 -4.943,-5.889 c -0.683,0.422 -1.376,0.829 -2.085,1.211 L 18.685,78.278 7.761,82.257 5.134,75.038 C 4.35,75.2 3.557,75.334 2.758,75.448 l 0,7.691 -11.627,0 0,-7.691 c -0.799,-0.114 -1.593,-0.248 -2.376,-0.41 l -2.627,7.219 -10.926,-3.977 2.628,-7.219 c -0.708,-0.382 -1.402,-0.789 -2.084,-1.211 l -4.943,5.889 -8.907,-7.471 4.947,-5.896 c -0.534,-0.6 -1.047,-1.217 -1.545,-1.847 l -6.667,3.849 -5.814,-10.068 6.66,-3.845 c -0.297,-0.743 -0.573,-1.498 -0.825,-2.265 l -7.573,1.335 -2.018,-11.449 7.585,-1.337 c -0.013,-0.399 -0.032,-0.799 -0.032,-1.203 0,-0.403 0.019,-0.802 0.032,-1.202 l -7.585,-1.339 2.018,-11.448 7.573,1.335 c 0.252,-0.767 0.528,-1.52 0.826,-2.265 l -6.661,-3.845 5.813,-10.068 6.668,3.849 c 0.498,-0.63 1.011,-1.247 1.545,-1.847 l -4.947,-5.896 8.906,-7.471 4.943,5.89 c 0.683,-0.423 1.376,-0.828 2.085,-1.212 l -2.628,-7.219 10.925,-3.977 2.628,7.22 c 0.783,-0.162 1.576,-0.295 2.376,-0.411 l 0,-7.691 11.627,0 0,7.691 c 0.799,0.116 1.592,0.249 2.376,0.411 l 2.627,-7.219 10.925,3.976 -2.628,7.219 c 0.709,0.384 1.402,0.789 2.085,1.212 l 4.943,-5.89 8.906,7.473 -4.946,5.896 c 0.533,0.599 1.048,1.215 1.545,1.845 l 6.666,-3.849 5.813,10.068 -6.659,3.845 c 0.297,0.745 0.572,1.498 0.825,2.265 l 7.572,-1.335 z"
             style="fill:#ffffff;fill-opacity:1;fill-rule:nonzero;stroke:none"
             id="path286"
             inkscape:connector-curvature="0" /></g><g
           id="g288"
           transform="translate(715.7842,519.415)"><path
             d="m 0,0 c -9.162,0 -16.591,-7.429 -16.591,-16.593 0,-3.516 1.097,-6.775 2.964,-9.459 L 9.461,-2.964 C 6.777,-1.098 3.518,0 0,0"
             style="fill:#ffffff;fill-opacity:1;fill-rule:nonzero;stroke:none"
             id="path290"
             inkscape:connector-curvature="0" /></g><g
           id="g292"
           transform="translate(729.2236,512.5488)"><path
             d="m 0,0 -23.166,-23.165 c 2.733,-1.981 6.092,-3.154 9.727,-3.154 9.164,0 16.592,7.428 16.592,16.592 C 3.153,-6.092 1.982,-2.733 0,0"
             style="fill:#ffffff;fill-opacity:1;fill-rule:nonzero;stroke:none"
             id="path294"
             inkscape:connector-curvature="0" /></g><g
           id="g296"
           transform="translate(753.7139,502.8213)"><path
             d="m 0,0 c 0,-20.947 -16.98,-37.928 -37.929,-37.928 -20.947,0 -37.928,16.981 -37.928,37.928 0,20.949 16.981,37.93 37.928,37.93 C -16.98,37.93 0,20.949 0,0"
             style="fill:#ed5947;fill-opacity:1;fill-rule:nonzero;stroke:none"
             id="path298"
             inkscape:connector-curvature="0" /></g><g
           id="g300"
           transform="translate(753.7139,502.8213)"><path
             d="m 0,0 c 0,-20.947 -16.98,-37.928 -37.929,-37.928 -20.947,0 -37.928,16.981 -37.928,37.928 0,20.949 16.981,37.93 37.928,37.93 C -16.98,37.93 0,20.949 0,0"
             style="fill:#f17a6c;fill-opacity:1;fill-rule:nonzero;stroke:none"
             id="path302"
             inkscape:connector-curvature="0" /></g><g
           id="g304"
           transform="translate(726.4834,527.75)"><path
             d="m 0,0 -20.88,-44.764 17.182,-17.437 c 16.977,3.169 29.978,17.638 30.879,35.31 L 0,0 Z"
             style="fill:#ed5947;fill-opacity:1;fill-rule:nonzero;stroke:none"
             id="path306"
             inkscape:connector-curvature="0" /></g><g
           id="g308"
           transform="translate(742.2305,484.7715)"><path
             d="m 0,0 -10.307,10.307 -1.332,-0.81 -2.029,1.967 c 3.166,4.447 2.787,10.655 -1.198,14.651 -0.277,0.266 -0.584,0.481 -0.881,0.717 l 0,16.147 -8.627,0 0,-13.657 c -1.26,-0.164 -2.48,-0.533 -3.627,-1.107 l 0,4.15 -8.626,0 0,-34.151 8.616,0 0,9.695 c 1.157,-0.584 2.377,-0.955 3.637,-1.106 l 0,-8.589 8.627,0 0,10.033 1.332,-1.283 -0.769,-1.537 10.307,-10.304 c 0,0 2.243,-0.031 3.596,1.516 C 0.071,-1.813 0,0 0,0"
             style="fill:#ffffff;fill-opacity:1;fill-rule:nonzero;stroke:none"
             id="path310"
             inkscape:connector-curvature="0" /></g><g
           id="g312"
           transform="translate(713.1025,509.0425)"><path
             d="m 0,0 c 3.412,3.422 8.985,3.432 12.407,0 3.422,-3.433 3.433,-8.988 0,-12.417 -3.422,-3.422 -8.985,-3.433 -12.417,0 C -3.442,-8.998 -3.432,-3.433 0,0"
             style="fill:#86cccc;fill-opacity:1;fill-rule:nonzero;stroke:none"
             id="path314"
             inkscape:connector-curvature="0" /></g><path
           d="m 693.34,508.407 8.637,0 0,-25.418 -8.637,0 0,25.418 z"
           style="fill:#ffffff;fill-opacity:1;fill-rule:nonzero;stroke:none"
           id="path316"
           inkscape:connector-curvature="0" /><path
           d="m 344.667,274.922 -31.333,0 0,20.963 31.333,0 0,-20.963 z"
           style="fill:#ffffff;fill-opacity:1;fill-rule:nonzero;stroke:none"
           id="path318"
           inkscape:connector-curvature="0" /><g
           id="g320"
           transform="translate(311.5684,257.8076)"><path
             d="m 0,0 54.334,0 c 0,12.486 -10.122,22.609 -22.609,22.609 L 0,22.609 0,0 Z"
             style="fill:#3c3c3b;fill-opacity:1;fill-rule:nonzero;stroke:none"
             id="path322"
             inkscape:connector-curvature="0" /></g><g
           id="g324"
           transform="translate(265.1982,732.3149)"><path
             d="m 0,0 c -3.813,0 -8.062,-9 -8.062,-21.916 0,-12.916 4.249,-21.917 8.062,-21.917 3.813,0 8.062,9.001 8.062,21.917 C 8.062,-9 3.813,0 0,0 m 0,-46.09 c -2.948,0 -5.628,2.649 -7.547,7.46 -1.787,4.483 -2.772,10.418 -2.772,16.714 0,6.295 0.985,12.231 2.772,16.713 1.919,4.811 4.599,7.46 7.547,7.46 2.949,0 5.628,-2.649 7.547,-7.46 1.788,-4.482 2.773,-10.418 2.773,-16.713 0,-6.296 -0.985,-12.231 -2.773,-16.714 C 5.628,-43.441 2.949,-46.09 0,-46.09"
             style="fill:#2d586e;fill-opacity:1;fill-rule:nonzero;stroke:none"
             id="path326"
             inkscape:connector-curvature="0" /></g><g
           id="g328"
           transform="translate(246.2178,721.3574)"><path
             d="m 0,0 c -1.906,-3.302 3.765,-11.482 14.95,-17.94 11.185,-6.458 21.103,-7.278 23.01,-3.977 1.906,3.303 -3.764,11.482 -14.948,17.939 C 11.826,2.481 1.907,3.302 0,0 m 39.916,-23.045 c -1.475,-2.554 -5.109,-3.55 -10.235,-2.807 -4.776,0.694 -10.409,2.808 -15.861,5.956 -5.451,3.148 -10.1,6.968 -13.088,10.758 -3.207,4.067 -4.162,7.712 -2.689,10.266 1.476,2.553 5.111,3.55 10.237,2.806 4.775,-0.692 10.409,-2.808 15.86,-5.955 5.452,-3.148 10.1,-6.968 13.089,-10.758 3.207,-4.068 4.161,-7.713 2.687,-10.266"
             style="fill:#2d586e;fill-opacity:1;fill-rule:nonzero;stroke:none"
             id="path330"
             inkscape:connector-curvature="0" /></g><g
           id="g332"
           transform="translate(246.2178,699.4409)"><path
             d="M 0,0 C 1.907,-3.302 11.826,-2.482 23.012,3.977 34.196,10.434 39.866,18.613 37.96,21.916 36.053,25.218 26.135,24.397 14.95,17.939 3.764,11.481 -1.906,3.302 0,0 M 39.916,23.044 C 41.39,20.491 40.435,16.846 37.228,12.778 34.24,8.988 29.592,5.168 24.14,2.021 18.689,-1.127 13.055,-3.242 8.28,-3.936 3.154,-4.679 -0.481,-3.683 -1.957,-1.129 -3.43,1.425 -2.475,5.07 0.731,9.138 c 2.989,3.789 7.638,7.609 13.089,10.757 5.452,3.148 11.085,5.263 15.861,5.956 5.126,0.744 8.76,-0.253 10.235,-2.807"
             style="fill:#2d586e;fill-opacity:1;fill-rule:nonzero;stroke:none"
             id="path334"
             inkscape:connector-curvature="0" /></g><g
           id="g336"
           transform="translate(268.4033,710.3989)"><path
             d="m 0,0 c 0,-1.771 -1.435,-3.206 -3.205,-3.206 -1.771,0 -3.204,1.435 -3.204,3.206 0,1.77 1.433,3.205 3.204,3.205 C -1.435,3.205 0,1.77 0,0"
             style="fill:#ed5947;fill-opacity:1;fill-rule:nonzero;stroke:none"
             id="path338"
             inkscape:connector-curvature="0" /></g><g
           id="g340"
           transform="translate(199.0005,664.4868)"><path
             d="m 0,0 c 0.398,-0.246 0.521,-0.767 0.276,-1.166 l -12.997,-21.023 c -0.246,-0.398 -0.768,-0.522 -1.167,-0.275 -0.397,0.246 -0.521,0.768 -0.274,1.166 L -1.166,-0.274 C -0.919,0.124 -0.398,0.247 0,0"
             style="fill:#3c3c3b;fill-opacity:1;fill-rule:nonzero;stroke:none"
             id="path342"
             inkscape:connector-curvature="0" /></g><g
           id="g344"
           transform="translate(179.7866,658.1353)"><path
             d="m 0,0 c 0.173,0.434 0.666,0.647 1.1,0.474 l 22.967,-9.135 c 0.434,-0.172 0.647,-0.664 0.474,-1.099 -0.174,-0.435 -0.666,-0.647 -1.1,-0.474 L 0.474,-1.1 C 0.039,-0.928 -0.172,-0.435 0,0"
             style="fill:#3c3c3b;fill-opacity:1;fill-rule:nonzero;stroke:none"
             id="path346"
             inkscape:connector-curvature="0" /></g><g
           id="g348"
           transform="translate(199.7954,654.3306)"><path
             d="m 0,0 c 0,-3.917 -3.175,-7.091 -7.091,-7.091 -3.918,0 -7.093,3.174 -7.093,7.091 0,3.917 3.175,7.092 7.093,7.092 C -3.175,7.092 0,3.917 0,0"
             style="fill:#ffffff;fill-opacity:1;fill-rule:nonzero;stroke:none"
             id="path350"
             inkscape:connector-curvature="0" /></g><g
           id="g352"
           transform="translate(214.1729,648.1123)"><path
             d="m 0,0 c 0,-3.059 -2.48,-5.538 -5.539,-5.538 -3.059,0 -5.539,2.479 -5.539,5.538 0,3.06 2.48,5.539 5.539,5.539 C -2.48,5.539 0,3.06 0,0"
             style="fill:#ed5947;fill-opacity:1;fill-rule:nonzero;stroke:none"
             id="path354"
             inkscape:connector-curvature="0" /></g><g
           id="g356"
           transform="translate(189.9072,639.5825)"><path
             d="m 0,0 c 0,-3.059 -2.479,-5.538 -5.539,-5.538 -3.06,0 -5.539,2.479 -5.539,5.538 0,3.06 2.479,5.539 5.539,5.539 C -2.479,5.539 0,3.06 0,0"
             style="fill:#2d586e;fill-opacity:1;fill-rule:nonzero;stroke:none"
             id="path358"
             inkscape:connector-curvature="0" /></g><g
           id="g360"
           transform="translate(200.6104,672.855)"><path
             d="m 0,0 c -3.059,0 -5.539,-2.481 -5.539,-5.539 0,-1.586 0.671,-3.012 1.739,-4.023 l 0.694,1.124 c 0.228,0.366 0.62,0.586 1.051,0.586 0.23,0 0.454,-0.064 0.65,-0.186 0.579,-0.358 0.759,-1.121 0.4,-1.699 l -0.668,-1.082 c 0.528,-0.168 1.089,-0.259 1.673,-0.259 3.059,0 5.539,2.48 5.539,5.539 C 5.539,-2.481 3.059,0 0,0"
             style="fill:#2d586e;fill-opacity:1;fill-rule:nonzero;stroke:none"
             id="path362"
             inkscape:connector-curvature="0" /></g><g
           id="g364"
           transform="translate(180.1167,656.6738)"><path
             d="m 0,0 c -0.399,0.161 -0.685,0.509 -0.76,0.934 -0.039,0.225 -0.016,0.457 0.069,0.67 0.253,0.633 0.972,0.943 1.604,0.692 l 1.986,-0.79 c 0.06,0.327 0.097,0.664 0.097,1.011 0,3.058 -2.48,5.538 -5.539,5.538 -3.059,0 -5.539,-2.48 -5.539,-5.538 0,-3.059 2.48,-5.539 5.539,-5.539 1.831,0 3.45,0.892 4.458,2.26 L 0,0 Z"
             style="fill:#ed5947;fill-opacity:1;fill-rule:nonzero;stroke:none"
             id="path366"
             inkscape:connector-curvature="0" /></g><g
           id="g368"
           transform="translate(390.333,667.3159)"><path
             d="M 0,0 1.974,0.32"
             style="fill:none;stroke:#ffffff;stroke-width:2;stroke-linecap:butt;stroke-linejoin:miter;stroke-miterlimit:10;stroke-dasharray:none;stroke-opacity:1"
             id="path370"
             inkscape:connector-curvature="0" /></g><g
           id="g372"
           transform="translate(396.25,668.2749)"><path
             d="M 0,0 203.048,32.909"
             style="fill:none;stroke:#ffffff;stroke-width:2;stroke-linecap:butt;stroke-linejoin:miter;stroke-miterlimit:10;stroke-dasharray:3.994, 3.994;stroke-dashoffset:0;stroke-opacity:1"
             id="path374"
             inkscape:connector-curvature="0" /></g><g
           id="g376"
           transform="translate(601.2686,701.5034)"><path
             d="M 0,0 1.975,0.32"
             style="fill:none;stroke:#ffffff;stroke-width:2;stroke-linecap:butt;stroke-linejoin:miter;stroke-miterlimit:10;stroke-dasharray:none;stroke-opacity:1"
             id="path378"
             inkscape:connector-curvature="0" /></g><g
           id="g380"
           transform="translate(603.2607,708.6509)"><path
             d="M 0,0 12.694,-4.439 2.502,-13.213 0,0 Z"
             style="fill:#ffffff;fill-opacity:1;fill-rule:nonzero;stroke:none"
             id="path382"
             inkscape:connector-curvature="0" /></g><g
           id="g384"
           transform="translate(347.5,286.833)"><path
             d="m 0,0 -36,7 0,189.539 36,0 L 0,0 Z"
             style="fill:#2d586e;fill-opacity:1;fill-rule:nonzero;stroke:none"
             id="path386"
             inkscape:connector-curvature="0" /></g><g
           id="g388"
           transform="translate(415.54,347.873)"><path
             d="M 0,0 -30.038,8.914 -24.074,29.011 5.964,20.096 0,0 Z"
             style="fill:#ffffff;fill-opacity:1;fill-rule:nonzero;stroke:none"
             id="path390"
             inkscape:connector-curvature="0" /></g><g
           id="g392"
           transform="translate(427.5273,462.6016)"><path
             d="m 0,0 -93.247,25.686 c -9.587,2.641 -19.494,-2.989 -22.134,-12.573 -2.64,-9.584 2.989,-19.494 12.573,-22.134 l 76.842,-21.167 -12.895,-58.748 32.838,-16 18.837,83.785 C 14.829,-11.818 9.205,-2.536 0,0"
             style="fill:#4c7184;fill-opacity:1;fill-rule:nonzero;stroke:none"
             id="path394"
             inkscape:connector-curvature="0" /></g><g
           id="g396"
           transform="translate(378.9404,340.8818)"><path
             d="M 0,0 52.09,-15.458 C 55.643,-3.487 48.817,9.097 36.847,12.649 L 6.433,21.675 0,0 Z"
             style="fill:#3c3c3b;fill-opacity:1;fill-rule:nonzero;stroke:none"
             id="path398"
             inkscape:connector-curvature="0" /></g><g
           id="g400"
           transform="translate(113.7246,110.8711)"><path
             d="m 0,0 123.333,0 0,70 70,0 0,70 70,0 0,70 70,0 0,70 70,0 0,70.001 70,0 0,70 70,0 0,164.001"
             style="fill:none;stroke:#2d586e;stroke-width:14;stroke-linecap:butt;stroke-linejoin:miter;stroke-miterlimit:10;stroke-dasharray:none;stroke-opacity:1"
             id="path402"
             inkscape:connector-curvature="0" /></g><g
           id="g404"
           transform="translate(627.8398,678.5225)"><path
             d="M 0,0 29.218,50.606 58.436,0 29.218,12.994 0,0 Z"
             style="fill:#2d586e;fill-opacity:1;fill-rule:nonzero;stroke:none"
             id="path406"
             inkscape:connector-curvature="0" /></g><g
           id="g408"
           transform="translate(240.5415,427.7998)"><path
             d="M 0,0 -82.474,26.93 -67.434,86.064 22.756,56.615 0,0 Z"
             style="fill:#ed5947;fill-opacity:1;fill-rule:nonzero;stroke:none"
             id="path410"
             inkscape:connector-curvature="0" /></g><g
           id="g412"
           transform="translate(265.3525,470.9341)"><path
             d="M 0,0 -54.709,5.055 -101.859,33.26 -91.144,72.612 14.573,38.093 0,0 Z"
             style="fill:#f17a6c;fill-opacity:1;fill-rule:nonzero;stroke:none"
             id="path414"
             inkscape:connector-curvature="0" /></g><g
           id="g416"
           transform="translate(212.1802,470.1396)"><path
             d="m 0,0 -6.228,2.034 c -0.704,0.229 -1.091,0.988 -0.86,1.695 L -5.114,9.776 3.668,6.909 1.694,0.861 C 1.463,0.155 0.704,-0.23 0,0 M 5.554,12.683 4.376,9.078 -4.405,11.946 -3.228,15.55 5.554,12.683 Z M -4.656,18.363 -9.208,4.421 C -9.821,2.544 -8.796,0.526 -6.92,-0.086 l 6.228,-2.035 c 1.875,-0.612 3.893,0.413 4.506,2.29 l 4.552,13.942 -13.022,4.252 z"
             style="fill:#ffffff;fill-opacity:1;fill-rule:nonzero;stroke:none"
             id="path418"
             inkscape:connector-curvature="0" /></g><g
           id="g420"
           transform="translate(210.479,531.7031)"><path
             d="m 0,0 1.989,6.09 c 1.263,3.868 5.437,5.986 9.305,4.723 L 30.44,4.561 c 3.868,-1.263 5.988,-5.436 4.725,-9.304 l -1.989,-6.09 3.692,-1.205 1.989,6.089 C 40.785,-0.044 37.55,6.327 31.646,8.254 L 12.5,14.506 C 6.596,16.434 0.225,13.2 -1.703,7.295 L -3.691,1.205 0,0 Z"
             style="fill:#ed5947;fill-opacity:1;fill-rule:nonzero;stroke:none"
             id="path422"
             inkscape:connector-curvature="0" /></g><g
           id="g424"
           transform="translate(474.5664,564.1016)"><path
             d="m 0,0 -54.203,16.787 -35.688,41.83 c -5.3,5.418 -18.783,4.441 -21.822,4.441 l -40.958,0 c -1.987,0 -65.452,-0.671 -65.452,-0.671 -4.704,0 -8.861,-3.062 -10.257,-7.554 l -18.463,-59.415 c -1.76,-5.665 1.406,-11.685 7.071,-13.445 1.061,-0.33 2.134,-0.487 3.19,-0.487 4.581,0 8.825,2.953 10.255,7.557 l 16.115,51.86 38.743,0 0,-129.435 78.553,0 0,117.594 26.41,-30.955 60.15,-18.629 c 1.058,-0.328 2.127,-0.483 3.18,-0.483 4.584,0 8.831,2.958 10.258,7.567 C 8.838,-7.772 5.666,-1.755 0,0"
             style="fill:#2d586e;fill-opacity:1;fill-rule:nonzero;stroke:none"
             id="path426"
             inkscape:connector-curvature="0" /></g><g
           id="g428"
           transform="translate(357.0757,627.1665)"><path
             d="m 0,0 c 0,0 6.252,1.72 7.588,0.47 1.336,-1.25 -7.817,-23.64 -7.817,-23.64 l -0.292,15.271 c 0,0 0.882,0.795 1.446,3.384 C 1.504,-1.86 0,0 0,0"
             style="fill:#ffffff;fill-opacity:1;fill-rule:nonzero;stroke:none"
             id="path430"
             inkscape:connector-curvature="0" /></g><g
           id="g432"
           transform="translate(349.3335,627.1147)"><path
             d="M 0,0 C 0,0 -1.083,-3.726 2.196,-8.363 0.735,-12.176 -5.8,-29.248 -5.8,-29.248 l -8.033,29.476 c 0,0 4.227,2.85 5.819,2.965 C -6.421,3.307 0,0 0,0"
             style="fill:#ffffff;fill-opacity:1;fill-rule:nonzero;stroke:none"
             id="path434"
             inkscape:connector-curvature="0" /></g><g
           id="g436"
           transform="translate(245.9673,544.936)"><path
             d="m 0,0 c 0,-6.766 -5.485,-12.251 -12.251,-12.251 -6.766,0 -12.251,5.485 -12.251,12.251 0,6.766 5.485,12.251 12.251,12.251 C -5.485,12.251 0,6.766 0,0"
             style="fill:#ffffff;fill-opacity:1;fill-rule:nonzero;stroke:none"
             id="path438"
             inkscape:connector-curvature="0" /></g><g
           id="g440"
           transform="translate(240.4473,555.167)"><path
             d="m 0,0 c 1.273,-1.933 2.02,-4.244 2.02,-6.731 0,-6.766 -5.485,-12.251 -12.251,-12.251 -2.488,0 -4.799,0.746 -6.731,2.02 2.191,-3.324 5.953,-5.52 10.231,-5.52 6.766,0 12.251,5.485 12.251,12.251 C 5.52,-5.953 3.323,-2.191 0,0"
             style="fill:#ededed;fill-opacity:1;fill-rule:nonzero;stroke:none"
             id="path442"
             inkscape:connector-curvature="0" /></g><g
           id="g444"
           transform="translate(494.3828,550.2466)"><path
             d="m 0,0 c 0,-6.766 -5.484,-12.251 -12.25,-12.251 -6.767,0 -12.252,5.485 -12.252,12.251 0,6.766 5.485,12.251 12.252,12.251 C -5.484,12.251 0,6.766 0,0"
             style="fill:#ffffff;fill-opacity:1;fill-rule:nonzero;stroke:none"
             id="path446"
             inkscape:connector-curvature="0" /></g><g
           id="g448"
           transform="translate(488.8633,560.4775)"><path
             d="m 0,0 c 1.273,-1.933 2.02,-4.244 2.02,-6.731 0,-6.766 -5.485,-12.251 -12.25,-12.251 -2.489,0 -4.799,0.746 -6.732,2.02 2.191,-3.324 5.952,-5.52 10.232,-5.52 6.765,0 12.25,5.485 12.25,12.251 C 5.52,-5.953 3.323,-2.191 0,0"
             style="fill:#ededed;fill-opacity:1;fill-rule:nonzero;stroke:none"
             id="path450"
             inkscape:connector-curvature="0" /></g><g
           id="g452"
           transform="translate(352.5,579.2178)"><path
             d="M 0,0 C 0,-1.381 -1.119,-2.5 -2.5,-2.5 -3.881,-2.5 -5,-1.381 -5,0 -5,1.381 -3.881,2.5 -2.5,2.5 -1.119,2.5 0,1.381 0,0"
             style="fill:#ffffff;fill-opacity:1;fill-rule:nonzero;stroke:none"
             id="path454"
             inkscape:connector-curvature="0" /></g><g
           id="g456"
           transform="translate(352.5,557.187)"><path
             d="M 0,0 C 0,-1.381 -1.119,-2.5 -2.5,-2.5 -3.881,-2.5 -5,-1.381 -5,0 -5,1.381 -3.881,2.5 -2.5,2.5 -1.119,2.5 0,1.381 0,0"
             style="fill:#ffffff;fill-opacity:1;fill-rule:nonzero;stroke:none"
             id="path458"
             inkscape:connector-curvature="0" /></g><g
           id="g460"
           transform="translate(352.5,535.1562)"><path
             d="M 0,0 C 0,-1.381 -1.119,-2.5 -2.5,-2.5 -3.881,-2.5 -5,-1.381 -5,0 -5,1.381 -3.881,2.5 -2.5,2.5 -1.119,2.5 0,1.381 0,0"
             style="fill:#ffffff;fill-opacity:1;fill-rule:nonzero;stroke:none"
             id="path462"
             inkscape:connector-curvature="0" /></g><g
           id="g464"
           transform="translate(352.5,513.1255)"><path
             d="M 0,0 C 0,-1.381 -1.119,-2.5 -2.5,-2.5 -3.881,-2.5 -5,-1.381 -5,0 -5,1.381 -3.881,2.5 -2.5,2.5 -1.119,2.5 0,1.381 0,0"
             style="fill:#ffffff;fill-opacity:1;fill-rule:nonzero;stroke:none"
             id="path466"
             inkscape:connector-curvature="0" /></g><g
           id="g468"
           transform="translate(352.5,491.0947)"><path
             d="M 0,0 C 0,-1.381 -1.119,-2.5 -2.5,-2.5 -3.881,-2.5 -5,-1.381 -5,0 -5,1.381 -3.881,2.5 -2.5,2.5 -1.119,2.5 0,1.381 0,0"
             style="fill:#ffffff;fill-opacity:1;fill-rule:nonzero;stroke:none"
             id="path470"
             inkscape:connector-curvature="0" /></g><g
           id="g472"
           transform="translate(321.5464,688.2124)"><path
             d="m 0,0 c 0,0 5.408,16.59 18.358,20.953 9.894,3.334 20.356,-0.909 24.75,-3.101 C 53.876,16.226 67.405,14.807 81.6,17.293 74.029,3.328 65.944,-1.755 58.761,-3.248 49.018,-5.271 40.938,-0.68 38.076,-2.57 29.192,-8.443 24.629,-22.287 24.629,-22.287 c 0,0 -3.696,8.644 -10.324,6.602 -4.06,-1.251 -5.25,-5.347 -5.569,-8.337 -0.262,-7.085 0.761,-13.754 2.794,-19.485 -0.715,0.711 -15.799,15.832 -16.967,26.331 C -6.639,-6.351 0,0 0,0"
             style="fill:#3c3c3b;fill-opacity:1;fill-rule:nonzero;stroke:none"
             id="path474"
             inkscape:connector-curvature="0" /></g><g
           id="g476"
           transform="translate(330.2827,664.1899)"><path
             d="m 0,0 c 0.319,2.991 1.508,7.087 5.568,8.337 6.628,2.043 10.325,-6.602 10.325,-6.602 0,0 4.563,13.844 13.447,19.718 2.861,1.89 10.942,-2.702 20.684,-0.678 C 52.25,14.257 53.185,6.567 52.427,-1.546 50.403,-23.205 37.075,-39.67 22.655,-38.324 13.775,-37.495 6.559,-30.099 2.794,-19.485 0.761,-13.753 -0.263,-7.085 0,0"
             style="fill:#ffffff;fill-opacity:1;fill-rule:nonzero;stroke:none"
             id="path478"
             inkscape:connector-curvature="0" /></g><g
           id="g480"
           transform="translate(343.4204,668.6812)"><path
             d="M 0,0 C 0,0 0.12,0.362 0.355,0.988 -0.226,1.664 -0.909,2.314 -1.691,2.856 -0.585,1.35 0,0 0,0"
             style="fill:#ededed;fill-opacity:1;fill-rule:nonzero;stroke:none"
             id="path482"
             inkscape:connector-curvature="0" /></g><g
           id="g484"
           transform="translate(380.3071,684.9648)"><path
             d="m 0,0 c -0.621,-0.129 -1.235,-0.229 -1.841,-0.309 1.545,-5.813 2.131,-12.379 1.487,-19.256 -2.023,-21.659 -15.352,-38.124 -29.771,-36.778 -3.943,0.369 -7.556,2.037 -10.687,4.702 3.687,-4.263 8.281,-6.975 13.443,-7.458 11.685,-1.091 22.653,9.516 27.47,25.103 0.441,1.429 5.588,2.181 5.922,3.689 0.519,2.34 -3.854,5.488 -3.621,7.986 C 3.161,-14.208 2.225,-6.518 0,0"
             style="fill:#ededed;fill-opacity:1;fill-rule:nonzero;stroke:none"
             id="path486"
             inkscape:connector-curvature="0" /></g><g
           id="g488"
           transform="translate(363.4341,664.0962)"><path
             d="m 0,0 c 0,-0.93 -0.754,-1.684 -1.684,-1.684 -0.93,0 -1.684,0.754 -1.684,1.684 0,0.93 0.754,1.684 1.684,1.684 C -0.754,1.684 0,0.93 0,0"
             style="fill:#3c3c3b;fill-opacity:1;fill-rule:nonzero;stroke:none"
             id="path490"
             inkscape:connector-curvature="0" /></g><g
           id="g492"
           transform="translate(358.0591,648.9424)"><path
             d="m 0,0 c -0.34,-8.334 11.553,-10.478 13.858,-2.409 0.218,0.761 -0.964,1.084 -1.18,0.326 C 11.832,-5.042 9.262,-6.527 6.271,-6.315 2.904,-6.076 1.097,-3.127 1.225,0 1.257,0.79 0.032,0.787 0,0"
             style="fill:#3c3c3b;fill-opacity:1;fill-rule:nonzero;stroke:none"
             id="path494"
             inkscape:connector-curvature="0" /></g><g
           id="g496"
           transform="translate(364.5054,668.2324)"><path
             d="m 0,0 c 0,-0.519 -0.42,-0.938 -0.938,-0.938 l -10.474,0 c -0.518,0 -0.938,0.419 -0.938,0.938 0,0.519 0.42,0.938 0.938,0.938 l 10.474,0 C -0.42,0.938 0,0.519 0,0"
             style="fill:#3c3c3b;fill-opacity:1;fill-rule:nonzero;stroke:none"
             id="path498"
             inkscape:connector-curvature="0" /></g><g
           id="g500"
           transform="translate(382.3164,664.0962)"><path
             d="m 0,0 c 0,-0.93 -0.754,-1.684 -1.684,-1.684 -0.93,0 -1.684,0.754 -1.684,1.684 0,0.93 0.754,1.684 1.684,1.684 C -0.754,1.684 0,0.93 0,0"
             style="fill:#3c3c3b;fill-opacity:1;fill-rule:nonzero;stroke:none"
             id="path502"
             inkscape:connector-curvature="0" /></g><g
           id="g504"
           transform="translate(383.3877,668.2324)"><path
             d="m 0,0 c 0,-0.519 -0.42,-0.938 -0.938,-0.938 l -10.474,0 c -0.518,0 -0.938,0.419 -0.938,0.938 0,0.519 0.42,0.938 0.938,0.938 l 10.474,0 C -0.42,0.938 0,0.519 0,0"
             style="fill:#3c3c3b;fill-opacity:1;fill-rule:nonzero;stroke:none"
             id="path506"
             inkscape:connector-curvature="0" /></g></g></g></g></svg>