<?xml version="1.0" encoding="UTF-8" standalone="no"?>
<!-- Created with Inkscape (http://www.inkscape.org/) -->

<svg
   xmlns:dc="http://purl.org/dc/elements/1.1/"
   xmlns:cc="http://creativecommons.org/ns#"
   xmlns:rdf="http://www.w3.org/1999/02/22-rdf-syntax-ns#"
   xmlns:svg="http://www.w3.org/2000/svg"
   xmlns="http://www.w3.org/2000/svg"
   xmlns:sodipodi="http://sodipodi.sourceforge.net/DTD/sodipodi-0.dtd"
   xmlns:inkscape="http://www.inkscape.org/namespaces/inkscape"
   id="svg2"
   version="1.1"
   inkscape:version="0.91 r13725"
   xml:space="preserve"
   width="1000"
   height="1000"
   viewBox="0 0 1000 1000"
   sodipodi:docname="coins.svg"><metadata
     id="metadata8"><rdf:RDF><cc:Work
         rdf:about=""><dc:format>image/svg+xml</dc:format><dc:type
           rdf:resource="http://purl.org/dc/dcmitype/StillImage" /><dc:title></dc:title></cc:Work></rdf:RDF></metadata><defs
     id="defs6"><clipPath
       clipPathUnits="userSpaceOnUse"
       id="clipPath18"><path
         d="M 0,800 800,800 800,0 0,0 0,800 Z"
         id="path20"
         inkscape:connector-curvature="0" /></clipPath></defs><sodipodi:namedview
     pagecolor="#ffffff"
     bordercolor="#666666"
     borderopacity="1"
     objecttolerance="10"
     gridtolerance="10"
     guidetolerance="10"
     inkscape:pageopacity="0"
     inkscape:pageshadow="2"
     inkscape:window-width="1066"
     inkscape:window-height="593"
     id="namedview4"
     showgrid="false"
     inkscape:zoom="0.6675088"
     inkscape:cx="166.05614"
     inkscape:cy="45.673365"
     inkscape:window-x="0"
     inkscape:window-y="46"
     inkscape:window-maximized="0"
     inkscape:current-layer="g10" /><g
     id="g10"
     inkscape:groupmode="layer"
     inkscape:label="05"
     transform="matrix(1.25,0,0,-1.25,0,1000)"><path
       d="M 0,0 800,0 800,800 0,800 0,0 Z"
       style="fill:#86cccc;fill-opacity:1;fill-rule:nonzero;stroke:none"
       id="path12"
       inkscape:connector-curvature="0" /><g
       id="g14"><g
         id="g16"
         clip-path="url(#clipPath18)"><g
           id="g22"
           transform="translate(645.0557,183.8135)"><path
             d="m 0,0 -27.644,37.224 c 0,0 1.916,4.928 -5.198,23.538 -7.116,18.609 -26.003,26.823 -40.527,28.739 -14.523,1.914 -37.478,-8.486 -48.428,-7.664 -10.946,0.822 -38.314,22.989 -49.537,23.264 -11.224,0.274 -19.706,-12.317 -18.611,-17.518 0.63,-2.99 2.884,-6.879 4.69,-9.649 27.686,-3.251 55.584,-1.198 83.379,-3.111 16.545,-1.138 40.269,-3.34 45.132,-22.713 0.773,-3.082 -3.979,-4.387 -4.751,-1.308 -5.151,20.521 -37.026,19.279 -53.318,19.628 -25.239,0.545 -50.565,-0.257 -75.616,3.218 -4.563,-0.404 -9.938,-0.727 -12.381,-0.295 -4.652,0.821 -35.581,12.863 -40.781,14.504 -5.199,1.644 -33.116,21.348 -39.139,24.907 -1.704,1.007 -3.247,1.764 -4.593,2.346 -7.659,0.401 -22.64,-1.182 -19.201,-10.164 1.891,-4.939 6.075,-8.891 10.043,-12.237 6.398,-5.391 13.343,-10.087 20.342,-14.656 23.651,-15.445 48.437,-29.223 74.532,-40.096 2.888,-1.203 1.621,-5.972 -1.311,-4.749 -29.922,12.468 -58.733,28.368 -85.262,47.031 -8.155,5.738 -22.346,14.318 -23.514,25.367 -0.935,8.865 6.96,12.847 15.304,14.099 -9.678,7.71 -36.275,28.503 -41.627,28.503 -6.568,0 -13.137,-5.337 -13.137,-13.137 0,-7.8 16.833,-27.508 28.739,-38.183 11.905,-10.672 26.547,-36.399 34.757,-40.78 8.213,-4.379 77.732,-51.453 95.796,-56.928 18.064,-5.476 87.585,-13.686 104.552,-20.8 16.968,-7.116 13.685,-22.99 13.685,-22.99 L 0,0 Z"
             style="fill:#feddbe;fill-opacity:1;fill-rule:nonzero;stroke:none"
             id="path24"
             inkscape:connector-curvature="0" /></g><g
           id="g26"
           transform="translate(532.1113,283.5879)"><path
             d="m 0,0 c 0,-19.039 -15.434,-34.473 -34.471,-34.473 -19.039,0 -34.472,15.434 -34.472,34.473 0,19.038 15.433,34.472 34.472,34.472 C -15.434,34.472 0,19.038 0,0"
             style="fill:#dcaf58;fill-opacity:1;fill-rule:nonzero;stroke:none"
             id="path28"
             inkscape:connector-curvature="0" /></g><g
           id="g30"
           transform="translate(528.5449,283.5879)"><path
             d="m 0,0 c 0,-17.068 -13.836,-30.906 -30.904,-30.906 -17.071,0 -30.907,13.838 -30.907,30.906 0,17.068 13.836,30.906 30.907,30.906 C -13.836,30.906 0,17.068 0,0"
             style="fill:#d39b2f;fill-opacity:1;fill-rule:nonzero;stroke:none"
             id="path32"
             inkscape:connector-curvature="0" /></g><g
           id="g34"
           transform="translate(525.5742,283.5879)"><path
             d="m 0,0 c 0,-15.428 -12.509,-27.935 -27.934,-27.935 -15.428,0 -27.935,12.507 -27.935,27.935 0,15.428 12.507,27.934 27.935,27.934 C -12.509,27.934 0,15.428 0,0"
             style="fill:#e4c382;fill-opacity:1;fill-rule:nonzero;stroke:none"
             id="path36"
             inkscape:connector-curvature="0" /></g><g
           id="g38"
           transform="translate(498.8682,270.4971)"><path
             d="m 0,0 c 4.458,0.054 6.305,2.923 6.305,5.433 0,3.842 -3.692,5.07 -6.305,5.891 L 0,0 Z m -2.611,27.309 c -5.535,-0.564 -5.737,-3.895 -5.737,-4.816 0,-3.435 3.224,-4.406 5.737,-5.124 l 0,9.94 z m 2.663,8.299 0,-4.15 C 2.357,31.407 10.914,31.099 11.12,23.056 l -5.381,0 C 5.637,26.336 3.024,27.206 0,27.309 L 0,16.601 c 5.227,-1.436 11.631,-3.382 11.631,-10.556 0,-5.021 -3.28,-7.58 -4.61,-8.451 -2.357,-1.538 -5.33,-1.793 -7.124,-1.949 l 0,-5.073 -2.609,0 0,5.073 c -2.257,0.052 -5.434,0.104 -8.507,2.871 -2.666,2.407 -2.869,4.92 -2.869,7.122 l 5.227,0 C -8.965,3.382 -7.632,0.103 -2.712,0 l 0,11.99 c -8.406,2.509 -10.709,4.663 -10.709,10.145 0,4.251 2.561,6.556 4.355,7.684 2.356,1.434 5.122,1.535 6.504,1.588 l 0,4.201 2.614,0 z"
             style="fill:#d39b2f;fill-opacity:1;fill-rule:nonzero;stroke:none"
             id="path40"
             inkscape:connector-curvature="0" /></g><g
           id="g42"
           transform="translate(484.1172,306.1055)"><path
             d="m 0,0 c 0,-19.037 -15.434,-34.472 -34.473,-34.472 -19.038,0 -34.47,15.435 -34.47,34.472 0,19.037 15.432,34.471 34.47,34.471 C -15.434,34.471 0,19.037 0,0"
             style="fill:#dcaf58;fill-opacity:1;fill-rule:nonzero;stroke:none"
             id="path44"
             inkscape:connector-curvature="0" /></g><g
           id="g46"
           transform="translate(480.5518,306.1055)"><path
             d="m 0,0 c 0,-17.069 -13.837,-30.905 -30.907,-30.905 -17.067,0 -30.906,13.836 -30.906,30.905 0,17.067 13.839,30.903 30.906,30.903 C -13.837,30.903 0,17.067 0,0"
             style="fill:#d39b2f;fill-opacity:1;fill-rule:nonzero;stroke:none"
             id="path48"
             inkscape:connector-curvature="0" /></g><g
           id="g50"
           transform="translate(477.5811,306.1055)"><path
             d="m 0,0 c 0,-15.429 -12.507,-27.935 -27.937,-27.935 -15.426,0 -27.932,12.506 -27.932,27.935 0,15.427 12.506,27.933 27.932,27.933 C -12.507,27.933 0,15.427 0,0"
             style="fill:#e4c382;fill-opacity:1;fill-rule:nonzero;stroke:none"
             id="path52"
             inkscape:connector-curvature="0" /></g><g
           id="g54"
           transform="translate(450.8721,293.0156)"><path
             d="m 0,0 c 4.459,0.051 6.305,2.919 6.305,5.431 0,3.84 -3.69,5.071 -6.305,5.888 L 0,0 Z m -2.609,27.307 c -5.534,-0.564 -5.739,-3.894 -5.739,-4.817 0,-3.432 3.227,-4.404 5.739,-5.122 l 0,9.939 z m 2.662,8.298 0,-4.151 c 2.306,-0.048 10.861,-0.356 11.069,-8.4 l -5.381,0 C 5.639,26.332 3.027,27.206 0,27.307 L 0,16.599 C 5.229,15.164 11.634,13.218 11.634,6.044 11.634,1.023 8.354,-1.539 7.021,-2.408 4.665,-3.945 1.695,-4.203 -0.103,-4.356 l 0,-5.073 -2.609,0 0,5.073 c -2.255,0.052 -5.431,0.101 -8.506,2.87 -2.664,2.407 -2.868,4.917 -2.868,7.121 l 5.225,0 C -8.963,3.38 -7.631,0.1 -2.712,0 l 0,11.987 c -8.403,2.511 -10.708,4.662 -10.708,10.145 0,4.253 2.561,6.558 4.355,7.683 2.356,1.436 5.124,1.539 6.505,1.591 l 0,4.199 2.613,0 z"
             style="fill:#d39b2f;fill-opacity:1;fill-rule:nonzero;stroke:none"
             id="path56"
             inkscape:connector-curvature="0" /></g><g
           id="g58"
           transform="translate(524.375,417.3599)"><path
             d="m 0,0 c 0,-19.037 -15.434,-34.47 -34.472,-34.47 -19.038,0 -34.471,15.433 -34.471,34.47 0,19.038 15.433,34.472 34.471,34.472 C -15.434,34.472 0,19.038 0,0"
             style="fill:#dcaf58;fill-opacity:1;fill-rule:nonzero;stroke:none"
             id="path60"
             inkscape:connector-curvature="0" /></g><g
           id="g62"
           transform="translate(520.8096,417.3599)"><path
             d="m 0,0 c 0,-17.068 -13.837,-30.905 -30.906,-30.905 -17.068,0 -30.907,13.837 -30.907,30.905 0,17.068 13.839,30.904 30.907,30.904 C -13.837,30.904 0,17.068 0,0"
             style="fill:#d39b2f;fill-opacity:1;fill-rule:nonzero;stroke:none"
             id="path64"
             inkscape:connector-curvature="0" /></g><g
           id="g66"
           transform="translate(517.8389,417.3599)"><path
             d="m 0,0 c 0,-15.429 -12.508,-27.933 -27.936,-27.933 -15.426,0 -27.931,12.504 -27.931,27.933 0,15.427 12.505,27.934 27.931,27.934 C -12.508,27.934 0,15.427 0,0"
             style="fill:#e4c382;fill-opacity:1;fill-rule:nonzero;stroke:none"
             id="path68"
             inkscape:connector-curvature="0" /></g><g
           id="g70"
           transform="translate(491.1318,404.271)"><path
             d="m 0,0 c 4.456,0.051 6.305,2.919 6.305,5.431 0,3.841 -3.693,5.07 -6.305,5.888 L 0,0 Z m -2.61,27.306 c -5.535,-0.563 -5.739,-3.892 -5.739,-4.816 0,-3.433 3.228,-4.404 5.739,-5.123 l 0,9.939 z m 2.662,8.3 0,-4.151 c 2.306,-0.05 10.861,-0.357 11.068,-8.402 l -5.382,0 C 5.639,26.333 3.024,27.205 0,27.306 L 0,16.598 C 5.227,15.163 11.631,13.217 11.631,6.043 11.631,1.022 8.353,-1.539 7.021,-2.409 4.663,-3.946 1.692,-4.203 -0.103,-4.356 l 0,-5.071 -2.61,0 0,5.071 c -2.256,0.052 -5.432,0.102 -8.507,2.87 -2.664,2.406 -2.868,4.917 -2.868,7.121 l 5.226,0 C -8.965,3.38 -7.633,0.1 -2.713,0 l 0,11.987 c -8.404,2.511 -10.709,4.662 -10.709,10.145 0,4.253 2.563,6.557 4.355,7.683 2.356,1.436 5.125,1.539 6.506,1.59 l 0,4.201 2.613,0 z"
             style="fill:#d39b2f;fill-opacity:1;fill-rule:nonzero;stroke:none"
             id="path72"
             inkscape:connector-curvature="0" /></g><g
           id="g74"
           transform="translate(359.9604,614.7344)"><path
             d="m 0,0 c 0.258,0.539 -0.441,2.395 -1.475,4.479 -0.1,-0.06 -0.207,-0.115 -0.328,-0.159 -9.944,-3.649 -19.569,-9.464 -28.892,-14.428 -1.48,-0.788 -2.97,-1.575 -4.459,-2.37 -1.202,-2.547 -3.435,-4.994 -5.552,-6.763 -2.628,-2.195 -5.554,-2.505 -8.784,-1.4 -0.051,0.017 -0.093,0.043 -0.139,0.063 -0.972,-0.221 -2.059,-0.311 -3.656,-0.453 -5.824,-0.523 -11.616,-1.23 -17.384,-2.186 0.905,-4.113 2.636,-8.027 4.478,-11.908 12.117,-1.27 32.317,-2.829 38.835,0.018 C -17.83,-30.945 -0.69,-1.448 0,0"
             style="fill:#feddbe;fill-opacity:1;fill-rule:nonzero;stroke:none"
             id="path76"
             inkscape:connector-curvature="0" /></g><g
           id="g78"
           transform="translate(253.3491,660.7578)"><path
             d="m 0,0 c -12.558,-4.86 -50.659,-44.5 -61.876,-56.314 -11.218,-11.816 -19.865,-20.864 -24.45,-22.481 -4.583,-1.618 -35.876,-5.267 -35.876,-5.267 l 19.818,-81.311 c 0,0 19.84,6.629 25.251,7.175 5.41,0.545 54.79,-11.611 74.948,-11.573 20.159,0.039 92.481,10.137 100.208,11.875 7.728,1.741 51.072,20.882 54.9,24.666 3.828,3.783 2.553,18.647 -3.073,21.699 -5.626,3.051 -29.08,0.539 -36.506,-3.46 -7.427,-3.998 -19.699,-6.787 -31.657,-4.669 -11.958,2.118 -27.093,3.547 -33.71,12.038 -3.126,4.01 -7.477,15.298 -11.136,26.371 -1.974,4.208 -3.764,8.468 -4.457,12.975 -0.102,0.663 0.148,1.206 0.547,1.572 0.197,0.231 0.488,0.406 0.892,0.476 5.763,0.992 11.56,1.789 17.386,2.311 1.853,0.166 4.705,-0.257 6.19,0.85 0.643,0.478 1.299,0.939 1.975,1.372 3.135,2.013 6.38,3.859 9.657,5.646 0.216,0.242 0.478,0.374 0.756,0.413 1.836,0.992 3.675,1.974 5.517,2.944 9.27,4.883 18.755,10.578 28.619,14.198 0.348,0.127 0.657,0.131 0.926,0.058 0.076,0.004 0.131,-0.002 0.162,-0.018 1.449,-0.69 10.1,-5.431 15.02,-7.841 4.922,-2.407 13.17,-4.136 14.858,-5.739 1.689,-1.601 19.295,-24.839 28.953,-27.855 9.66,-3.014 18.009,6.002 17.481,11.708 -0.525,5.709 -24.338,29.946 -29.048,35.626 -4.709,5.68 -29.636,21.926 -35.707,25.007 C 110.498,-4.468 12.559,4.861 0,0"
             style="fill:#feddbe;fill-opacity:1;fill-rule:nonzero;stroke:none"
             id="path80"
             inkscape:connector-curvature="0" /></g><g
           id="g82"
           transform="translate(452.1465,565.2607)"><path
             d="m 0,0 c 0,-19.038 -15.434,-34.474 -34.473,-34.474 -19.038,0 -34.471,15.436 -34.471,34.474 0,19.038 15.433,34.471 34.471,34.471 C -15.434,34.471 0,19.038 0,0"
             style="fill:#dcaf58;fill-opacity:1;fill-rule:nonzero;stroke:none"
             id="path84"
             inkscape:connector-curvature="0" /></g><g
           id="g86"
           transform="translate(448.5811,565.2607)"><path
             d="m 0,0 c 0,-17.069 -13.838,-30.907 -30.907,-30.907 -17.068,0 -30.906,13.838 -30.906,30.907 0,17.068 13.838,30.904 30.906,30.904 C -13.838,30.904 0,17.068 0,0"
             style="fill:#d39b2f;fill-opacity:1;fill-rule:nonzero;stroke:none"
             id="path88"
             inkscape:connector-curvature="0" /></g><g
           id="g90"
           transform="translate(445.6084,565.2607)"><path
             d="m 0,0 c 0,-15.427 -12.508,-27.936 -27.935,-27.936 -15.426,0 -27.933,12.509 -27.933,27.936 0,15.426 12.507,27.933 27.933,27.933 C -12.508,27.933 0,15.426 0,0"
             style="fill:#e4c382;fill-opacity:1;fill-rule:nonzero;stroke:none"
             id="path92"
             inkscape:connector-curvature="0" /></g><g
           id="g94"
           transform="translate(418.9023,552.1704)"><path
             d="M 0,0 C 4.457,0.051 6.305,2.92 6.305,5.432 6.305,9.274 2.614,10.501 0,11.321 L 0,0 Z m -2.611,27.309 c -5.533,-0.565 -5.738,-3.896 -5.738,-4.818 0,-3.432 3.226,-4.405 5.738,-5.121 l 0,9.939 z m 2.662,8.299 0,-4.151 c 2.306,-0.05 10.862,-0.358 11.069,-8.403 l -5.382,0 C 5.637,26.334 3.024,27.206 0,27.309 L 0,16.599 C 5.227,15.164 11.633,13.219 11.633,6.046 11.633,1.024 8.352,-1.538 7.02,-2.407 4.664,-3.944 1.693,-4.2 -0.102,-4.356 l 0,-5.071 -2.612,0 0,5.071 c -2.256,0.053 -5.43,0.104 -8.506,2.872 -2.664,2.405 -2.868,4.917 -2.868,7.121 l 5.226,0 C -8.965,3.381 -7.632,0.101 -2.714,0 l 0,11.99 c -8.402,2.51 -10.707,4.661 -10.707,10.144 0,4.252 2.561,6.555 4.355,7.682 2.355,1.436 5.124,1.539 6.504,1.591 l 0,4.201 2.613,0 z"
             style="fill:#d39b2f;fill-opacity:1;fill-rule:nonzero;stroke:none"
             id="path96"
             inkscape:connector-curvature="0" /></g><g
           id="g98"
           transform="translate(285.7334,592.4814)"><path
             d="M 0,0 C -0.103,0.663 0.148,1.206 0.546,1.572 0.599,1.634 0.677,1.679 0.743,1.73 -0.196,3.234 -1.136,4.737 -2.076,6.242 -2.363,6.701 -2.569,7.159 -2.712,7.609 -14.741,26.512 -29.04,43.866 -41.795,62.288 -58.284,49.532 -85.146,21.561 -94.261,11.962 -105.478,0.146 -114.125,-8.901 -118.71,-10.519 c -4.583,-1.618 -35.876,-5.266 -35.876,-5.266 l 19.818,-81.312 c 0,0 19.839,6.63 25.25,7.176 5.411,0.544 54.79,-11.612 74.949,-11.574 20.159,0.039 92.481,10.137 100.208,11.876 7.728,1.74 51.072,20.881 54.9,24.665 3.828,3.783 2.553,18.647 -3.073,21.699 -5.627,3.051 -29.081,0.539 -36.507,-3.46 -7.426,-3.998 -19.699,-6.786 -31.656,-4.669 -11.958,2.119 -27.094,3.547 -33.71,12.039 -3.126,4.01 -7.477,15.297 -11.136,26.37 C 2.483,-8.767 0.693,-4.507 0,0"
             style="fill:#feddbe;fill-opacity:1;fill-rule:nonzero;stroke:none"
             id="path100"
             inkscape:connector-curvature="0" /></g><g
           id="g102"
           transform="translate(142.9897,498.3374)"><path
             d="m 0,0 c 0.134,1.962 33.229,9.326 33.229,9.326 l -7.242,93.319 10.701,1.317 0.882,-9.436 8.233,-88.091 1.532,-16.4 -12.331,-1.046 -0.365,7.017 c 0,0 -34.776,2.03 -34.639,3.994"
             style="fill:#ffffff;fill-opacity:1;fill-rule:nonzero;stroke:none"
             id="path104"
             inkscape:connector-curvature="0" /></g><g
           id="g106"
           transform="translate(106.3135,492.0298)"><path
             d="M 0,0 C -1.088,6.098 2.97,11.921 9.066,13.01 15.164,14.098 20.986,10.04 22.075,3.941 23.163,-2.154 19.104,-7.978 13.007,-9.065 6.911,-10.155 1.088,-6.095 0,0 m -106.313,100.189 0,-174.859 178.23,65.459 -0.236,4.508 -0.366,7.017 c 0,0 -34.775,2.03 -34.639,3.994 0.134,1.962 33.229,9.325 33.229,9.325 l -7.241,93.32 -1.329,17.103 -167.648,-25.867 z"
             style="fill:#3c3c3b;fill-opacity:1;fill-rule:nonzero;stroke:none"
             id="path108"
             inkscape:connector-curvature="0" /></g><g
           id="g110"
           transform="translate(115.3794,505.0396)"><path
             d="m 0,0 c 6.098,1.088 11.92,-2.97 13.009,-9.068 1.088,-6.096 -2.971,-11.919 -9.068,-13.007 -6.096,-1.09 -11.919,2.971 -13.007,9.065 C -10.154,-6.912 -6.096,-1.088 0,0"
             style="fill:#ffffff;fill-opacity:1;fill-rule:nonzero;stroke:none"
             id="path112"
             inkscape:connector-curvature="0" /></g><g
           id="g114"
           transform="translate(645.0557,183.8135)"><path
             d="m 0,0 -27.644,37.224 c 0,0 1.916,4.928 -5.198,23.538 -7.116,18.609 -26.003,26.823 -40.527,28.739 -4.084,0.538 -8.834,0.101 -13.797,-0.784 0.003,-0.887 -0.231,-1.827 -0.784,-2.785 -2.55,-4.411 -5.593,-8.357 -9.618,-11.429 16.091,-1.31 36.371,-4.647 40.824,-22.393 0.773,-3.082 -3.979,-4.387 -4.751,-1.308 -5.151,20.521 -37.026,19.279 -53.318,19.628 -25.239,0.545 -50.565,-0.257 -75.616,3.218 -4.563,-0.404 -9.938,-0.727 -12.381,-0.295 -4.652,0.821 -35.581,12.863 -40.781,14.504 -5.199,1.644 -33.116,21.348 -39.139,24.907 -1.704,1.007 -3.247,1.764 -4.593,2.346 -7.659,0.401 -22.64,-1.182 -19.201,-10.164 1.891,-4.939 6.075,-8.891 10.043,-12.237 6.398,-5.391 13.343,-10.087 20.342,-14.656 23.651,-15.445 48.437,-29.223 74.532,-40.096 2.888,-1.203 1.621,-5.972 -1.311,-4.749 -29.922,12.468 -58.733,28.368 -85.262,47.031 -8.155,5.738 -22.346,14.318 -23.514,25.367 -0.935,8.865 6.96,12.847 15.304,14.099 -9.678,7.71 -36.275,28.503 -41.627,28.503 -6.568,0 -13.137,-5.337 -13.137,-13.137 0,-7.8 16.833,-27.508 28.739,-38.183 11.905,-10.672 26.547,-36.399 34.757,-40.78 8.213,-4.379 77.732,-51.453 95.796,-56.928 18.064,-5.476 87.585,-13.686 104.552,-20.8 16.968,-7.116 13.685,-22.99 13.685,-22.99 L 0,0 Z"
             style="fill:#feddbe;fill-opacity:1;fill-rule:nonzero;stroke:none"
             id="path116"
             inkscape:connector-curvature="0" /></g><g
           id="g118"
           transform="translate(585.6865,116.9102)"><path
             d="m 0,0 c 1.378,1.404 -15.095,31.04 -15.095,31.04 l 74.585,56.554 -6.122,8.877 -7.641,-5.608 -71.331,-52.343 -13.281,-9.745 7.407,-9.913 5.49,4.385 C -25.988,23.247 -1.38,-1.404 0,0"
             style="fill:#ffffff;fill-opacity:1;fill-rule:nonzero;stroke:none"
             id="path120"
             inkscape:connector-curvature="0" /></g><g
           id="g122"
           transform="translate(589.9092,89.0068)"><path
             d="m 0,0 c -3.234,5.281 -1.575,12.183 3.704,15.417 5.28,3.235 12.183,1.576 15.418,-3.705 C 22.357,6.432 20.698,-0.471 15.414,-3.705 10.135,-6.938 3.233,-5.282 0,0 M 68.938,125.863 55.268,115.497 -19.317,58.943 c 0,0 16.472,-29.635 15.094,-31.04 -1.38,-1.404 -25.988,23.247 -25.988,23.247 l -5.489,-4.384 -3.529,-2.816 60.003,-132.957 186.835,0 -138.671,214.87 z"
             style="fill:#3c3c3b;fill-opacity:1;fill-rule:nonzero;stroke:none"
             id="path124"
             inkscape:connector-curvature="0" /></g><g
           id="g126"
           transform="translate(609.0312,100.7188)"><path
             d="m 0,0 c -3.235,5.281 -10.138,6.94 -15.418,3.705 -5.279,-3.234 -6.938,-10.136 -3.704,-15.417 3.233,-5.282 10.135,-6.938 15.414,-3.705 C 1.576,-12.183 3.235,-5.28 0,0"
             style="fill:#ffffff;fill-opacity:1;fill-rule:nonzero;stroke:none"
             id="path128"
             inkscape:connector-curvature="0" /></g><g
           id="g130"
           transform="translate(307.2686,15.0381)" /><g
           id="g134"
           transform="translate(316.0576,15.6191)" /><g
           id="g138"
           transform="translate(328.7119,13.6826)" /><g
           id="g142"
           transform="translate(332.1299,17.7354)" /><g
           id="g146"
           transform="translate(335.4854,15.0801)" /><g
           id="g150"
           transform="translate(344.3975,17.7617)" /><g
           id="g154"
           transform="translate(352.6455,15.6191)" /><g
           id="g158"
           transform="translate(360.7783,15.0381)" /><g
           id="g162"
           transform="translate(373.2881,14.9854)" /><g
           id="g166"
           transform="translate(381.6904,11.0361)" /><g
           id="g170"
           transform="translate(415.9238,18.624)" /><g
           id="g174"
           transform="translate(422.5332,13.9395)" /><g
           id="g178"
           transform="translate(427.9727,15.6191)" /><g
           id="g182"
           transform="translate(436.2187,15.6191)" /><g
           id="g186"
           transform="translate(448.0742,15.0576)" /><g
           id="g190"
           transform="translate(453.2656,17.7354)" /><g
           id="g194"
           transform="translate(459.7832,12.1113)" /><g
           id="g198"
           transform="translate(464.3574,11.2646)" /><g
           id="g202"
           transform="translate(474.1113,13.5557)" /><g
           id="g206"
           transform="translate(480.793,15.0244)" /><g
           id="g210"
           transform="translate(490.2598,14.8926)" /><g
           id="g214"
           transform="translate(401.3437,23.5537)" /><g
           id="g218"
           transform="translate(410.7227,21.0098)" /><g
           id="g222"
           transform="translate(407.0488,17.2178)" /><g
           id="g226"
           transform="translate(393.5244,19.8701)" /><g
           id="g230"
           transform="translate(404.1562,11.8721)" /></g></g></g></svg>