<?xml version="1.0" ?><!DOCTYPE svg  PUBLIC '-//W3C//DTD SVG 1.1//EN'  'http://www.w3.org/Graphics/SVG/1.1/DTD/svg11.dtd'><svg enable-background="new 0 0 512 512" id="Layer_1" version="1.1" viewBox="0 0 512 512" xml:space="preserve" xmlns="http://www.w3.org/2000/svg" xmlns:xlink="http://www.w3.org/1999/xlink"><g><path d="M363.5,307c0-45.2,0-89.6,0-134.3c11.2,0,22.1,0,33.5,0c0.2,2.7,0.5,5.3,0.8,9.1c7.7-7.6,15.7-12.5,26.2-11.7   c9.9,0.8,18.6,3.9,24.2,13.5c1.7-1.7,3.2-3,4.5-4.3c9.6-9.4,20.8-11.8,33.1-6.9c12.5,4.9,19.6,14.6,19.8,28   c0.4,30.3,0.2,60.6,0.1,91c0,8.3-5.7,14.4-13.6,15.4c-1.5,0.2-3,0.2-4.5,0.2c-5.1,0-10.3,0-16.2,0c0-2.4,0-4.3,0-6.2   c0-29.5,0-59,0-88.5c0-6.6-2.6-9.6-8.4-10.2c-7-0.7-11.2,3.1-11.2,10.7c-0.1,24.2,0,48.3,0,72.5c0,2.3,0.1,4.7-0.1,7   c-0.5,7.2-5.7,13.1-12.5,14.4c-1.6,0.3-3.3,0.3-5,0.4c-5.5,0-10.9,0-17,0c0-2.5,0-4.4,0-6.4c0-28.8,0-57.6,0-86.5   c0-8.3-2.9-12.1-9.2-12.1c-6.7,0-10.6,4.4-10.6,12.3c0,24.8,0,49.7,0,74.5c0,12.6-5.7,18.2-18.4,18.2C374,307,369,307,363.5,307z"/><path d="M110.8,172.5c17.9,0,35-0.5,52.1,0.2c9.2,0.3,16.5,8.9,16.6,18.3c0.2,30.5,0.4,61-0.1,91.4c-0.2,15.8-10.1,24.5-26.1,24.6   c-7.7,0-15.3,0-23,0c-19.5,0-30.4-9.5-31.8-28.8c-0.8-11.4-0.8-23,0.2-34.4c1.4-16.4,13.6-27,30.1-27.5c4.5-0.1,9,0,13.5,0   c4.3,0,5.8-2.3,5.8-6.4c0-4.1-1.5-6.3-5.9-6.2c-5,0.1-10,0.1-15,0c-10.1-0.2-16.4-6.6-16.5-16.7   C110.7,182.4,110.8,177.7,110.8,172.5z M147.8,245.2c-3.9,0-7.2-0.1-10.4,0c-4.8,0.3-7.7,3.1-7.9,7.9c-0.2,4.8-0.2,9.6,0,14.4   c0.2,4.8,3.1,7.8,7.7,8.2c3.4,0.3,6.9,0.1,10.6,0.1C147.8,265.5,147.8,255.6,147.8,245.2z"/><path d="M190.4,172.6c10.1,0,20,0,30.4,0c0.1,1.8,0.3,3.6,0.3,5.3c0,14.7,0,29.3,0,44c0,6.4,3.1,9.8,8.7,10.1   c6.5,0.3,10.1-2.9,10.1-9.4c0.1-14.7,0-29.3,0-44c0-1.8,0-3.6,0-5.8c10.4,0,20.4,0,30.8,0c0.1,1.5,0.3,3,0.3,4.4   c0,32.3,0.1,64.7,0,97c-0.1,12.5-3.7,23.5-16,29.3c-3.5,1.7-7.6,3-11.5,3.1c-13.5,0.4-27,0.1-41.6,0.1c0.4-6.7,0.1-13.5,1.3-20.1   c1.3-6.5,7.3-10.5,14.1-10.6c5.3-0.1,10.7-0.1,16,0c4.4,0,6.5-2.1,6.5-6.4s-1.9-6.5-6.3-6.5c-5,0-10,0.1-15-0.1   c-15.1-0.7-28.2-13.3-28.5-28.2c-0.4-20-0.1-40-0.1-60C189.9,174.1,190.2,173.5,190.4,172.6z"/><path d="M40.2,275.8c0,5.9,0.1,10.8,0,15.8c-0.2,8.5-5.7,14.6-14.1,15.2c-5.3,0.4-10.6,0.1-16.6,0.1c-0.1-2-0.3-3.7-0.3-5.5   c0-34,0-68,0-102c0-17.4,9.8-27.1,27.3-27.2c8.2,0,16.3-0.1,24.5,0c17.2,0.2,28.9,11.1,29.3,28.1c0.4,15.7,0.4,31.3,0,47   c-0.4,16.8-11.8,27.9-28.6,28.4C54.8,276,47.9,275.8,40.2,275.8z M40.6,244.1c4.4,0,8.6,0.3,12.6-0.1c3.7-0.4,6-2.6,5.9-6.7   c0-8.8-0.1-17.6,0-26.4c0-3.9-2-6.2-5.4-6.7c-4.3-0.5-8.8-0.1-13.2-0.1C40.6,217.7,40.6,230.8,40.6,244.1z"/><path d="M334.8,147.9c0,8,0,15.9,0,24.4c6.4,0,12.4,0,18.6,0c0,10.6,0,20.7,0,31.3c-5.9,0-11.8,0-18.3,0c0,34.6,0,68.6,0,103.9   c-7.9-0.5-15.2-0.3-22.2-1.8c-8-1.7-12.4-8.6-12.4-17.1c0-26,0-52,0-78c0-2,0-4,0-6.6c-6.2,0-12.1,0-18.2,0c0-10.8,0-20.9,0-31.4   c3.4-0.3,6.7-0.4,9.9-0.8c9.7-1.4,17.3-6.4,23.2-14.2C320,151.4,325.8,147,334.8,147.9z"/></g></svg>