<?xml version="1.0" encoding="utf-8"?>
<!-- Generator: Adobe Illustrator 16.0.0, SVG Export Plug-In . SVG Version: 6.00 Build 0)  -->
<!DOCTYPE svg PUBLIC "-//W3C//DTD SVG 1.1//EN" "http://www.w3.org/Graphics/SVG/1.1/DTD/svg11.dtd">
<svg version="1.1" id="Layer_1" xmlns="http://www.w3.org/2000/svg" xmlns:xlink="http://www.w3.org/1999/xlink" x="0px" y="0px"
	 width="582.681px" height="144.244px" viewBox="5.775 350.078 582.681 144.244"
	 enable-background="new 5.775 350.078 582.681 144.244" xml:space="preserve">
<g>
	<g>
		<path fill="#009BCC" d="M225.198,397.848c0-1.575,0-2.625,0-4.199c0-1.575-0.524-3.15-1.05-4.2
			c-3.149-6.824-13.648-6.299-17.323-1.05c-1.05,1.575-1.574,2.625-1.574,4.725c-7.35-10.499-22.572-12.074-33.597-6.299
			c-4.199,2.1-7.874,4.724-11.023,8.399c-3.149,3.674-5.774,7.874-7.349,13.124c-1.575,4.724-2.625,10.499-2.625,16.272
			c0,5.774,1.05,11.549,2.625,16.273c1.574,4.725,4.199,8.924,7.349,12.599c11.023,12.599,32.021,15.748,44.095,2.625
			c0.525-0.525,0.525-0.525,1.05-1.05c0.525,2.1,1.05,3.674,2.1,4.725c1.05,1.574,2.101,2.1,3.15,3.149
			c3.149,1.574,7.874,1.574,11.023-0.525c1.575-1.05,2.625-2.1,3.149-3.675c0.525-1.574,1.05-3.149,1.05-4.724c0-1.575,0-3.15,0-4.2
			v-51.969H225.198z M171.13,424.095c0-0.525,0-1.05,0-2.1c0.524-4.725,1.574-9.449,4.725-13.124
			c3.149-3.675,7.349-6.299,12.073-6.299s9.449,2.625,12.073,6.299c2.625,3.674,4.2,8.399,4.2,13.124
			c0,5.774-1.05,12.073-4.2,16.798c-3.149,4.199-7.349,6.824-12.599,6.299c-5.249-0.524-9.974-3.674-12.598-7.874
			C172.18,433.544,171.13,428.819,171.13,424.095z M237.272,482.888c0.525,4.725,1.575,9.449,7.35,11.023
			c7.35,2.101,13.648-4.199,13.648-11.023v-25.722c2.1,1.574,3.675,3.149,5.774,4.199s4.199,2.1,6.824,2.625
			c2.1,0.524,4.725,1.05,6.824,1.05c4.199,0,8.398-0.525,11.549-2.1c3.674-1.575,6.824-3.675,9.448-5.774
			c2.625-2.625,5.249-5.774,7.35-8.924c2.1-3.15,3.674-6.824,4.724-11.024c1.05-3.674,1.575-7.874,1.575-11.548
			c0-4.199-0.525-8.399-1.575-12.074c-1.05-4.199-2.1-7.874-4.199-11.548c-1.574-3.675-4.199-6.824-6.824-9.449
			c-2.624-2.625-5.774-4.725-9.448-6.299c-3.675-2.1-7.35-3.15-12.074-3.15c-2.624,0-5.249,0.525-7.874,1.05
			c-2.624,0.525-4.725,1.575-6.824,3.15s-3.674,3.149-5.249,5.25c-1.575-5.25-6.299-9.449-12.599-8.399
			c-5.774,1.05-8.924,6.299-8.924,11.549c0,5.774,0,11.549,0,17.323c0,11.548,0,23.623,0,35.171c0,9.974,0,19.423,0,29.396
			C237.272,479.738,237.272,481.312,237.272,482.888z M258.27,423.569c0-4.724,1.05-9.448,3.675-13.123
			c2.624-3.675,6.299-6.824,11.023-7.349c5.774-0.525,11.549,2.625,14.698,7.349s4.199,10.499,3.675,16.273
			c-0.525,4.724-1.575,8.924-4.725,12.599c-2.625,3.674-7.35,6.299-11.549,6.299c-5.249,0-9.449-3.149-12.599-7.35
			C259.32,433.544,258.27,428.294,258.27,423.569"/>
		<path fill="#BB1E23" d="M466.67,430.919c3.149,0,5.774-0.525,6.824-2.1c1.575-1.575,2.1-3.675,2.1-6.824
			c-0.524-17.323-13.123-33.596-29.922-37.271c-2.624-0.525-5.249-1.05-7.874-1.05c-17.322,0-31.496,13.124-36.221,28.872
			c-2.624,8.925-2.1,18.897,1.05,27.822c3.675,9.448,11.024,17.322,20.473,21.522c7.874,3.149,17.323,3.674,25.723,2.1
			c7.874-1.575,17.322-4.725,22.572-11.549c1.574-1.575,2.1-3.675,2.1-5.249c0-4.2-4.199-8.925-8.399-8.925
			c-1.05,0-2.1,0.525-3.674,1.051c-4.2,2.1-7.874,4.724-12.599,6.299c-3.15,1.05-6.824,1.575-10.499,1.05
			c-6.824-0.524-13.123-3.675-16.273-10.499c0-0.524-1.574-4.725-1.05-4.725h45.67V430.919z M421.526,416.746
			c0.524-3.15,1.05-5.774,2.624-7.874c1.575-2.625,3.15-4.2,5.774-5.774c2.625-1.575,5.25-2.1,8.399-2.1s6.299,0.525,8.399,2.1
			c2.1,1.575,4.199,3.149,5.773,5.774c1.575,2.625,2.101,5.25,2.625,8.399h-33.596V416.746z M566.934,451.916
			c0,3.675,1.574,7.875,5.249,9.975c3.149,2.1,7.874,2.1,11.023,0c3.675-2.1,5.249-6.3,5.249-9.975v-89.764
			c0-4.199-1.574-7.874-5.249-9.974c-3.149-2.1-7.874-2.1-11.023,0c-3.675,2.1-5.249,6.299-5.249,9.974V451.916z"/>
	</g>
</g>
<path fill="#009BCC" d="M92.914,418.32c0-2.1,0-4.199,0.524-6.299c1.05-5.774,5.774-10.499,11.549-11.023c0.525,0,1.05,0,1.575,0
	c0,0,13.123-1.575,13.648,14.698v36.746c0,0,0,11.549,10.498,11.549c0,0,10.499,0,10.499-11.549s0-42.52,0-42.52
	s-0.524-19.423-18.373-25.197c-15.748-4.199-26.246,1.05-30.446,7.349l0,0c-0.524-4.199-3.674-7.874-9.448-7.874
	s-9.975,4.2-10.499,10.499v58.269c0,6.299,4.725,11.023,10.499,11.023s10.498-4.725,10.498-11.023"/>
<path fill="#009BCC" d="M62.468,398.373c0-0.525,0-1.575,0-2.1c-1.05-5.774-7.35-8.924-12.074-10.499
	c-4.725-1.575-9.448-2.625-14.173-2.625c-7.35,0-14.698,2.1-20.473,6.824c-5.25,4.2-7.874,11.024-7.874,17.848
	c0,3.674,0.524,6.299,2.1,8.924c2.625,5.25,7.349,8.399,12.599,11.024c4.725,2.1,9.974,4.199,14.698,6.299
	c3.149,1.575,7.874,3.675,7.349,7.874c-1.05,3.675-5.249,4.2-8.398,4.2c-3.675,0-7.874-1.575-11.023-3.15
	c-3.15-2.1-6.824-3.674-10.499-3.674c-4.725,0-8.924,4.724-8.924,9.448c0,2.1,0.524,3.675,2.1,5.25
	c5.774,7.874,18.373,11.023,27.297,11.023c4.725,0,8.398-0.525,12.073-2.1c10.499-3.675,18.373-13.124,17.323-24.673
	c-0.525-4.199-2.1-7.349-4.725-10.498c-2.625-2.625-5.774-5.25-9.449-6.824c-3.674-2.1-7.349-3.15-11.023-4.725
	c-3.149-1.05-6.299-2.1-9.449-4.725c-2.624-2.1-2.624-5.25,0-7.874c1.575-1.05,3.675-1.575,5.25-1.575
	c3.674,0,7.349,1.575,10.498,3.149c4.2,2.1,9.449,4.725,13.648,1.05C61.418,404.147,62.468,401.522,62.468,398.373z"/>
<path fill="#BB1E23" d="M554.86,393.124c0-1.575-0.524-3.15-1.05-4.2c-2.625-6.824-13.648-6.299-17.323-0.525
	c-1.05,1.575-1.574,2.625-1.574,4.725c-7.35-10.499-22.572-12.074-33.597-6.299c-4.199,2.1-7.874,4.724-11.023,8.399
	c-3.149,3.674-5.774,7.874-7.349,13.124c-1.575,4.724-2.625,10.499-2.625,16.272c0,5.774,1.05,11.549,2.625,16.273
	c1.574,4.725,4.199,8.924,7.349,12.599c11.023,12.599,32.021,15.748,44.095,2.625c0.525-0.525,0.525-0.525,1.05-1.05
	c0.525,2.1,1.05,3.674,2.1,4.725c1.05,1.574,2.101,2.1,3.15,3.149c3.149,1.574,7.874,1.574,11.023-0.525
	c1.575-1.05,2.625-2.1,3.149-3.675c0.525-1.574,1.05-3.149,1.05-4.724c0-1.575,0-3.15,0-4.2v-52.494
	C555.385,396.273,555.385,394.698,554.86,393.124z M529.662,438.793c-3.149,4.199-7.349,6.824-12.599,6.299
	c-5.249-0.524-9.974-3.674-12.598-7.874c-2.625-3.674-3.675-8.398-3.675-13.123c0-0.525,0-1.05,0-2.1
	c0.524-4.725,1.574-9.449,4.725-13.124c2.624-3.675,7.349-6.299,12.073-6.299s9.449,2.625,12.073,6.299
	c2.625,3.674,4.2,8.399,4.2,13.124C534.387,427.77,533.337,434.068,529.662,438.793z"/>
<path fill="#BB1E23" d="M395.279,362.152c0-2.1-0.525-4.199-1.575-6.299c-1.05-1.575-2.1-3.149-3.674-4.199
	c-1.575-1.05-3.15-1.575-5.25-1.575s-3.675,0.525-5.249,1.575c-1.575,1.05-2.625,2.1-3.675,4.199
	c-1.05,1.575-1.575,3.675-1.575,6.299v28.347c-2.1-1.575-3.674-3.149-5.774-4.199c-2.1-1.05-4.199-2.1-6.824-2.625
	c-2.1-0.525-4.724-1.05-6.824-1.05c-4.199,0-8.398,0.525-11.548,2.1c-3.675,1.575-6.824,3.675-9.449,5.774
	c-2.625,2.625-5.249,5.774-7.349,8.924c-2.101,3.149-3.675,6.824-4.725,11.023c-1.05,3.675-1.575,7.874-1.575,11.549
	c0,4.199,0.525,8.398,1.575,12.073c1.05,4.199,2.1,7.874,4.199,11.549c1.575,3.675,4.199,6.824,6.824,9.449
	c2.625,2.624,5.774,4.725,9.449,6.299c3.674,1.575,7.874,2.625,12.073,2.625c2.625,0,5.249-0.525,7.874-1.05
	c2.625-0.525,4.725-1.575,6.824-3.149c2.1-1.575,3.675-3.15,5.249-5.25c0.525,2.625,1.575,4.725,3.675,6.3
	c1.575,1.574,4.199,2.1,6.824,2.1c2.1,0,3.675-0.525,5.25-1.575c1.574-1.05,2.624-2.1,3.674-4.199c1.05-1.575,1.575-3.675,1.575-6.3
	V362.152z M374.281,424.619c0,6.3-2.1,13.648-7.349,17.849c-3.149,2.624-7.35,3.675-11.549,3.149
	c-4.725-1.05-8.398-4.199-11.023-8.399c-2.1-4.199-3.149-8.924-3.149-13.648c0-4.724,1.05-9.448,3.674-13.648
	c2.625-4.2,6.824-7.349,11.549-7.349c5.249-0.525,9.974,2.1,13.124,6.299C373.231,413.071,374.281,419.37,374.281,424.619"/>
</svg>
