<?xml version="1.0" encoding="utf-8"?>
<!-- Generator: Adobe Illustrator 16.2.1, SVG Export Plug-In . SVG Version: 6.00 Build 0)  -->
<svg version="1.2" baseProfile="tiny" id="Layer_1" xmlns="http://www.w3.org/2000/svg" xmlns:xlink="http://www.w3.org/1999/xlink"
	 x="0px" y="0px" width="193px" height="140px" viewBox="0 0 193 140" xml:space="preserve">
<g>
	<path fill="none" d="M9,9v102h124V46c0-3.314,2.686-6,6-6h32V9H9z"/>
	<circle fill="none" cx="163" cy="131" r="6"/>
	<polygon fill="none" points="171,47 140,47 140,111 140,120 140,121 186,121 186,47 180,47 	"/>
	<path fill="#C7CDD5" d="M9,111V9h162v31h9V6c0-3.3-2.7-6-6-6H6C2.7,0,0,2.7,0,6v108c0,3.3,2.7,6,6,6h64c0,12-0.56,13-7,13h-5
		c-1.1,0-2,0.9-2,2v2c0,1.1,0.9,2,2,2h64c1.1,0,2-0.9,2-2v-2c0-1.1-0.9-2-2-2h-5c-6.44,0-7-0.79-7-13h23v-9H9z"/>
	<path fill="#FFFFFF" d="M187,40h-7h-9h-32c-3.314,0-6,2.686-6,6v65v9v14c0,3.314,2.686,6,6,6h48c3.314,0,6-2.686,6-6V46
		C193,42.686,190.314,40,187,40z M163,137c-3.314,0-6-2.686-6-6s2.686-6,6-6s6,2.686,6,6S166.314,137,163,137z M186,121h-46v-1v-9
		V47h31h9h6V121z"/>
</g>
</svg>
