<?xml version="1.0" encoding="utf-8"?>
<!-- Generator: Adobe Illustrator 16.2.1, SVG Export Plug-In . SVG Version: 6.00 Build 0)  -->
<svg version="1.2" baseProfile="tiny" id="Layer_1" xmlns="http://www.w3.org/2000/svg" xmlns:xlink="http://www.w3.org/1999/xlink"
	 x="0px" y="0px" width="80px" height="61px" viewBox="0 0 80 61" xml:space="preserve">
<g>
	<path fill="none" d="M66.403,34.509c0-1.087-0.616-1.646-1.56-1.646h-0.575v3.318h0.575C65.812,36.181,66.403,35.604,66.403,34.509
		z"/>
	<path fill="none" d="M57.402,42.649c0-0.378-0.14-0.602-0.756-0.602h-0.413v1.219h0.531C57.157,43.267,57.402,43.049,57.402,42.649
		z"/>
	<path fill="none" d="M39.854,7.137H39.84c0,0-0.109,0.547-0.198,0.862l-0.281,0.976l0.988-0.006l-0.286-0.973
		C39.969,7.682,39.854,7.137,39.854,7.137z"/>
	<path fill="none" d="M46.926,27.05c-0.694,0.286-1.589,1.181-1.875,1.875c-0.441,1.071-1.476,1.762-2.636,1.762
		c-0.375,0-0.742-0.073-1.089-0.219c-0.332-0.137-0.815-0.217-1.326-0.217c-0.511,0-0.994,0.08-1.325,0.217
		c-0.348,0.146-0.715,0.219-1.09,0.219c-1.16,0-2.194-0.691-2.635-1.762c-0.287-0.694-1.181-1.589-1.876-1.875
		c-0.702-0.289-1.251-0.837-1.543-1.542c-0.069-0.166-0.118-0.336-0.155-0.508H5v28h59.28l0.569-1.383
		c-0.278-0.377-0.688-0.73-1.059-0.884l-0.478-0.197c-0.509-0.21-0.752-0.797-0.54-1.304l0.199-0.478
		c0.211-0.509,0.211-1.34,0-1.848l-0.199-0.478c-0.212-0.507,0.031-1.095,0.54-1.305l0.478-0.196c0.51-0.21,1.097-0.797,1.307-1.307
		l0.196-0.478c0.21-0.509,0.798-0.752,1.305-0.541l0.478,0.199c0.508,0.212,1.339,0.212,1.848,0l0.478-0.199
		c0.507-0.211,1.094,0.032,1.304,0.541l0.197,0.478c0.21,0.51,0.797,1.097,1.306,1.307l0.479,0.196
		c0.509,0.21,0.752,0.798,0.54,1.305l-0.198,0.478c-0.212,0.508-0.212,1.339,0,1.848l0.198,0.478
		c0.212,0.507-0.031,1.094-0.54,1.304l-0.479,0.197c-0.278,0.115-0.574,0.346-0.825,0.612L72.063,53H75V25H48.623
		c-0.036,0.172-0.086,0.342-0.154,0.508C48.177,26.213,47.628,26.762,46.926,27.05z M16.572,37.38h-3.734v-5.717h1.399v4.518h2.335
		V37.38z M21.142,37.38h-1.399v-5.717h1.399V37.38z M24.979,46.005h-3.271v-5.008h1.226v3.957h2.045V46.005z M24.494,34.509
		c0-1.663,1.28-2.942,2.999-2.942c1.415,0,2.143,0.808,2.143,0.808l-0.648,1.056c0,0-0.64-0.584-1.431-0.584
		c-1.096,0-1.615,0.808-1.615,1.632c0,0.848,0.559,1.719,1.615,1.719c0.863,0,1.519-0.703,1.519-0.703l0.72,1.023
		c0,0-0.808,0.959-2.303,0.959C25.702,37.476,24.494,36.204,24.494,34.509z M30.985,46.005H27.75v-5.008h3.138v1.051h-1.912v0.91
		h1.526v1.051h-1.526v0.945h2.01V46.005z M33.046,31.663h3.582v1.199h-2.183v1.039h1.743v1.2h-1.743v1.079h2.295v1.199h-3.694
		V31.663z M38.196,46.005h-1.232l-1.394-2.332c-0.196-0.33-0.42-0.854-0.42-0.854h-0.015c0,0,0.057,0.539,0.057,0.854v2.332h-1.226
		v-5.008h1.24l1.386,2.339c0.196,0.329,0.42,0.854,0.42,0.854h0.015c0,0-0.057-0.539-0.057-0.854v-2.339h1.226V46.005z
		 M62.869,31.663H64.9c1.799,0,2.95,1.047,2.95,2.846c0,1.8-1.151,2.871-2.95,2.871h-2.031V31.663z M45.832,43.49
		c0,1.576-1.008,2.515-2.584,2.515h-1.779v-5.008h1.779C44.824,40.997,45.832,41.914,45.832,43.49z M40.149,31.663h1.416l1.583,2.67
		c0.225,0.376,0.48,0.977,0.48,0.977h0.015c0,0-0.063-0.616-0.063-0.977v-2.67h1.399v5.717h-1.407l-1.592-2.663
		c-0.224-0.375-0.479-0.976-0.479-0.976h-0.017c0,0,0.063,0.616,0.063,0.976v2.663h-1.399V31.663z M60.734,49.673
		c0.057,0.271-0.117,0.535-0.387,0.592c-2.829,0.591-5.7,0.602-8.531,0.031c-0.339-0.069-0.593-0.12-0.819-0.1
		c-0.273,0.024-0.562,0.158-0.868,0.299l-0.241,0.109c-0.593,0.26-1.212,0.439-1.841,0.533c-1.056,0.159-1.885-0.234-2.107-1.002
		c-0.054-0.187-0.062-0.362-0.068-0.518c-0.005-0.115-0.01-0.225-0.033-0.294c-0.027-0.078-0.063-0.106-0.112-0.127
		c-0.207-0.085-0.649-0.009-1.051,0.185l-4.457,2.147c-0.07,0.034-0.144,0.05-0.216,0.05c-0.187,0-0.365-0.104-0.452-0.283
		c-0.12-0.249-0.015-0.548,0.234-0.667l4.456-2.147c0.258-0.124,1.154-0.506,1.868-0.208c0.324,0.135,0.557,0.385,0.674,0.724
		c0.072,0.207,0.08,0.404,0.088,0.578c0.006,0.107,0.01,0.211,0.03,0.281c0.097,0.337,0.695,0.338,0.998,0.293
		c0.541-0.081,1.075-0.236,1.587-0.461l0.225-0.102c0.353-0.162,0.752-0.347,1.198-0.387c0.372-0.033,0.726,0.039,1.036,0.102
		c2.767,0.557,5.501,0.549,8.199-0.016C60.41,49.224,60.678,49.402,60.734,49.673z M51.543,42.958v1.051h-1.526v0.945h2.011v1.051
		h-3.236v-5.008h3.138v1.051h-1.912v0.91H51.543z M55.765,31.663h3.582v1.199h-2.183v1.039h1.744v1.2h-1.744v1.079h2.295v1.199
		h-3.694V31.663z M55.007,40.997h1.744c0.512,0,0.757,0.035,0.973,0.119c0.568,0.217,0.926,0.729,0.926,1.457
		c0,0.532-0.252,1.113-0.749,1.365v0.014c0,0,0.069,0.092,0.188,0.302l0.974,1.751h-1.365l-0.891-1.688h-0.573v1.688h-1.227V40.997z
		 M50.452,31.566c1.231,0,1.84,0.648,1.84,0.648L51.7,33.357c0,0-0.575-0.503-1.264-0.503c-0.288,0-0.606,0.128-0.606,0.447
		c0,0.72,2.573,0.592,2.573,2.399c0,0.951-0.727,1.774-2.014,1.774c-1.344,0-2.087-0.815-2.087-0.815l0.735-1.063
		c0,0,0.646,0.592,1.366,0.592c0.288,0,0.601-0.112,0.601-0.456c0-0.68-2.574-0.655-2.574-2.414
		C48.431,32.263,49.317,31.566,50.452,31.566z"/>
	<path fill="none" d="M42.695,42.048v2.906h0.504c0.847,0,1.366-0.504,1.366-1.464c0-0.952-0.54-1.442-1.366-1.442H42.695z"/>
	<path fill="none" d="M17,3v12H5v4h26.376c0.037-0.172,0.086-0.342,0.155-0.508c0.292-0.705,0.841-1.253,1.543-1.542
		c0.695-0.286,1.589-1.181,1.875-1.875c0.442-1.071,1.476-1.762,2.636-1.762c0.375,0,0.742,0.073,1.089,0.219
		c0.332,0.137,0.815,0.218,1.326,0.218c0.511,0,0.994-0.081,1.325-0.218c0.348-0.146,0.715-0.219,1.09-0.219
		c1.16,0,2.194,0.691,2.635,1.762c0.287,0.694,1.182,1.589,1.876,1.875c0.702,0.289,1.251,0.837,1.543,1.542
		c0.068,0.166,0.118,0.336,0.154,0.508H75V3H17z M31.592,15.746c-0.626,0.998-1.577,1.17-1.577,1.17l-0.447-1.041
		c0,0,0.741-0.205,1.076-0.74c0.134-0.213,0.196-0.497-0.059-0.656c-0.505-0.318-1.686,1.605-2.992,0.786
		c-0.783-0.492-0.886-1.474-0.358-2.318c0.574-0.914,1.337-1.063,1.337-1.063l0.574,0.971c0,0-0.642,0.194-0.962,0.704
		c-0.135,0.213-0.188,0.511,0.049,0.66c0.534,0.335,1.638-1.636,2.98-0.795C31.919,13.867,32.192,14.791,31.592,15.746z
		 M34.572,12.583l-1.949-3.439l-1.321,0.748l-0.517-0.913l3.708-2.101l0.517,0.914l-1.322,0.748l1.949,3.44L34.572,12.583z
		 M40.958,10.995l-0.314-1.047l-1.562,0.009l-0.294,1.053l-1.261,0.008l1.669-5.019l1.289-0.008l1.734,4.997L40.958,10.995z
		 M45.226,12.453l-1.081-0.577l1.861-3.491l-1.341-0.716l0.494-0.927l3.764,2.008l-0.494,0.926l-1.341-0.715L45.226,12.453z
		 M52.571,14.73l-1.05-1.594l-0.759,0.499l0.838,1.274l-0.877,0.577l-0.838-1.273l-0.789,0.518l1.104,1.677l-0.877,0.577l-1.776-2.7
		l4.179-2.749l1.723,2.618L52.571,14.73z M72,12H62v-1h10V12z M62,9V8h10v1H62z"/>
	<path fill="#FFFFFF" d="M31.213,13.424c-1.342-0.841-2.446,1.13-2.98,0.795c-0.237-0.149-0.184-0.447-0.049-0.66
		c0.32-0.51,0.962-0.704,0.962-0.704l-0.574-0.971c0,0-0.763,0.149-1.337,1.063c-0.528,0.844-0.425,1.826,0.358,2.318
		c1.306,0.819,2.487-1.104,2.992-0.786c0.255,0.159,0.193,0.443,0.059,0.656c-0.335,0.535-1.076,0.74-1.076,0.74l0.447,1.041
		c0,0,0.951-0.172,1.577-1.17C32.192,14.791,31.919,13.867,31.213,13.424z"/>
	<polygon fill="#FFFFFF" points="35.01,7.792 34.493,6.878 30.785,8.979 31.302,9.893 32.623,9.145 34.572,12.583 35.637,11.98 
		33.688,8.541 	"/>
	<path fill="#FFFFFF" d="M39.195,5.999l-1.669,5.019l1.261-0.008l0.294-1.053l1.562-0.009l0.314,1.047l1.261-0.007l-1.734-4.997
		L39.195,5.999z M39.361,8.975l0.281-0.976c0.089-0.315,0.198-0.862,0.198-0.862h0.014c0,0,0.115,0.545,0.209,0.859l0.286,0.973
		L39.361,8.975z"/>
	<polygon fill="#FFFFFF" points="48.923,8.75 45.159,6.742 44.665,7.669 46.006,8.385 44.145,11.876 45.226,12.453 47.088,8.961 
		48.429,9.676 	"/>
	<polygon fill="#FFFFFF" points="47.547,14.285 49.323,16.985 50.2,16.408 49.097,14.731 49.886,14.213 50.724,15.486 
		51.601,14.909 50.763,13.635 51.521,13.136 52.571,14.73 53.448,14.154 51.726,11.536 	"/>
	<polygon fill="#FFFFFF" points="14.237,31.663 12.838,31.663 12.838,37.38 16.572,37.38 16.572,36.181 14.237,36.181 	"/>
	<rect x="19.743" y="31.663" fill="#FFFFFF" width="1.399" height="5.717"/>
	<path fill="#FFFFFF" d="M29.796,36.517l-0.72-1.023c0,0-0.656,0.703-1.519,0.703c-1.056,0-1.615-0.871-1.615-1.719
		c0-0.824,0.519-1.632,1.615-1.632c0.791,0,1.431,0.584,1.431,0.584l0.648-1.056c0,0-0.728-0.808-2.143-0.808
		c-1.719,0-2.999,1.279-2.999,2.942c0,1.695,1.208,2.967,2.999,2.967C28.988,37.476,29.796,36.517,29.796,36.517z"/>
	<polygon fill="#FFFFFF" points="36.74,36.181 34.445,36.181 34.445,35.102 36.188,35.102 36.188,33.901 34.445,33.901 
		34.445,32.862 36.628,32.862 36.628,31.663 33.046,31.663 33.046,37.38 36.74,37.38 	"/>
	<path fill="#FFFFFF" d="M41.549,34.717c0-0.359-0.063-0.976-0.063-0.976h0.017c0,0,0.255,0.601,0.479,0.976l1.592,2.663h1.407
		v-5.717H43.58v2.67c0,0.36,0.063,0.977,0.063,0.977h-0.015c0,0-0.256-0.601-0.48-0.977l-1.583-2.67h-1.416v5.717h1.399V34.717z"/>
	<path fill="#FFFFFF" d="M51.005,35.732c0,0.344-0.312,0.456-0.601,0.456c-0.72,0-1.366-0.592-1.366-0.592l-0.735,1.063
		c0,0,0.743,0.815,2.087,0.815c1.287,0,2.014-0.823,2.014-1.774c0-1.808-2.573-1.68-2.573-2.399c0-0.319,0.318-0.447,0.606-0.447
		c0.688,0,1.264,0.503,1.264,0.503l0.592-1.143c0,0-0.608-0.648-1.84-0.648c-1.135,0-2.021,0.696-2.021,1.752
		C48.431,35.077,51.005,35.053,51.005,35.732z"/>
	<polygon fill="#FFFFFF" points="59.459,36.181 57.164,36.181 57.164,35.102 58.908,35.102 58.908,33.901 57.164,33.901 
		57.164,32.862 59.347,32.862 59.347,31.663 55.765,31.663 55.765,37.38 59.459,37.38 	"/>
	<path fill="#FFFFFF" d="M67.851,34.509c0-1.799-1.151-2.846-2.95-2.846h-2.031v5.717H64.9
		C66.699,37.38,67.851,36.309,67.851,34.509z M64.269,36.181v-3.318h0.575c0.943,0,1.56,0.56,1.56,1.646
		c0,1.096-0.591,1.672-1.56,1.672H64.269z"/>
	<polygon fill="#FFFFFF" points="22.935,40.997 21.708,40.997 21.708,46.005 24.979,46.005 24.979,44.954 22.935,44.954 	"/>
	<polygon fill="#FFFFFF" points="28.976,44.009 30.501,44.009 30.501,42.958 28.976,42.958 28.976,42.048 30.888,42.048 
		30.888,40.997 27.75,40.997 27.75,46.005 30.985,46.005 30.985,44.954 28.976,44.954 	"/>
	<path fill="#FFFFFF" d="M36.97,43.336c0,0.315,0.057,0.854,0.057,0.854h-0.015c0,0-0.224-0.525-0.42-0.854l-1.386-2.339h-1.24
		v5.008h1.226v-2.332c0-0.315-0.057-0.854-0.057-0.854h0.015c0,0,0.224,0.524,0.42,0.854l1.394,2.332h1.232v-5.008H36.97V43.336z"/>
	<path fill="#FFFFFF" d="M41.469,40.997v5.008h1.779c1.576,0,2.584-0.938,2.584-2.515s-1.008-2.493-2.584-2.493H41.469z
		 M44.565,43.49c0,0.96-0.52,1.464-1.366,1.464h-0.504v-2.906h0.504C44.025,42.048,44.565,42.538,44.565,43.49z"/>
	<polygon fill="#FFFFFF" points="51.929,42.048 51.929,40.997 48.791,40.997 48.791,46.005 52.027,46.005 52.027,44.954 
		50.017,44.954 50.017,44.009 51.543,44.009 51.543,42.958 50.017,42.958 50.017,42.048 	"/>
	<path fill="#FFFFFF" d="M56.233,44.316h0.573l0.891,1.688h1.365l-0.974-1.751c-0.119-0.21-0.188-0.302-0.188-0.302v-0.014
		c0.497-0.252,0.749-0.833,0.749-1.365c0-0.729-0.357-1.24-0.926-1.457c-0.216-0.084-0.461-0.119-0.973-0.119h-1.744v5.008h1.227
		V44.316z M56.233,42.048h0.413c0.616,0,0.756,0.224,0.756,0.602c0,0.399-0.245,0.617-0.638,0.617h-0.531V42.048z"/>
	<rect x="62" y="8" fill="#98A4B5" width="10" height="1"/>
	<rect x="62" y="11" fill="#98A4B5" width="10" height="1"/>
	<path fill="#98A4B5" d="M51.944,49.302c-0.311-0.062-0.664-0.135-1.036-0.102c-0.446,0.04-0.846,0.225-1.198,0.387l-0.225,0.102
		c-0.512,0.225-1.046,0.38-1.587,0.461c-0.303,0.045-0.901,0.044-0.998-0.293c-0.021-0.07-0.024-0.174-0.03-0.281
		c-0.008-0.174-0.016-0.371-0.088-0.578c-0.117-0.339-0.35-0.589-0.674-0.724c-0.714-0.298-1.61,0.084-1.868,0.208l-4.456,2.147
		c-0.249,0.119-0.354,0.418-0.234,0.667c0.086,0.18,0.265,0.283,0.452,0.283c0.072,0,0.146-0.016,0.216-0.05l4.457-2.147
		c0.401-0.193,0.844-0.27,1.051-0.185c0.049,0.021,0.085,0.049,0.112,0.127c0.023,0.069,0.028,0.179,0.033,0.294
		c0.007,0.155,0.015,0.331,0.068,0.518c0.223,0.768,1.052,1.161,2.107,1.002c0.629-0.094,1.248-0.273,1.841-0.533l0.241-0.109
		c0.306-0.141,0.595-0.274,0.868-0.299c0.227-0.021,0.48,0.03,0.819,0.1c2.831,0.57,5.702,0.56,8.531-0.031
		c0.27-0.057,0.443-0.321,0.387-0.592s-0.324-0.449-0.591-0.387C57.445,49.851,54.711,49.858,51.944,49.302z"/>
	<path fill="#FFFFFF" d="M75,2c0.542,0,1,0.458,1,1v16h2V3c0-1.65-1.35-3-3-3H17v2H75z"/>
	<path fill="#FFFFFF" d="M5,54c-0.542,0-1-0.458-1-1V25H2v2v26c0,1.65,1.35,3,3,3h58.046l0.823-2H5z"/>
	<polygon fill="#FFFFFF" points="67.608,56 68.735,56 68.172,54.125 	"/>
	<rect x="2" y="15" fill="#FFFFFF" width="2" height="4"/>
	<path fill="#FFFFFF" d="M76,25v28c0,0.542-0.458,1-1,1h-2.524l0.822,2H75c1.65,0,3-1.35,3-3V27v-2H76z"/>
	<path fill="#98A4B5" d="M75,2H17v1h58v16h1V3C76,2.458,75.542,2,75,2z"/>
	<path fill="#98A4B5" d="M72.063,53l0.412,1H75c0.542,0,1-0.458,1-1V25h-1v28H72.063z"/>
	<rect x="4" y="15" fill="#98A4B5" width="1" height="4"/>
	<path fill="#98A4B5" d="M5,25H4v28c0,0.542,0.458,1,1,1h58.869l0.411-1H5V25z"/>
	<polygon fill="#FFFFFF" points="5,15 17,15 17,3 17,2 17,0 16,0 16,2 16,3 16,14 5,14 4,14 2,14 2,15 4,15 	"/>
	<polygon fill="#98A4B5" points="5,14 16,14 16,3 16,2 16,0 2,14 4,14 	"/>
	<path fill="#FFFFFF" d="M79,19h-1h-2h-1H48.623c0.118,0.558,0.069,1.137-0.154,1.674c-0.289,0.694-0.289,1.957,0,2.651
		c0.224,0.537,0.272,1.116,0.154,1.674H75h1h2h2v-5C80,19.45,79.55,19,79,19z"/>
	<path fill="#FFFFFF" d="M4,25h1h26.376c-0.118-0.558-0.068-1.137,0.155-1.674c0.289-0.694,0.289-1.957,0-2.651
		c-0.223-0.537-0.273-1.116-0.155-1.674H5H4H2H1c-0.55,0-1,0.45-1,1v5h2H4z"/>
	<path fill="#98A4B5" d="M46.926,16.95c-0.694-0.286-1.589-1.181-1.876-1.875c-0.44-1.071-1.475-1.762-2.635-1.762
		c-0.375,0-0.742,0.073-1.09,0.219C40.994,13.668,40.511,13.75,40,13.75c-0.511,0-0.994-0.081-1.326-0.218
		c-0.347-0.146-0.714-0.219-1.089-0.219c-1.16,0-2.194,0.691-2.636,1.762c-0.286,0.694-1.18,1.589-1.875,1.875
		c-0.702,0.289-1.251,0.837-1.543,1.542c-0.069,0.166-0.118,0.336-0.155,0.508c-0.118,0.558-0.068,1.137,0.155,1.674
		c0.289,0.694,0.289,1.957,0,2.651c-0.223,0.537-0.273,1.116-0.155,1.674c0.037,0.172,0.086,0.342,0.155,0.508
		c0.292,0.705,0.841,1.253,1.543,1.542c0.695,0.286,1.589,1.181,1.876,1.875c0.441,1.071,1.475,1.762,2.635,1.762
		c0.375,0,0.742-0.073,1.09-0.219c0.331-0.137,0.814-0.217,1.325-0.217c0.511,0,0.994,0.08,1.326,0.217
		c0.347,0.146,0.714,0.219,1.089,0.219c1.16,0,2.194-0.691,2.636-1.762c0.286-0.694,1.181-1.589,1.875-1.875
		c0.702-0.289,1.251-0.837,1.543-1.542c0.068-0.166,0.118-0.336,0.154-0.508c0.118-0.558,0.069-1.137-0.154-1.674
		c-0.289-0.694-0.289-1.957,0-2.651c0.224-0.537,0.272-1.116,0.154-1.674c-0.036-0.172-0.086-0.342-0.154-0.508
		C48.177,17.787,47.628,17.238,46.926,16.95z M47.546,20.29c-0.393,0.941-0.393,2.48,0,3.421c0.391,0.94-0.06,2.027-1.001,2.416
		c-0.942,0.388-2.03,1.476-2.419,2.418c-0.388,0.942-1.476,1.392-2.416,1.001c-0.94-0.392-2.479-0.392-3.42,0
		c-0.941,0.391-2.028-0.059-2.416-1.001c-0.388-0.942-1.476-2.03-2.419-2.418c-0.942-0.389-1.392-1.476-1-2.416
		c0.391-0.941,0.391-2.48,0-3.421c-0.392-0.94,0.058-2.028,1-2.416c0.943-0.388,2.031-1.476,2.419-2.418
		c0.388-0.942,1.475-1.393,2.416-1.001c0.941,0.392,2.479,0.392,3.42,0s2.028,0.059,2.416,1.001c0.389,0.942,1.477,2.03,2.419,2.418
		C47.486,18.262,47.937,19.35,47.546,20.29z"/>
	<path fill="#FFFFFF" d="M46.545,17.874c-0.942-0.388-2.03-1.476-2.419-2.418c-0.388-0.942-1.476-1.393-2.416-1.001
		s-2.479,0.392-3.42,0c-0.941-0.392-2.028,0.059-2.416,1.001c-0.388,0.942-1.476,2.03-2.419,2.418c-0.942,0.388-1.392,1.476-1,2.416
		c0.391,0.941,0.391,2.48,0,3.421c-0.392,0.94,0.058,2.027,1,2.416c0.943,0.388,2.031,1.476,2.419,2.418
		c0.388,0.942,1.475,1.392,2.416,1.001c0.941-0.392,2.479-0.392,3.42,0c0.94,0.391,2.028-0.059,2.416-1.001
		c0.389-0.942,1.477-2.03,2.419-2.418c0.941-0.389,1.392-1.476,1.001-2.416c-0.393-0.941-0.393-2.48,0-3.421
		C47.937,19.35,47.486,18.262,46.545,17.874z M46,22c0,3.314-2.686,6-6,6c-3.314,0-6-2.686-6-6s2.686-6,6-6
		C43.314,16,46,18.686,46,22z"/>
	<path fill="#98A4B5" d="M40,16c-3.314,0-6,2.686-6,6s2.686,6,6,6c3.314,0,6-2.686,6-6S43.314,16,40,16z M43,21.142l-2.029,0.929
		l1.436,1.741l-1.975-1.047L40,25l-0.432-2.235l-1.974,1.047l1.435-1.741L37,21.142l2.221,0.065L38.665,19L40,20.822L41.335,19
		l-0.556,2.207L43,21.142z"/>
	<polygon fill="#98A4B5" points="78,27 80,25 78,25 	"/>
	<polygon fill="#98A4B5" points="0,25 2,27 2,25 	"/>
	<polygon fill="#FFFFFF" points="41.335,19 40,20.822 38.665,19 39.221,21.207 37,21.142 39.029,22.071 37.594,23.812 
		39.568,22.765 40,25 40.432,22.765 42.406,23.812 40.971,22.071 43,21.142 40.779,21.207 	"/>
	<path fill="#FFFFFF" d="M72.063,53l-0.681-1.654c0.251-0.267,0.547-0.497,0.825-0.612l0.479-0.197
		c0.509-0.21,0.752-0.797,0.54-1.304l-0.198-0.478c-0.212-0.509-0.212-1.34,0-1.848l0.198-0.478c0.212-0.507-0.031-1.095-0.54-1.305
		l-0.479-0.196c-0.509-0.21-1.096-0.797-1.306-1.307l-0.197-0.478c-0.21-0.509-0.797-0.752-1.304-0.541l-0.478,0.199
		c-0.509,0.212-1.34,0.212-1.848,0l-0.478-0.199c-0.507-0.211-1.095,0.032-1.305,0.541l-0.196,0.478
		c-0.21,0.51-0.797,1.097-1.307,1.307l-0.478,0.196c-0.509,0.21-0.752,0.798-0.54,1.305l0.199,0.478
		c0.211,0.508,0.211,1.339,0,1.848l-0.199,0.478c-0.212,0.507,0.031,1.094,0.54,1.304l0.478,0.197
		c0.371,0.153,0.78,0.507,1.059,0.884L64.28,53l-0.411,1l-0.823,2l-1.358,3.3l3.019-1.196L66.105,61l1.503-5l0.563-1.875L68.735,56
		l1.503,5l1.399-2.896l3.019,1.196L73.298,56l-0.822-2L72.063,53z M64,47.831c0-2.209,1.791-4,4-4s4,1.791,4,4s-1.791,4-4,4
		S64,50.04,64,47.831z"/>
	<circle fill="#98A4B5" cx="68" cy="47.831" r="4"/>
</g>
</svg>
