<?xml version="1.0" encoding="utf-8"?>
<!-- Generator: Adobe Illustrator 16.2.1, SVG Export Plug-In . SVG Version: 6.00 Build 0)  -->
<svg version="1.2" baseProfile="tiny" id="Layer_1" xmlns="http://www.w3.org/2000/svg" xmlns:xlink="http://www.w3.org/1999/xlink"
	 x="0px" y="0px" width="58.022px" height="51.39px" viewBox="0 0 58.022 51.39" xml:space="preserve">
<g>
	<path fill="none" d="M18.037,19.721H2.799c-0.35,2-0.588,3-0.707,4h15.945V19.721z"/>
	<path fill="none" d="M35.541,27.762L24.96,15.403l2.006-1.745l8.583,9.975l8.632-10.083C40.059,7.333,33.002,3.056,25,3.056
		c-8.7,0-16.287,4.665-20.194,11.665H18c1.1,0,2.037,1.569,2.037,2.669v22c0,1.1-0.937,1.331-2.037,1.331H7.586
		c4.221,5,10.46,8.335,17.414,8.335c12.683,0,23-9.984,23-22.666c0-3.681-0.874-7.166-2.418-10.254L35.541,27.762z"/>
	<path fill="#728198" d="M45.539,12.144C41.024,5.647,33.511,1.39,25,1.39c-13.807,0-25,11.193-25,25c0,13.807,11.193,25,25,25
		c13.807,0,25-11.193,25-25c0-4.303-1.088-8.352-3.003-11.888L58.022,1.73L56.023,0L45.539,12.144z M2.092,23.721
		c0.119-1,0.357-2,0.707-4h15.238v4H2.092z M48,26.39c0,12.682-10.317,22.666-23,22.666c-6.954,0-13.193-3.335-17.414-8.335H18
		c1.1,0,2.037-0.231,2.037-1.331v-22c0-1.1-0.937-2.669-2.037-2.669H4.806C8.713,7.721,16.3,3.056,25,3.056
		c8.002,0,15.059,4.277,19.181,10.494l-8.632,10.083l-8.583-9.975l-2.006,1.745l10.581,12.359l10.041-11.626
		C47.126,19.224,48,22.709,48,26.39z"/>
</g>
</svg>
