<?xml version="1.0" encoding="utf-8"?>
<!-- Generator: Adobe Illustrator 16.2.1, SVG Export Plug-In . SVG Version: 6.00 Build 0)  -->
<svg version="1.2" baseProfile="tiny" id="Layer_1" xmlns="http://www.w3.org/2000/svg" xmlns:xlink="http://www.w3.org/1999/xlink"
	 x="0px" y="0px" width="65.319px" height="56px" viewBox="0 0 65.319 56" xml:space="preserve">
<g>
	<path fill="none" d="M45,25v-5.732l8.734,5.043C51.936,11.716,41.084,2,28,2C13.663,2,2,13.664,2,28s11.663,26,26,26
		c10.433,0,19.445-6.18,23.582-15.068L45,42.732V37h-9v4c0,1.1-0.9,2-2,2H12c-1.1,0-2-0.9-2-2V24c0-1.1,0.9-2,2-2h2v-5
		c0-4.95,4.05-9,9-9s9,4.05,9,9v5h2c1.1,0,2,0.9,2,2v1H45z"/>
	<path fill="none" d="M30,22v-5c0-3.86-3.141-7-7-7s-7,3.14-7,7v5h2v-5c0-2.757,2.243-5,5-5s5,2.243,5,5v5H30z"/>
	<path fill="none" d="M20,17v5h6v-5c0-1.654-1.346-3-3-3S20,15.346,20,17z"/>
	<path fill="none" d="M12,41h22V24H12V41z M23,30c1.104,0,2,0.896,2,2c0,0.738-0.405,1.377-1,1.723V37h-2v-3.277
		c-0.595-0.346-1-0.984-1-1.723C21,30.896,21.896,30,23,30z"/>
	<path fill="#9BCD6C" d="M28,0C12.536,0,0,12.536,0,28s12.536,28,28,28c12.204,0,22.578-7.81,26.413-18.703L65.319,31l-9.433-5.446
		C54.647,11.236,42.639,0,28,0z M34,22h-2v-5c0-4.95-4.05-9-9-9s-9,4.05-9,9v5h-2c-1.1,0-2,0.9-2,2v17c0,1.1,0.9,2,2,2h22
		c1.1,0,2-0.9,2-2v-4h9v5.732l6.582-3.801C47.445,47.82,38.433,54,28,54C13.663,54,2,42.336,2,28S13.663,2,28,2
		c13.084,0,23.936,9.716,25.734,22.311L45,19.268V25h-9v-1C36,22.9,35.1,22,34,22z M23,12c-2.757,0-5,2.243-5,5v5h-2v-5
		c0-3.86,3.141-7,7-7s7,3.14,7,7v5h-2v-5C28,14.243,25.757,12,23,12z M26,17v5h-6v-5c0-1.654,1.346-3,3-3S26,15.346,26,17z M34,24
		v17H12V24H34z"/>
	<path fill="#9BCD6C" d="M22,33.723V37h2v-3.277c0.595-0.346,1-0.984,1-1.723c0-1.104-0.896-2-2-2s-2,0.896-2,2
		C21,32.738,21.405,33.377,22,33.723z"/>
</g>
</svg>
