<?xml version="1.0" encoding="utf-8"?>
<!-- Generator: Adobe Illustrator 16.2.1, SVG Export Plug-In . SVG Version: 6.00 Build 0)  -->
<svg version="1.2" baseProfile="tiny" id="Layer_1" xmlns="http://www.w3.org/2000/svg" xmlns:xlink="http://www.w3.org/1999/xlink"
	 x="0px" y="0px" width="50px" height="56px" viewBox="0 0 50 56" xml:space="preserve">
<g>
	<path fill="none" d="M25,8C12.317,8,2,18.318,2,31c0,12.682,10.317,23,23,23c12.683,0,23-10.318,23-23C48,18.318,37.683,8,25,8z
		 M27.5,31c0,1.381-1.119,2.5-2.5,2.5s-2.5-1.119-2.5-2.5c0-1.36,1.087-2.461,2.439-2.494L34.75,14.72l-7.525,15.161
		C27.395,30.219,27.5,30.596,27.5,31z"/>
	<path fill="#728198" d="M44.767,11.973c0.34-0.434,0.262-1.065-0.172-1.404l-3.939-3.078c-0.435-0.339-1.065-0.261-1.404,0.172
		l-1.454,1.861c-3.209-1.917-6.884-3.13-10.813-3.439C26.985,6.056,27,6.03,27,6V5c0-0.55,0.45-1,1-1h2c0.55,0,1-0.45,1-1V1
		c0-0.55-0.45-1-1-1H20c-0.55,0-1,0.45-1,1v2c0,0.55,0.45,1,1,1h2c0.55,0,1,0.45,1,1v1c0,0.03,0.015,0.056,0.017,0.085
		C10.138,7.097,0,17.861,0,31c0,13.807,11.193,25,25,25c13.807,0,25-11.193,25-25c0-6.607-2.567-12.611-6.753-17.081L44.767,11.973z
		 M48,31c0,12.682-10.317,23-23,23C12.317,54,2,43.682,2,31C2,18.318,12.317,8,25,8C37.683,8,48,18.318,48,31z"/>
	<path fill="#728198" d="M24.939,28.506C23.587,28.539,22.5,29.64,22.5,31c0,1.381,1.119,2.5,2.5,2.5s2.5-1.119,2.5-2.5
		c0-0.404-0.105-0.781-0.275-1.119L34.75,14.72L24.939,28.506z"/>
</g>
</svg>
