<?xml version="1.0" encoding="utf-8"?>
<!-- Generator: Adobe Illustrator 16.2.1, SVG Export Plug-In . SVG Version: 6.00 Build 0)  -->
<svg version="1.2" baseProfile="tiny" id="Layer_1" xmlns="http://www.w3.org/2000/svg" xmlns:xlink="http://www.w3.org/1999/xlink"
	 x="0px" y="0px" width="58px" height="58.029px" viewBox="0 0 58 58.029" xml:space="preserve">
<g>
	<path fill="none" d="M24.967,25.316c-0.596,1.24-1.159,2.411-2.063,3.164c-0.395,0.33-1.419,1.183-7.909,1.91
		c0.375,3.866,2.311,7.341,5.416,9.736c0.317-0.043,0.582-0.098,0.814-0.098h0.102c1.088,0,2.367,0.389,3.722,0.773
		c1.418,0.4,2.883,0.829,4.126,0.829c5.759,0,7.073-0.735,7.162-1.358c0.114-0.796-0.19-0.986-0.459-1.156
		c-0.363-0.229-0.555-0.675-0.451-1.093s0.446-0.732,0.875-0.767c0.047-0.004,0.122-0.006,0.219-0.009
		c1.591-0.04,1.863-0.406,1.885-0.623c0.084-0.848-0.142-0.976-0.453-1.152c-0.08-0.045-0.152-0.087-0.212-0.127
		c-0.346-0.231-0.513-0.651-0.42-1.057s0.427-0.711,0.839-0.767l0.171-0.018c1.282-0.112,1.488-0.517,1.52-0.937
		c0.051-0.683-0.205-0.873-0.796-1.043c-0.112-0.033-0.229-0.066-0.352-0.135c-0.361-0.201-0.562-0.604-0.504-1.013
		c0.058-0.408,0.36-0.74,0.763-0.835c0.046-0.011,0.136-0.024,0.261-0.037c1.245-0.125,1.495-0.554,1.495-1.253
		c0-0.927-1.129-1.224-4.313-1.224H35.58c-2.009,0-4.046-0.137-4.957-1.411c-0.329-0.461-0.634-1.283-0.215-2.509
		c0.228-0.665,0.436-1.244,0.624-1.758c0.738-2.024,1.108-3.044,1.108-5.596c0-1.663-0.927-2.633-1.233-2.652
		c0.013,0.028-0.165,0.363-0.165,1.173c0,3.443-1.872,5.821-3.704,7.694C26.127,22.902,25.537,24.129,24.967,25.316z"/>
	<path fill="none" d="M4.628,29.015C4.628,42.474,15.54,53.386,29,53.386s24.372-10.912,24.372-24.372
		C53.372,15.555,42.46,4.643,29,4.643S4.628,15.555,4.628,29.015z M30.908,11.101c1.722,0,3.232,2.173,3.232,4.65
		c0,2.905-0.463,4.174-1.229,6.278c-0.184,0.502-0.388,1.061-0.61,1.712c-0.053,0.154-0.161,0.558-0.05,0.715
		c0.389,0.543,2.602,0.573,3.329,0.573h0.824c2.361,0,6.313-0.031,6.313,3.224c0,0.625-0.16,1.835-1.303,2.608
		c0.421,0.648,0.467,1.361,0.43,1.864c-0.052,0.696-0.357,1.763-1.647,2.361c0.176,0.436,0.272,0.999,0.199,1.738
		c-0.082,0.83-0.555,1.794-2.166,2.214c0.14,0.454,0.168,0.962,0.088,1.525c-0.367,2.565-3.771,3.081-9.143,3.081
		c-1.521,0-3.196-0.475-4.671-0.893c-1.217-0.346-2.367-0.671-3.177-0.671c-0.289,0.006-0.603,0.041-1.019,0.11
		c-0.264,0.042-0.534-0.021-0.751-0.179c-4.048-2.948-6.461-7.498-6.62-12.484c-0.017-0.525,0.375-0.974,0.898-1.027
		c6.416-0.652,7.614-1.413,7.789-1.558c0.57-0.475,1.041-1.456,1.54-2.494c0.61-1.271,1.303-2.712,2.444-3.879
		c1.628-1.664,3.134-3.579,3.134-6.296C28.742,11.255,30.547,11.101,30.908,11.101z"/>
	<path fill="#9BCD6C" d="M27.088,0.587l-1.091,0.814c-1.051,0.784-2.946,1.139-4.211,0.789L20.483,1.83
		c-1.265-0.35-2.87,0.272-3.567,1.383l-0.729,1.16c-0.697,1.111-2.336,2.129-3.641,2.261L11.202,6.77
		C9.896,6.902,8.624,8.063,8.373,9.352L8.11,10.703c-0.251,1.288-1.412,2.829-2.58,3.425l-1.208,0.617
		c-1.168,0.596-1.937,2.141-1.707,3.433l0.241,1.355c0.229,1.291-0.298,3.149-1.172,4.127l-0.909,1.019
		c-0.874,0.978-1.033,2.697-0.354,3.82l0.71,1.172c0.679,1.122,0.857,3.045,0.395,4.272l-0.484,1.285
		c-0.462,1.229,0.009,2.889,1.048,3.689l1.077,0.831c1.039,0.802,1.898,2.531,1.908,3.842l0.012,1.377
		c0.011,1.312,1.049,2.689,2.307,3.061l1.298,0.382c1.258,0.371,2.682,1.673,3.164,2.893l0.505,1.277
		c0.482,1.22,1.946,2.128,3.253,2.017l1.347-0.113c1.307-0.111,3.104,0.587,3.994,1.551l0.926,1.003
		c0.889,0.964,2.581,1.281,3.759,0.704l1.218-0.597c1.178-0.577,3.106-0.577,4.284,0l1.219,0.597c1.178,0.577,2.87,0.26,3.759-0.704
		l0.926-1.003c0.89-0.964,2.688-1.662,3.994-1.551l1.346,0.113c1.309,0.111,2.771-0.797,3.254-2.017l0.505-1.277
		c0.482-1.22,1.906-2.521,3.164-2.893l1.299-0.382c1.258-0.371,2.296-1.748,2.307-3.061l0.012-1.377
		c0.01-1.311,0.869-3.04,1.908-3.842l1.077-0.831c1.038-0.801,1.51-2.461,1.048-3.689l-0.484-1.285
		c-0.462-1.228-0.283-3.15,0.396-4.272l0.71-1.172c0.679-1.123,0.52-2.842-0.354-3.82l-0.908-1.019
		c-0.874-0.978-1.401-2.836-1.173-4.127l0.241-1.355c0.23-1.292-0.539-2.837-1.707-3.433l-1.208-0.617
		c-1.168-0.596-2.329-2.137-2.58-3.425l-0.263-1.351c-0.251-1.288-1.523-2.449-2.829-2.582l-1.344-0.136
		c-1.305-0.132-2.944-1.15-3.641-2.261l-0.729-1.16c-0.697-1.111-2.302-1.733-3.567-1.383L36.214,2.19
		c-1.265,0.35-3.16-0.005-4.211-0.789l-1.091-0.814C30.388,0.197,29.696,0.001,29.005,0h-0.01
		C28.304,0.001,27.613,0.197,27.088,0.587z M53.372,29.015c0,13.459-10.912,24.372-24.372,24.372S4.628,42.474,4.628,29.015
		C4.628,15.555,15.54,4.643,29,4.643S53.372,15.555,53.372,29.015z"/>
	<path fill="#9BCD6C" d="M25.608,20.571c-1.141,1.167-1.834,2.608-2.444,3.879c-0.499,1.038-0.97,2.019-1.54,2.494
		c-0.175,0.145-1.373,0.906-7.789,1.558c-0.523,0.053-0.915,0.502-0.898,1.027c0.159,4.986,2.572,9.536,6.62,12.484
		c0.217,0.157,0.487,0.221,0.751,0.179c0.416-0.069,0.73-0.104,1.019-0.11c0.81,0,1.96,0.325,3.177,0.671
		c1.476,0.418,3.15,0.893,4.671,0.893c5.372,0,8.775-0.516,9.143-3.081c0.08-0.563,0.052-1.071-0.088-1.525
		c1.611-0.42,2.084-1.384,2.166-2.214c0.073-0.739-0.023-1.303-0.199-1.738c1.29-0.599,1.596-1.665,1.647-2.361
		c0.037-0.503-0.009-1.216-0.43-1.864c1.143-0.772,1.303-1.983,1.303-2.608c0-3.255-3.952-3.224-6.313-3.224H35.58
		c-0.728,0-2.94-0.03-3.329-0.573c-0.111-0.157-0.003-0.561,0.05-0.715c0.223-0.651,0.427-1.21,0.61-1.712
		c0.767-2.104,1.229-3.373,1.229-6.278c0-2.477-1.511-4.65-3.232-4.65c-0.361,0-2.166,0.154-2.166,3.174
		C28.742,16.992,27.236,18.907,25.608,20.571z M30.742,14.276c0-0.81,0.178-1.145,0.165-1.173c0.307,0.019,1.233,0.989,1.233,2.652
		c0,2.552-0.37,3.572-1.108,5.596c-0.188,0.514-0.396,1.093-0.624,1.758c-0.419,1.226-0.114,2.048,0.215,2.509
		c0.911,1.274,2.948,1.411,4.957,1.411h0.824c3.185,0,4.313,0.297,4.313,1.224c0,0.7-0.25,1.128-1.495,1.253
		c-0.125,0.013-0.215,0.026-0.261,0.037c-0.402,0.095-0.705,0.427-0.763,0.835c-0.058,0.409,0.143,0.812,0.504,1.013
		c0.123,0.068,0.239,0.102,0.352,0.135c0.591,0.17,0.847,0.36,0.796,1.043c-0.031,0.42-0.237,0.824-1.52,0.937l-0.171,0.018
		c-0.412,0.056-0.746,0.361-0.839,0.767s0.074,0.825,0.42,1.057c0.06,0.04,0.132,0.082,0.212,0.127
		c0.312,0.177,0.537,0.305,0.453,1.152c-0.021,0.217-0.294,0.583-1.885,0.623c-0.097,0.003-0.172,0.005-0.219,0.009
		c-0.429,0.034-0.771,0.349-0.875,0.767s0.088,0.863,0.451,1.093c0.269,0.17,0.573,0.36,0.459,1.156
		c-0.089,0.623-1.403,1.358-7.162,1.358c-1.244,0-2.708-0.429-4.126-0.829c-1.355-0.385-2.634-0.773-3.722-0.773h-0.102
		c-0.232,0-0.497,0.055-0.814,0.098c-3.105-2.396-5.041-5.87-5.416-9.736c6.49-0.728,7.514-1.581,7.909-1.91
		c0.904-0.753,1.467-1.924,2.063-3.164c0.57-1.187,1.16-2.414,2.071-3.346C28.87,20.097,30.742,17.719,30.742,14.276z"/>
</g>
</svg>
