<?xml version="1.0" encoding="UTF-8" standalone="no"?>
<!-- Created with Inkscape (http://www.inkscape.org/) -->

<svg
   xmlns:dc="http://purl.org/dc/elements/1.1/"
   xmlns:cc="http://creativecommons.org/ns#"
   xmlns:rdf="http://www.w3.org/1999/02/22-rdf-syntax-ns#"
   xmlns:svg="http://www.w3.org/2000/svg"
   xmlns="http://www.w3.org/2000/svg"
   xmlns:sodipodi="http://sodipodi.sourceforge.net/DTD/sodipodi-0.dtd"
   xmlns:inkscape="http://www.inkscape.org/namespaces/inkscape"
   id="svg2"
   version="1.1"
   inkscape:version="0.91 r13725"
   xml:space="preserve"
   width="1000"
   height="927.96613"
   viewBox="0 0 1000 927.96612"
   sodipodi:docname="handshake.svg"><metadata
     id="metadata8"><rdf:RDF><cc:Work
         rdf:about=""><dc:format>image/svg+xml</dc:format><dc:type
           rdf:resource="http://purl.org/dc/dcmitype/StillImage" /><dc:title></dc:title></cc:Work></rdf:RDF></metadata><defs
     id="defs6"><clipPath
       clipPathUnits="userSpaceOnUse"
       id="clipPath18"><path
         d="M 0,0 800,0 800,800 0,800 0,0 Z"
         id="path20"
         inkscape:connector-curvature="0" /></clipPath><clipPath
       clipPathUnits="userSpaceOnUse"
       id="clipPath26"><path
         d="m -92.4204,546.488 984.8404,0 0,-316.633 -984.8404,0 0,316.633 z"
         id="path28"
         inkscape:connector-curvature="0" /></clipPath><clipPath
       clipPathUnits="userSpaceOnUse"
       id="clipPath146"><path
         d="M 0,800 800,800 800,0 0,0 0,800 Z"
         id="path148"
         inkscape:connector-curvature="0" /></clipPath></defs><sodipodi:namedview
     pagecolor="#ffffff"
     bordercolor="#666666"
     borderopacity="1"
     objecttolerance="10"
     gridtolerance="10"
     guidetolerance="10"
     inkscape:pageopacity="0"
     inkscape:pageshadow="2"
     inkscape:window-width="912"
     inkscape:window-height="581"
     id="namedview4"
     showgrid="false"
     inkscape:zoom="0.236"
     inkscape:cx="304.63258"
     inkscape:cy="248.48398"
     inkscape:window-x="22"
     inkscape:window-y="46"
     inkscape:window-maximized="0"
     inkscape:current-layer="g10"
     fit-margin-top="0"
     fit-margin-left="0"
     fit-margin-right="0"
     fit-margin-bottom="0" /><g
     id="g10"
     inkscape:groupmode="layer"
     inkscape:label="269"
     transform="matrix(1.25,0,0,-1.25,0,1000)"><path
       d="m 0,57.627119 800,0 L 800,800 0,800 0,57.627119 Z"
       style="fill:#0d89a8;fill-opacity:1;fill-rule:nonzero;stroke:none"
       id="path12"
       inkscape:connector-curvature="0" /><g
       id="g14"><g
         id="g16"
         clip-path="url(#clipPath18)"><g
           id="g22"><g
             id="g24" /><g
             id="g30"><g
               clip-path="url(#clipPath26)"
               id="g32"
               style="opacity:0.10000598"><g
                 transform="translate(892.4199,409.249)"
                 id="g34"><path
                   d="m 0,0 -35.883,130.542 -320.43,-88.08 0,10e-4 -13.005,-3.576 1.175,-4.278 -31.925,-8.776 1.621,-5.9 -21.358,2.305 c -3.066,0.311 -6.062,0.087 -8.902,-0.582 -2.281,1.058 -4.652,1.873 -7.07,2.472 l -0.004,0.049 -0.449,0.15 0.085,0.179 -18.611,6.007 -20.779,6.937 0.017,-0.237 -20.205,6.519 -0.043,-0.19 -89.297,-9.309 -31.794,8.586 1.156,4.284 -13.023,3.517 0,-10e-4 -320.827,86.62 -35.289,-130.704 320.829,-86.621 -10e-4,-0.002 13.02,-3.514 0.003,0 1.297,4.802 31.963,-8.632 0.364,1.35 23.723,2.039 7.692,-6.514 c -0.894,-4.623 0.188,-9.595 3.394,-13.528 4.572,-5.588 12.067,-7.379 18.48,-4.994 l 3.617,-3.062 c -1.398,-4.981 -0.443,-10.539 3.072,-14.851 5,-6.112 13.498,-7.696 20.252,-4.224 l 2.688,-2.249 c -2.121,-5.361 -1.365,-11.677 2.534,-16.459 5.289,-6.466 14.488,-7.852 21.4,-3.559 l 2.043,-1.709 c -3.041,-5.681 -2.575,-12.868 1.746,-18.169 5.698,-6.966 15.937,-8.047 22.962,-2.47 6.953,-5.514 17.088,-4.527 22.826,2.316 4.637,5.549 4.979,13.256 1.411,19.111 1.199,0.364 2.384,0.788 3.552,1.272 6.756,-3.413 15.217,-1.801 20.186,4.312 3.051,3.766 4.148,8.472 3.447,12.916 l 6.983,5.732 c 5.086,-0.279 10.23,1.782 13.681,6.04 1.955,2.407 3.096,5.2 3.496,8.063 l 27.823,22.838 c 2.601,2.122 4.857,4.511 6.763,7.092 l 4.553,-0.904 2.361,-8.596 17.155,4.718 0.002,0 14.769,4.059 1.318,-4.793 0.002,0 13.002,3.572 0,0.003 L 0,0 Z"
                   style="fill:#000000;fill-opacity:1;fill-rule:nonzero;stroke:none"
                   id="path36"
                   inkscape:connector-curvature="0" /></g></g></g></g><g
           id="g38"
           transform="translate(422.5254,439.0078)"><path
             d="m 0,0 c 16.717,13.641 41.336,11.147 54.973,-5.569 l 40.131,-49.187 c 13.652,-16.712 11.16,-41.331 -5.567,-54.971 l -65.855,-54.062 c -16.711,-13.652 -41.329,-11.159 -54.97,5.566 l -40.14,49.184 c -13.647,16.715 -11.153,41.334 5.563,54.969 L 0,0 Z"
             style="fill:#efb378;fill-opacity:1;fill-rule:nonzero;stroke:none"
             id="path40"
             inkscape:connector-curvature="0" /></g><g
           id="g42"
           transform="translate(542.8965,331.5898)"><path
             d="m 0,0 -80.127,15.919 c -14.816,1.5 -25.611,14.729 -24.109,29.544 l 4.41,43.585 c 1.502,14.814 14.724,25.613 29.545,24.112 L 45.684,100.642 0,0 Z"
             style="fill:#efb378;fill-opacity:1;fill-rule:nonzero;stroke:none"
             id="path44"
             inkscape:connector-curvature="0" /></g><g
           id="g46"
           transform="translate(380.6025,450.3325)"><path
             d="M 0,0 C -16.755,13.592 -41.366,11.026 -54.957,-5.73 L -93.22,-53.312 c -13.605,-16.756 -11.039,-41.364 5.727,-54.958 l 55.172,-46.717 c 16.753,-13.601 41.362,-11.036 54.953,5.731 l 38.275,47.579 c 13.596,16.756 11.03,41.368 -5.724,54.952 L 0,0 Z"
             style="fill:#ffcc99;fill-opacity:1;fill-rule:nonzero;stroke:none"
             id="path48"
             inkscape:connector-curvature="0" /></g><g
           id="g50"
           transform="translate(456.6328,272.4863)"><path
             d="m 0,0 c -5.723,-7.042 -16.082,-8.121 -23.127,-2.415 l -94.003,76.263 c -7.047,5.713 -8.127,16.065 -2.41,23.119 5.719,7.045 16.084,8.128 23.128,2.411 l 94,-76.25 C 4.635,17.402 5.713,7.047 0,0"
             style="fill:#ffcc99;fill-opacity:1;fill-rule:nonzero;stroke:none"
             id="path52"
             inkscape:connector-curvature="0" /></g><g
           id="g54"
           transform="translate(431.4844,247.791)"><path
             d="m 0,0 c -5.828,-6.953 -16.201,-7.877 -23.16,-2.065 l -92.848,77.662 c -6.962,5.817 -7.886,16.187 -2.063,23.153 5.823,6.96 16.204,7.886 23.161,2.064 L -2.063,23.165 C 4.896,17.332 5.818,6.964 0,0"
             style="fill:#ffcc99;fill-opacity:1;fill-rule:nonzero;stroke:none"
             id="path56"
             inkscape:connector-curvature="0" /></g><g
           id="g58"
           transform="translate(480.7441,297.1738)"><path
             d="m 0,0 c -5.713,-7.049 -16.064,-8.128 -23.119,-2.413 l -94.001,76.252 c -7.043,5.717 -8.123,16.083 -2.411,23.13 5.721,7.048 16.079,8.125 23.127,2.413 L -2.41,23.123 C 4.643,17.404 5.723,7.054 0,0"
             style="fill:#ffcc99;fill-opacity:1;fill-rule:nonzero;stroke:none"
             id="path60"
             inkscape:connector-curvature="0" /></g><g
           id="g62"
           transform="translate(504.293,322.5879)"><path
             d="m 0,0 c -5.717,-7.053 -16.07,-8.132 -23.119,-2.41 l -93.999,76.244 c -7.047,5.718 -8.13,16.077 -2.41,23.123 5.716,7.053 16.071,8.133 23.12,2.406 l 94,-76.244 C 4.637,17.402 5.719,7.049 0,0"
             style="fill:#ffcc99;fill-opacity:1;fill-rule:nonzero;stroke:none"
             id="path64"
             inkscape:connector-curvature="0" /></g><g
           id="g66"
           transform="translate(274.6475,335.1885)"><path
             d="m 0,0 84.042,7.224 c 15.915,1.655 27.468,15.904 25.812,31.814 l -4.879,46.813 c -1.663,15.911 -15.9,27.471 -31.82,25.812 L -10.886,104.434 0,0 Z"
             style="fill:#ffcc99;fill-opacity:1;fill-rule:nonzero;stroke:none"
             id="path68"
             inkscape:connector-curvature="0" /></g><g
           id="g70"
           transform="translate(416.8848,458.7563)"><path
             d="m 0,0 3.242,-45.263 c 1.381,-15.691 15.219,-27.3 30.92,-25.92 l 9.465,0.837 c 0.404,0.032 0.787,0.118 1.187,0.173 L 39.754,-13.274 0,0 Z"
             style="fill:#ffcc99;fill-opacity:1;fill-rule:nonzero;stroke:none"
             id="path72"
             inkscape:connector-curvature="0" /></g><g
           id="g74"
           transform="translate(441.5391,414.8882)"><path
             d="M 0,0 -53.33,11.795 -44.842,50.15 14.736,30.923 0,0 Z"
             style="fill:#ffcc99;fill-opacity:1;fill-rule:nonzero;stroke:none"
             id="path76"
             inkscape:connector-curvature="0" /></g><g
           id="g78"
           transform="translate(265.1797,451.1421)"><path
             d="m 0,0 131.931,13.753 c 1.031,-3.09 1.752,-6.303 2.099,-9.622 3.363,-32.252 -28.339,-61.98 -70.8,-66.409 -22.147,-2.31 -42.836,2.736 -58.058,12.652 L 0,0 Z"
             style="fill:#ffcc99;fill-opacity:1;fill-rule:nonzero;stroke:none"
             id="path80"
             inkscape:connector-curvature="0" /></g><g
           id="g82"
           transform="translate(216.7427,349.5195)"><path
             d="M 0,0 32.836,121.621 90.784,105.974 57.948,-15.644 0,0 Z"
             style="fill:#ffffff;fill-opacity:1;fill-rule:nonzero;stroke:none"
             id="path84"
             inkscape:connector-curvature="0" /></g><g
           id="g86"
           transform="translate(-92.4204,427.8398)"><path
             d="M 0,0 35.289,130.705 369.14,40.568 333.851,-90.136 0,0 Z"
             style="fill:#262125;fill-opacity:1;fill-rule:nonzero;stroke:none"
             id="path88"
             inkscape:connector-curvature="0" /></g><g
           id="g90"
           transform="translate(228.4082,341.2178)"><path
             d="M 0,0 35.288,130.708 48.311,127.19 13.02,-3.514 0,0 Z"
             style="fill:#191618;fill-opacity:1;fill-rule:nonzero;stroke:none"
             id="path92"
             inkscape:connector-curvature="0" /></g><g
           id="g94"
           transform="translate(260.5552,345.3945)"><path
             d="m 0,0 c -3.209,0.869 -5.109,4.185 -4.241,7.403 0.868,3.21 4.176,5.117 7.384,4.249 C 6.363,10.783 8.269,7.473 7.4,4.259 6.534,1.042 3.218,-0.864 0,0"
             style="fill:#a6dae9;fill-opacity:1;fill-rule:nonzero;stroke:none"
             id="path96"
             inkscape:connector-curvature="0" /></g><g
           id="g98"
           transform="translate(388.8579,450.7227)"><path
             d="M 0,0 -5.883,-45.905 C -8.181,-61.802 -22.935,-72.832 -38.84,-70.536 l -9.591,1.39 c -0.41,0.055 -0.795,0.165 -1.201,0.245 l 8.396,57.65 L 0,0 Z"
             style="fill:#efb378;fill-opacity:1;fill-rule:nonzero;stroke:none"
             id="path100"
             inkscape:connector-curvature="0" /></g><g
           id="g102"
           transform="translate(361.2559,407.4604)"><path
             d="M 0,0 54.973,8.971 48.516,48.509 -13.247,32.325 0,0 Z"
             style="fill:#efb378;fill-opacity:1;fill-rule:nonzero;stroke:none"
             id="path104"
             inkscape:connector-curvature="0" /></g><g
           id="g106"
           transform="translate(542.8965,434.3257)"><path
             d="m 0,0 -133.553,21.521 c -1.229,-3.088 -2.146,-6.317 -2.687,-9.675 -5.262,-32.652 25.326,-64.73 68.306,-71.657 22.422,-3.611 43.778,0.348 59.84,9.574 L 0,0 Z"
             style="fill:#efb378;fill-opacity:1;fill-rule:nonzero;stroke:none"
             id="path108"
             inkscape:connector-curvature="0" /></g><g
           id="g110"
           transform="translate(583.6172,342.7832)"><path
             d="M 0,0 -33.389,121.472 -91.266,105.561 -57.877,-15.908 0,0 Z"
             style="fill:#ffffff;fill-opacity:1;fill-rule:nonzero;stroke:none"
             id="path112"
             inkscape:connector-curvature="0" /></g><g
           id="g114"
           transform="translate(892.4199,422.5112)"><path
             d="M 0,0 -35.883,130.542 -369.318,38.887 -333.436,-91.656 0,0 Z"
             style="fill:#2c5871;fill-opacity:1;fill-rule:nonzero;stroke:none"
             id="path116"
             inkscape:connector-curvature="0" /></g><g
           id="g118"
           transform="translate(571.9883,334.4287)"><path
             d="M 0,0 -35.881,130.546 -48.887,126.97 -13.002,-3.573 0,0 Z"
             style="fill:#0e303f;fill-opacity:1;fill-rule:nonzero;stroke:none"
             id="path120"
             inkscape:connector-curvature="0" /></g><g
           id="g122"
           transform="translate(539.5898,339.8418)"><path
             d="M 0,0 C 3.205,0.88 5.09,4.201 4.207,7.418 3.324,10.626 0.01,12.518 -3.195,11.635 -6.412,10.75 -8.303,7.432 -7.42,4.221 -6.537,1.007 -3.213,-0.885 0,0"
             style="fill:#a6dae9;fill-opacity:1;fill-rule:nonzero;stroke:none"
             id="path124"
             inkscape:connector-curvature="0" /></g><g
           id="g126"
           transform="translate(385.6958,245.3975)"><path
             d="m 0,0 c 5.744,-7.022 16.105,-8.073 23.134,-2.343 l 19.551,16.184 c 7.029,5.734 8.078,16.092 2.342,23.128 C 39.285,44 28.92,45.048 21.892,39.313 L 2.343,23.137 C -4.686,17.39 -5.733,7.034 0,0"
             style="fill:#efb378;fill-opacity:1;fill-rule:nonzero;stroke:none"
             id="path128"
             inkscape:connector-curvature="0" /></g><g
           id="g130"
           transform="translate(360.5068,268.8359)"><path
             d="m 0,0 c 5.743,-7.023 16.105,-8.071 23.133,-2.344 l 19.552,16.187 c 7.03,5.731 8.078,16.089 2.341,23.125 C 39.284,44 28.919,45.048 21.892,39.313 L 2.343,23.137 C -4.687,17.391 -5.734,7.033 0,0"
             style="fill:#efb378;fill-opacity:1;fill-rule:nonzero;stroke:none"
             id="path132"
             inkscape:connector-curvature="0" /></g><g
           id="g134"
           transform="translate(335.0332,291.7666)"><path
             d="m 0,0 c 5.743,-7.022 16.104,-8.073 23.132,-2.343 l 19.553,16.186 c 7.029,5.732 8.077,16.09 2.34,23.126 -5.74,7.031 -16.107,8.08 -23.133,2.345 L 2.342,23.137 C -4.687,17.392 -5.735,7.034 0,0"
             style="fill:#efb378;fill-opacity:1;fill-rule:nonzero;stroke:none"
             id="path136"
             inkscape:connector-curvature="0" /></g><g
           id="g138"
           transform="translate(309.8643,314.6738)"><path
             d="m 0,0 c 5.743,-7.021 16.104,-8.07 23.133,-2.343 l 19.553,16.186 c 7.028,5.734 8.077,16.09 2.34,23.126 C 39.285,44 28.919,45.049 21.893,39.314 L 2.343,23.137 C -4.686,17.392 -5.734,7.034 0,0"
             style="fill:#efb378;fill-opacity:1;fill-rule:nonzero;stroke:none"
             id="path140"
             inkscape:connector-curvature="0" /></g></g></g><g
       id="g142"><g
         id="g144"
         clip-path="url(#clipPath146)"><g
           id="g150"
           transform="translate(290.8096,44.3936)"><path
             d="M 0,0 C 0,-0.586 0.09,-1.09 0.273,-1.508 0.457,-1.922 0.711,-2.23 1.027,-2.441 1.347,-2.654 1.695,-2.76 2.074,-2.76 l 0.006,0 0,-1.625 C 1.865,-4.42 1.64,-4.439 1.404,-4.439 c -0.521,0 -1.006,0.109 -1.449,0.328 -0.44,0.22 -0.828,0.535 -1.154,0.947 -0.323,0.404 -0.571,0.889 -0.738,1.443 -0.169,0.551 -0.251,1.151 -0.251,1.797 0,1.36 0.334,2.42 0.998,3.182 0.666,0.76 1.541,1.14 2.627,1.14 0.227,0 0.44,-0.013 0.643,-0.041 l 0,-1.572 -0.022,0 C 1.658,2.785 1.301,2.676 0.986,2.451 0.676,2.223 0.433,1.896 0.26,1.473 0.084,1.053 0,0.559 0,0 m 2.08,-2.76 c 0.381,0 0.728,0.104 1.041,0.301 0.318,0.199 0.57,0.502 0.76,0.916 0.187,0.416 0.281,0.928 0.281,1.543 0,0.584 -0.094,1.082 -0.281,1.498 -0.19,0.42 -0.443,0.74 -0.77,0.955 C 2.797,2.676 2.455,2.781 2.08,2.785 l 0,1.572 C 2.435,4.305 2.748,4.213 3.023,4.078 3.453,3.863 3.873,3.529 4.283,3.084 l 0,3.215 c 0,0.449 0.088,0.785 0.268,1.013 0.178,0.233 0.433,0.342 0.761,0.342 0.332,0 0.584,-0.105 0.76,-0.318 C 6.254,7.127 6.344,6.82 6.344,6.41 l 0,-9.607 c 0,-0.414 -0.096,-0.727 -0.286,-0.932 -0.197,-0.209 -0.443,-0.31 -0.746,-0.31 -0.297,0 -0.541,0.101 -0.738,0.32 -0.193,0.213 -0.291,0.525 -0.291,0.922 l 0,0.218 C 3.99,-3.318 3.701,-3.588 3.418,-3.799 3.133,-4.012 2.826,-4.168 2.492,-4.279 2.359,-4.322 2.224,-4.357 2.08,-4.385 l 0,1.625 z"
             style="fill:#ffffff;fill-opacity:1;fill-rule:evenodd;stroke:none"
             id="path152"
             inkscape:connector-curvature="0" /></g><g
           id="g154"
           transform="translate(301.1592,45.083)"><path
             d="m 0,0 1.974,0 0,-1.238 -1.974,0 c 0.002,-0.494 0.104,-0.93 0.297,-1.305 0.195,-0.381 0.453,-0.664 0.777,-0.855 0.277,-0.166 0.574,-0.26 0.9,-0.284 l 0,-1.445 c -1.289,0.043 -2.304,0.44 -3.037,1.195 -0.779,0.797 -1.166,1.877 -1.166,3.243 0,0.646 0.094,1.242 0.289,1.796 0.192,0.547 0.471,1.022 0.838,1.414 0.367,0.393 0.817,0.696 1.354,0.905 0.521,0.205 1.095,0.308 1.722,0.314 l 0,-1.515 -0.005,0 C 1.426,2.225 0.979,2.039 0.633,1.668 0.285,1.289 0.07,0.734 0,0 m 1.974,-5.127 0,1.445 c 0.055,-0.002 0.108,-0.004 0.164,-0.004 0.258,0 0.497,0.03 0.716,0.09 0.212,0.059 0.419,0.157 0.622,0.287 0.205,0.133 0.389,0.272 0.561,0.42 0.168,0.149 0.389,0.35 0.66,0.604 0.113,0.097 0.272,0.148 0.479,0.148 0.222,0 0.402,-0.062 0.543,-0.185 0.136,-0.121 0.207,-0.297 0.207,-0.518 0,-0.197 -0.075,-0.426 -0.229,-0.691 C 5.541,-3.795 5.31,-4.049 4.996,-4.289 4.688,-4.531 4.295,-4.73 3.824,-4.895 3.353,-5.051 2.813,-5.129 2.199,-5.129 c -0.076,0 -0.152,0 -0.225,0.002 M 1.974,0 3.949,0 C 3.896,0.742 3.693,1.301 3.344,1.668 2.996,2.037 2.539,2.225 1.974,2.225 l 0,1.515 0.067,0 C 2.894,3.74 3.623,3.564 4.229,3.199 4.842,2.842 5.297,2.379 5.604,1.811 5.904,1.244 6.053,0.662 6.053,0.07 6.053,-0.475 5.896,-0.834 5.584,-0.994 5.267,-1.158 4.828,-1.238 4.26,-1.238 l -2.286,0 0,1.238 z"
             style="fill:#ffffff;fill-opacity:1;fill-rule:evenodd;stroke:none"
             id="path156"
             inkscape:connector-curvature="0" /></g><g
           id="g158"
           transform="translate(316.0615,42.7979)"><path
             d="m 0,0 c 0,-0.598 -0.145,-1.113 -0.437,-1.539 -0.294,-0.432 -0.725,-0.756 -1.296,-0.977 -0.572,-0.218 -1.271,-0.328 -2.086,-0.328 -0.781,0 -1.453,0.115 -2.013,0.356 -0.563,0.238 -0.971,0.543 -1.237,0.898 -0.265,0.358 -0.4,0.719 -0.4,1.082 0,0.24 0.084,0.444 0.256,0.612 0.172,0.173 0.387,0.259 0.648,0.259 0.227,0 0.401,-0.058 0.526,-0.17 0.121,-0.107 0.24,-0.267 0.353,-0.468 0.221,-0.389 0.49,-0.68 0.797,-0.868 0.313,-0.195 0.74,-0.289 1.275,-0.289 0.434,0 0.793,0.098 1.075,0.289 0.279,0.194 0.418,0.416 0.418,0.666 0,0.383 -0.149,0.664 -0.434,0.84 -0.291,0.172 -0.768,0.344 -1.434,0.502 -0.75,0.186 -1.361,0.377 -1.83,0.586 -0.47,0.205 -0.845,0.473 -1.127,0.809 -0.283,0.338 -0.425,0.744 -0.425,1.238 0,0.438 0.129,0.848 0.392,1.24 0.258,0.387 0.645,0.692 1.151,0.926 0.509,0.231 1.123,0.346 1.839,0.346 0.563,0 1.071,-0.057 1.52,-0.172 0.449,-0.119 0.824,-0.276 1.125,-0.475 0.301,-0.195 0.531,-0.414 0.684,-0.654 0.158,-0.238 0.238,-0.473 0.238,-0.699 0,-0.25 -0.084,-0.457 -0.25,-0.614 -0.168,-0.158 -0.406,-0.242 -0.715,-0.242 -0.223,0 -0.414,0.065 -0.572,0.19 -0.155,0.127 -0.336,0.318 -0.537,0.576 -0.164,0.213 -0.358,0.385 -0.582,0.514 -0.225,0.125 -0.526,0.191 -0.911,0.191 -0.394,0 -0.72,-0.09 -0.98,-0.256 -0.26,-0.166 -0.391,-0.375 -0.391,-0.621 0,-0.232 0.094,-0.42 0.289,-0.564 0.19,-0.147 0.444,-0.27 0.772,-0.368 0.322,-0.091 0.773,-0.207 1.338,-0.349 0.678,-0.166 1.23,-0.356 1.658,-0.588 C -0.875,1.648 -0.549,1.381 -0.33,1.066 -0.108,0.756 0,0.398 0,0"
             style="fill:#ffffff;fill-opacity:1;fill-rule:evenodd;stroke:none"
             id="path160"
             inkscape:connector-curvature="0" /></g><g
           id="g162"
           transform="translate(319.0068,49.8213)"><path
             d="M 0,0 C -0.305,0 -0.562,0.096 -0.776,0.279 -0.994,0.467 -1.1,0.73 -1.1,1.068 c 0,0.311 0.11,0.567 0.33,0.766 0.221,0.201 0.477,0.297 0.77,0.297 0.281,0 0.531,-0.088 0.752,-0.27 C 0.97,1.678 1.078,1.414 1.078,1.068 1.078,0.734 0.972,0.475 0.76,0.283 0.545,0.098 0.293,0 0,0 m 1.078,-2.246 0,-6.299 c 0,-0.437 -0.102,-0.766 -0.311,-0.99 -0.205,-0.223 -0.472,-0.332 -0.788,-0.332 -0.323,0 -0.583,0.111 -0.78,0.34 -0.201,0.23 -0.299,0.558 -0.299,0.982 l 0,6.232 c 0,0.428 0.098,0.756 0.299,0.971 0.197,0.219 0.457,0.328 0.78,0.328 0.316,0 0.583,-0.109 0.788,-0.328 0.209,-0.215 0.311,-0.517 0.311,-0.904"
             style="fill:#ffffff;fill-opacity:1;fill-rule:evenodd;stroke:none"
             id="path164"
             inkscape:connector-curvature="0" /></g><g
           id="g166"
           transform="translate(326.1299,38.2373)"><path
             d="m 0,0 0,-1.514 -0.146,-0.002 c -0.75,0 -1.423,0.104 -2.012,0.317 -0.592,0.207 -1.047,0.478 -1.366,0.81 C -3.842,-0.053 -4,0.287 -4,0.639 c 0,0.265 0.088,0.48 0.271,0.644 0.178,0.176 0.395,0.258 0.651,0.258 0.32,0 0.599,-0.141 0.841,-0.422 0.114,-0.144 0.233,-0.293 0.36,-0.437 0.127,-0.145 0.265,-0.272 0.418,-0.377 0.148,-0.102 0.332,-0.178 0.545,-0.229 0.211,-0.051 0.457,-0.078 0.734,-0.078 0.061,0 0.121,0 0.18,0.002 m -2.096,6.213 c 0,-0.881 0.195,-1.551 0.578,-2.002 0.387,-0.447 0.885,-0.678 1.498,-0.678 L 0,3.533 0,1.971 C -0.213,1.934 -0.437,1.916 -0.676,1.916 c -0.727,0 -1.365,0.186 -1.912,0.559 -0.543,0.369 -0.963,0.89 -1.254,1.564 -0.295,0.67 -0.441,1.443 -0.441,2.324 0,0.649 0.093,1.241 0.267,1.766 0.18,0.527 0.432,0.973 0.762,1.334 0.33,0.365 0.711,0.633 1.144,0.818 0.428,0.18 0.903,0.274 1.42,0.274 0.241,0 0.473,-0.018 0.69,-0.055 l 0,-1.559 -0.037,0 C -0.66,8.941 -1.158,8.709 -1.533,8.232 -1.908,7.762 -2.096,7.092 -2.096,6.213 M 0,3.533 C 0.354,3.537 0.689,3.635 1.004,3.822 1.326,4.021 1.588,4.313 1.791,4.703 1.996,5.096 2.094,5.57 2.094,6.125 2.094,7.018 1.898,7.705 1.508,8.203 1.123,8.688 0.621,8.934 0,8.941 L 0,10.5 C 0.334,10.443 0.64,10.344 0.912,10.203 1.363,9.967 1.783,9.592 2.176,9.088 l 0,0.295 c 0,0.377 0.091,0.672 0.277,0.877 0.187,0.209 0.426,0.31 0.715,0.31 0.424,0 0.701,-0.138 0.84,-0.41 C 4.146,9.891 4.215,9.494 4.215,8.975 l 0,-6.329 C 4.215,1.926 4.142,1.301 3.984,0.779 3.832,0.258 3.586,-0.172 3.242,-0.514 2.902,-0.85 2.457,-1.107 1.906,-1.271 1.388,-1.422 0.754,-1.506 0,-1.514 L 0,0 C 0.478,0.018 0.854,0.094 1.133,0.234 1.445,0.391 1.658,0.609 1.787,0.891 1.914,1.178 1.982,1.479 2.004,1.797 2.025,2.119 2.045,2.635 2.056,3.35 1.717,2.885 1.33,2.523 0.892,2.281 0.625,2.133 0.326,2.029 0,1.971 l 0,1.562 z"
             style="fill:#ffffff;fill-opacity:1;fill-rule:evenodd;stroke:none"
             id="path168"
             inkscape:connector-curvature="0" /></g><g
           id="g170"
           transform="translate(334.5283,47.6045)"><path
             d="M 0,0 0,-0.266 C 0.383,0.242 0.804,0.611 1.256,0.848 1.709,1.086 2.234,1.203 2.824,1.203 3.4,1.203 3.912,1.08 4.363,0.832 4.814,0.58 5.152,0.225 5.377,-0.229 5.521,-0.5 5.613,-0.789 5.656,-1.09 5.699,-1.402 5.72,-1.795 5.72,-2.271 l 0,-4.057 c 0,-0.438 -0.099,-0.766 -0.296,-0.99 -0.2,-0.223 -0.463,-0.332 -0.78,-0.332 -0.326,0 -0.588,0.111 -0.79,0.339 -0.202,0.231 -0.302,0.559 -0.302,0.983 l 0,3.633 c 0,0.716 -0.101,1.265 -0.3,1.648 -0.198,0.379 -0.598,0.568 -1.194,0.568 -0.388,0 -0.742,-0.117 -1.062,-0.347 C 0.677,-1.053 0.443,-1.373 0.295,-1.779 0.189,-2.104 0.133,-2.713 0.133,-3.6 l 0,-2.728 c 0,-0.44 -0.102,-0.774 -0.305,-0.994 -0.207,-0.219 -0.469,-0.328 -0.795,-0.328 -0.311,0 -0.572,0.111 -0.772,0.339 -0.203,0.231 -0.304,0.559 -0.304,0.983 l 0,6.299 c 0,0.412 0.09,0.724 0.273,0.925 0.18,0.206 0.424,0.307 0.74,0.307 0.19,0 0.364,-0.043 0.516,-0.133 C -0.358,0.979 -0.233,0.844 -0.141,0.66 -0.047,0.482 0,0.262 0,0"
             style="fill:#ffffff;fill-opacity:1;fill-rule:evenodd;stroke:none"
             id="path172"
             inkscape:connector-curvature="0" /></g><g
           id="g174"
           transform="translate(344.2373,45.083)"><path
             d="m 0,0 1.978,0 0,-1.238 -1.978,0 c 0.006,-0.494 0.105,-0.93 0.299,-1.305 0.193,-0.381 0.453,-0.664 0.771,-0.855 0.281,-0.166 0.58,-0.26 0.908,-0.284 l 0,-1.445 c -1.291,0.043 -2.304,0.44 -3.039,1.195 -0.775,0.797 -1.166,1.877 -1.166,3.243 0,0.646 0.1,1.242 0.289,1.796 0.19,0.547 0.469,1.022 0.838,1.414 0.371,0.393 0.817,0.696 1.356,0.905 0.517,0.205 1.091,0.306 1.722,0.314 l 0,-1.515 -0.006,0 C 1.429,2.225 0.982,2.039 0.633,1.668 0.287,1.289 0.076,0.734 0,0 m 1.978,-5.127 0,1.445 c 0.051,-0.002 0.106,-0.004 0.164,-0.004 0.258,0 0.496,0.03 0.712,0.09 0.216,0.059 0.421,0.157 0.626,0.287 0.205,0.133 0.389,0.272 0.557,0.42 0.172,0.149 0.394,0.35 0.662,0.604 0.114,0.097 0.275,0.148 0.48,0.148 0.223,0 0.403,-0.062 0.543,-0.185 0.137,-0.121 0.211,-0.297 0.211,-0.518 0,-0.197 -0.079,-0.426 -0.236,-0.691 C 5.543,-3.795 5.312,-4.049 4.998,-4.289 4.691,-4.531 4.299,-4.73 3.826,-4.895 3.357,-5.051 2.814,-5.129 2.203,-5.129 c -0.076,0 -0.151,0 -0.225,0.002 M 1.978,0 3.951,0 C 3.896,0.742 3.695,1.301 3.347,1.668 3.002,2.037 2.541,2.225 1.978,2.225 l 0,1.515 0.067,0 C 2.896,3.74 3.623,3.564 4.232,3.199 4.842,2.842 5.299,2.379 5.604,1.811 5.904,1.244 6.058,0.662 6.058,0.07 6.058,-0.475 5.898,-0.834 5.586,-0.994 5.273,-1.158 4.832,-1.238 4.263,-1.238 l -2.285,0 0,1.238 z"
             style="fill:#ffffff;fill-opacity:1;fill-rule:evenodd;stroke:none"
             id="path176"
             inkscape:connector-curvature="0" /></g><g
           id="g178"
           transform="translate(353.8135,44.3936)"><path
             d="M 0,0 C 0,-0.586 0.092,-1.09 0.275,-1.508 0.461,-1.922 0.711,-2.23 1.027,-2.441 1.349,-2.654 1.697,-2.76 2.072,-2.76 l 0.012,0 0,-1.625 C 1.867,-4.42 1.642,-4.439 1.404,-4.439 c -0.519,0 -1.006,0.109 -1.449,0.328 -0.442,0.22 -0.828,0.535 -1.149,0.947 -0.328,0.404 -0.574,0.889 -0.74,1.443 -0.17,0.551 -0.254,1.151 -0.254,1.797 0,1.36 0.334,2.42 1,3.182 0.666,0.76 1.541,1.14 2.626,1.14 0.226,0 0.443,-0.013 0.646,-0.041 l 0,-1.572 -0.026,0 C 1.658,2.785 1.303,2.676 0.988,2.451 0.674,2.223 0.433,1.896 0.258,1.473 0.084,1.053 0,0.559 0,0 m 2.084,-2.76 c 0.379,0.002 0.726,0.104 1.041,0.301 0.313,0.199 0.568,0.502 0.756,0.916 C 4.072,-1.127 4.166,-0.615 4.166,0 4.166,0.584 4.072,1.082 3.881,1.498 3.693,1.918 3.438,2.238 3.115,2.453 2.803,2.676 2.459,2.781 2.084,2.785 l 0,1.572 C 2.438,4.305 2.75,4.213 3.021,4.078 3.453,3.863 3.875,3.529 4.283,3.084 l 0,3.215 c 0,0.449 0.092,0.785 0.27,1.013 0.177,0.233 0.429,0.342 0.761,0.342 0.33,0 0.582,-0.105 0.762,-0.318 C 6.254,7.127 6.344,6.82 6.344,6.41 l 0,-9.607 c 0,-0.414 -0.096,-0.727 -0.286,-0.932 -0.193,-0.209 -0.443,-0.31 -0.744,-0.31 -0.297,0 -0.543,0.101 -0.738,0.32 -0.195,0.213 -0.293,0.525 -0.293,0.922 l 0,0.218 C 3.99,-3.318 3.703,-3.588 3.418,-3.799 3.133,-4.012 2.824,-4.168 2.494,-4.279 2.361,-4.322 2.228,-4.357 2.084,-4.385 l 0,1.625 z"
             style="fill:#ffffff;fill-opacity:1;fill-rule:evenodd;stroke:none"
             id="path180"
             inkscape:connector-curvature="0" /></g><g
           id="g182"
           transform="translate(368.5439,44.333)"><path
             d="m 0,0 c 0,-0.867 0.199,-1.535 0.592,-2 0.386,-0.449 0.88,-0.68 1.49,-0.699 l 0,-1.633 c -0.108,0.02 -0.219,0.043 -0.322,0.068 -0.295,0.084 -0.549,0.188 -0.754,0.321 -0.207,0.127 -0.385,0.259 -0.532,0.402 -0.146,0.137 -0.339,0.344 -0.576,0.623 l 0,-0.219 c 0,-0.408 -0.099,-0.718 -0.297,-0.931 -0.197,-0.209 -0.445,-0.311 -0.748,-0.311 -0.31,0 -0.558,0.102 -0.742,0.311 -0.182,0.213 -0.275,0.523 -0.275,0.931 l 0,9.516 c 0,0.435 0.093,0.771 0.268,0.996 0.179,0.23 0.425,0.34 0.749,0.34 0.334,0 0.59,-0.108 0.772,-0.324 0.181,-0.217 0.273,-0.52 0.273,-0.92 l 0,-3.326 c 0.41,0.425 0.826,0.75 1.25,0.974 0.272,0.145 0.582,0.244 0.934,0.297 l 0,-1.572 C 1.697,2.834 1.354,2.721 1.047,2.512 0.722,2.283 0.463,1.957 0.279,1.527 0.092,1.096 0,0.588 0,0 m 2.082,-2.699 0.07,0 c 0.549,0 1.022,0.242 1.418,0.715 0.397,0.476 0.594,1.158 0.594,2.045 0,0.58 -0.08,1.07 -0.246,1.488 C 3.752,1.963 3.519,2.283 3.217,2.512 2.914,2.736 2.558,2.846 2.152,2.846 c -0.023,0 -0.045,0 -0.07,-0.002 l 0,1.572 C 2.285,4.445 2.5,4.459 2.73,4.459 3.451,4.459 4.088,4.285 4.631,3.945 5.179,3.604 5.601,3.107 5.9,2.453 6.201,1.805 6.351,1.027 6.351,0.137 6.351,-0.525 6.267,-1.133 6.103,-1.682 5.935,-2.232 5.689,-2.709 5.369,-3.111 5.049,-3.516 4.664,-3.83 4.209,-4.051 3.756,-4.27 3.254,-4.379 2.705,-4.379 c -0.215,0 -0.424,0.016 -0.623,0.047 l 0,1.633 z"
             style="fill:#ffffff;fill-opacity:1;fill-rule:evenodd;stroke:none"
             id="path184"
             inkscape:connector-curvature="0" /></g><g
           id="g186"
           transform="translate(378.4385,39.6787)"><path
             d="m 0,0 0.199,0.486 -2.68,6.752 c -0.165,0.391 -0.248,0.674 -0.248,0.846 0,0.184 0.045,0.365 0.145,0.52 0.094,0.162 0.226,0.287 0.394,0.38 0.168,0.098 0.342,0.145 0.52,0.145 0.316,0 0.551,-0.1 0.711,-0.299 0.16,-0.197 0.303,-0.482 0.426,-0.857 L 1.312,2.611 3.058,7.6 C 3.193,8.004 3.32,8.318 3.431,8.549 3.543,8.777 3.66,8.93 3.787,9.01 3.91,9.09 4.088,9.129 4.316,9.129 4.48,9.129 4.64,9.086 4.791,8.996 4.943,8.908 5.06,8.793 5.142,8.643 5.226,8.494 5.265,8.338 5.265,8.174 5.246,8.076 5.209,7.93 5.162,7.744 5.115,7.555 5.056,7.365 4.984,7.176 L 2.146,-0.26 C 1.9,-0.918 1.662,-1.428 1.426,-1.799 1.195,-2.174 0.888,-2.459 0.498,-2.658 0.113,-2.857 -0.408,-2.957 -1.061,-2.957 c -0.638,0 -1.117,0.072 -1.437,0.207 -0.317,0.135 -0.477,0.389 -0.477,0.756 0,0.252 0.076,0.441 0.225,0.582 0.154,0.139 0.377,0.201 0.676,0.201 0.113,0 0.23,-0.016 0.345,-0.049 0.135,-0.029 0.254,-0.045 0.356,-0.045 0.25,0 0.447,0.039 0.588,0.112 0.146,0.07 0.275,0.203 0.389,0.386 C -0.281,-0.625 -0.146,-0.354 0,0"
             style="fill:#ffffff;fill-opacity:1;fill-rule:evenodd;stroke:none"
             id="path188"
             inkscape:connector-curvature="0" /></g><g
           id="g190"
           transform="translate(418.75,48.6162)"><path
             d="m 0,0 0.522,0 0,0.656 c 0,0.682 0.086,1.221 0.258,1.623 0.17,0.399 0.467,0.696 0.877,0.877 0.416,0.186 0.978,0.276 1.697,0.276 1.268,0 1.91,-0.311 1.91,-0.934 C 5.264,2.299 5.194,2.127 5.061,1.98 4.928,1.836 4.774,1.762 4.59,1.762 4.504,1.762 4.356,1.779 4.151,1.813 3.944,1.844 3.771,1.859 3.625,1.859 3.231,1.859 2.979,1.744 2.866,1.512 2.756,1.283 2.696,0.949 2.696,0.523 L 2.696,0 3.233,0 c 0.83,0 1.246,-0.25 1.246,-0.748 0,-0.356 -0.111,-0.584 -0.328,-0.678 C 3.928,-1.523 3.622,-1.572 3.233,-1.572 l -0.537,0 0,-5.768 C 2.696,-7.77 2.594,-8.1 2.393,-8.328 2.188,-8.553 1.924,-8.662 1.598,-8.662 1.29,-8.662 1.032,-8.553 0.827,-8.328 0.622,-8.1 0.522,-7.77 0.522,-7.34 l 0,5.768 -0.602,0 c -0.324,0 -0.572,0.074 -0.746,0.224 -0.177,0.145 -0.267,0.332 -0.267,0.567 C -1.093,-0.26 -0.728,0 0,0"
             style="fill:#ffffff;fill-opacity:1;fill-rule:evenodd;stroke:none"
             id="path192"
             inkscape:connector-curvature="0" /></g><g
           id="g194"
           transform="translate(426.5322,43.0967)"><path
             d="m 0,0 0,-1.82 c 0,-0.44 -0.102,-0.774 -0.311,-0.993 -0.207,-0.22 -0.467,-0.33 -0.793,-0.33 -0.307,0 -0.568,0.11 -0.768,0.332 -0.205,0.225 -0.308,0.553 -0.308,0.991 l 0,6.062 c 0,0.983 0.357,1.469 1.062,1.469 0.36,0 0.625,-0.115 0.782,-0.342 0.164,-0.226 0.248,-0.566 0.267,-1.012 0.258,0.446 0.526,0.786 0.799,1.012 0.277,0.227 0.641,0.342 1.098,0.342 0.457,0 0.9,-0.115 1.332,-0.342 C 3.595,5.143 3.806,4.838 3.806,4.461 3.806,4.193 3.718,3.975 3.533,3.801 3.347,3.629 3.152,3.543 2.937,3.543 2.857,3.543 2.662,3.592 2.357,3.689 2.054,3.789 1.783,3.84 1.546,3.84 1.228,3.84 0.968,3.75 0.769,3.584 0.564,3.42 0.406,3.17 0.296,2.842 0.183,2.508 0.107,2.117 0.063,1.66 0.021,1.207 0,0.654 0,0"
             style="fill:#ffffff;fill-opacity:1;fill-rule:evenodd;stroke:none"
             id="path196"
             inkscape:connector-curvature="0" /></g><g
           id="g198"
           transform="translate(432.9404,45.083)"><path
             d="m 0,0 1.976,0 0,-1.238 -1.976,0 c 0.007,-0.494 0.105,-0.93 0.298,-1.305 0.194,-0.381 0.45,-0.664 0.776,-0.855 0.277,-0.166 0.574,-0.258 0.902,-0.284 l 0,-1.445 c -1.293,0.043 -2.305,0.44 -3.037,1.195 -0.775,0.797 -1.166,1.877 -1.166,3.243 0,0.646 0.094,1.242 0.289,1.796 0.191,0.547 0.469,1.022 0.836,1.414 0.367,0.393 0.818,0.696 1.359,0.905 0.514,0.205 1.086,0.306 1.719,0.314 l 0,-1.515 -0.006,0 C 1.427,2.225 0.98,2.039 0.632,1.668 0.285,1.289 0.074,0.734 0,0 m 1.976,-5.127 0,1.445 c 0.051,-0.002 0.108,-0.004 0.164,-0.004 0.26,0 0.5,0.03 0.715,0.09 0.211,0.059 0.422,0.157 0.623,0.287 0.203,0.133 0.389,0.272 0.561,0.42 0.168,0.149 0.394,0.35 0.656,0.604 0.118,0.097 0.281,0.148 0.486,0.148 0.219,0 0.401,-0.062 0.541,-0.185 0.135,-0.121 0.205,-0.297 0.205,-0.518 0,-0.197 -0.074,-0.426 -0.23,-0.691 C 5.541,-3.795 5.31,-4.049 5,-4.289 4.688,-4.531 4.298,-4.73 3.826,-4.895 3.354,-5.051 2.814,-5.129 2.203,-5.129 c -0.078,0 -0.151,0 -0.227,0.002 M 1.976,0 3.949,0 C 3.892,0.742 3.695,1.301 3.349,1.668 3,2.037 2.541,2.225 1.976,2.225 l 0,1.515 0.068,0 C 2.892,3.74 3.621,3.564 4.23,3.199 4.837,2.842 5.298,2.379 5.601,1.811 5.902,1.244 6.058,0.662 6.058,0.07 6.058,-0.475 5.902,-0.834 5.587,-0.994 5.273,-1.158 4.83,-1.238 4.261,-1.238 l -2.285,0 0,1.238 z"
             style="fill:#ffffff;fill-opacity:1;fill-rule:evenodd;stroke:none"
             id="path200"
             inkscape:connector-curvature="0" /></g><g
           id="g202"
           transform="translate(442.6514,45.083)"><path
             d="m 0,0 1.976,0 0,-1.238 -1.976,0 C 0.005,-1.732 0.105,-2.168 0.298,-2.543 0.49,-2.924 0.755,-3.207 1.072,-3.398 1.351,-3.564 1.65,-3.656 1.976,-3.682 l 0,-1.445 c -1.291,0.043 -2.299,0.44 -3.038,1.195 -0.778,0.797 -1.165,1.877 -1.165,3.243 0,0.646 0.098,1.242 0.285,1.796 0.194,0.547 0.473,1.022 0.838,1.414 0.365,0.393 0.822,0.696 1.361,0.905 0.518,0.205 1.092,0.308 1.719,0.314 l 0,-1.515 -0.008,0 C 1.429,2.225 0.98,2.039 0.632,1.668 0.285,1.289 0.068,0.734 0,0 m 1.976,-5.127 0,1.445 c 0.051,-0.002 0.104,-0.004 0.164,-0.004 0.256,0 0.494,0.03 0.709,0.09 0.215,0.059 0.428,0.157 0.627,0.287 0.205,0.133 0.389,0.272 0.563,0.42 0.17,0.149 0.392,0.35 0.662,0.604 0.112,0.097 0.267,0.148 0.476,0.148 0.221,0 0.405,-0.062 0.549,-0.185 0.129,-0.121 0.201,-0.297 0.201,-0.518 0,-0.197 -0.073,-0.426 -0.23,-0.691 C 5.543,-3.795 5.31,-4.049 4.996,-4.289 4.687,-4.531 4.298,-4.73 3.824,-4.895 3.353,-5.051 2.812,-5.129 2.201,-5.129 c -0.076,0 -0.151,0 -0.225,0.002 M 1.976,0 3.947,0 C 3.894,0.742 3.691,1.301 3.349,1.668 2.998,2.037 2.543,2.225 1.976,2.225 l 0,1.515 0.063,0 C 2.896,3.74 3.623,3.564 4.232,3.199 4.841,2.842 5.3,2.379 5.604,1.811 5.906,1.244 6.056,0.662 6.056,0.07 6.056,-0.475 5.896,-0.834 5.582,-0.994 5.271,-1.158 4.832,-1.238 4.263,-1.238 l -2.287,0 0,1.238 z"
             style="fill:#ffffff;fill-opacity:1;fill-rule:evenodd;stroke:none"
             id="path204"
             inkscape:connector-curvature="0" /></g><g
           id="g206"
           transform="translate(454.5225,47.1787)"><path
             d="m 0,0 c -0.575,-0.014 -1.062,-0.248 -1.461,-0.709 -0.414,-0.471 -0.623,-1.17 -0.623,-2.092 0,-0.863 0.209,-1.537 0.619,-2.017 0.394,-0.471 0.886,-0.709 1.465,-0.727 l 0,-1.639 c -0.37,0.057 -0.696,0.164 -0.975,0.334 -0.424,0.246 -0.826,0.612 -1.213,1.098 l 0,-3.271 c 0,-0.959 -0.346,-1.434 -1.039,-1.434 -0.412,0 -0.682,0.123 -0.818,0.371 -0.135,0.244 -0.196,0.607 -0.196,1.08 l 0,9.402 c 0,0.413 0.092,0.725 0.268,0.926 0.18,0.205 0.426,0.307 0.746,0.307 0.305,0 0.559,-0.102 0.748,-0.313 0.199,-0.212 0.291,-0.513 0.291,-0.904 l 0,-0.266 c 0.418,0.504 0.84,0.879 1.281,1.116 0.278,0.146 0.582,0.25 0.907,0.302 L 0,0 Z m 2.082,-2.76 c 0,0.576 -0.084,1.071 -0.264,1.481 C 1.644,-0.865 1.402,-0.547 1.093,-0.332 0.781,-0.107 0.437,0 0.06,0 L 0,0 0,1.564 c 0.188,0.034 0.388,0.049 0.595,0.049 0.668,0 1.282,-0.174 1.85,-0.519 0.564,-0.348 1.008,-0.85 1.334,-1.516 0.326,-0.664 0.49,-1.449 0.49,-2.363 0,-0.668 -0.096,-1.281 -0.283,-1.844 C 3.8,-5.189 3.541,-5.664 3.209,-6.041 2.875,-6.42 2.488,-6.717 2.043,-6.922 1.591,-7.125 1.107,-7.225 0.595,-7.225 0.384,-7.225 0.187,-7.213 0,-7.184 l 0,1.639 0.06,0 c 0.363,0 0.692,0.106 1.003,0.318 0.308,0.211 0.558,0.52 0.743,0.944 0.182,0.422 0.276,0.928 0.276,1.523"
             style="fill:#ffffff;fill-opacity:1;fill-rule:evenodd;stroke:none"
             id="path208"
             inkscape:connector-curvature="0" /></g><g
           id="g210"
           transform="translate(461.6436,49.8213)"><path
             d="m 0,0 c -0.307,0 -0.569,0.096 -0.78,0.279 -0.211,0.188 -0.322,0.451 -0.322,0.789 0,0.311 0.111,0.567 0.332,0.766 0.217,0.201 0.475,0.297 0.77,0.297 0.279,0 0.531,-0.088 0.753,-0.27 C 0.966,1.678 1.078,1.414 1.078,1.068 1.078,0.734 0.97,0.475 0.755,0.283 0.544,0.098 0.291,0 0,0 m 1.078,-2.246 0,-6.299 c 0,-0.437 -0.106,-0.766 -0.315,-0.99 -0.207,-0.223 -0.469,-0.332 -0.789,-0.332 -0.322,0 -0.576,0.111 -0.779,0.34 -0.199,0.23 -0.297,0.558 -0.297,0.982 l 0,6.232 c 0,0.428 0.098,0.756 0.297,0.971 0.203,0.219 0.457,0.328 0.779,0.328 0.32,0 0.582,-0.109 0.789,-0.328 0.209,-0.215 0.315,-0.517 0.315,-0.904"
             style="fill:#ffffff;fill-opacity:1;fill-rule:evenodd;stroke:none"
             id="path212"
             inkscape:connector-curvature="0" /></g><g
           id="g214"
           transform="translate(470.3965,40.9502)"><path
             d="m 0,0 -1.925,3.16 -1.182,-1.119 0,-1.732 c 0,-0.42 -0.109,-0.743 -0.326,-0.971 -0.225,-0.225 -0.477,-0.334 -0.762,-0.334 -0.338,0 -0.601,0.109 -0.791,0.332 -0.195,0.225 -0.289,0.553 -0.289,0.99 l 0,9.287 c 0,0.485 0.088,0.852 0.277,1.106 0.19,0.254 0.452,0.379 0.803,0.379 0.334,0 0.6,-0.11 0.795,-0.342 0.197,-0.229 0.293,-0.565 0.293,-1.014 l 0,-5.285 2.451,2.574 c 0.303,0.319 0.535,0.535 0.69,0.655 0.164,0.115 0.361,0.171 0.588,0.171 0.271,0 0.492,-0.082 0.679,-0.259 C 1.479,7.426 1.569,7.211 1.569,6.949 1.569,6.631 1.276,6.201 0.684,5.67 L -0.47,4.611 1.76,1.1 C 1.932,0.838 2.049,0.639 2.116,0.506 2.19,0.369 2.225,0.238 2.225,0.121 2.225,-0.227 2.133,-0.498 1.94,-0.703 1.752,-0.896 1.502,-0.996 1.196,-0.996 0.93,-0.996 0.725,-0.928 0.579,-0.785 0.438,-0.641 0.245,-0.375 0,0"
             style="fill:#ffffff;fill-opacity:1;fill-rule:evenodd;stroke:none"
             id="path216"
             inkscape:connector-curvature="0" /></g><g
           id="g218"
           transform="translate(475.7793,39.9541)"><path
             d="m 0,0 c -0.326,0 -0.609,0.102 -0.851,0.316 -0.24,0.211 -0.363,0.512 -0.363,0.897 0,0.324 0.119,0.603 0.345,0.838 0.231,0.232 0.515,0.347 0.848,0.347 C 0.312,2.398 0.6,2.283 0.836,2.053 1.071,1.82 1.19,1.545 1.19,1.213 1.19,0.834 1.071,0.533 0.836,0.32 0.6,0.102 0.321,0 0,0"
             style="fill:#ffffff;fill-opacity:1;fill-rule:evenodd;stroke:none"
             id="path220"
             inkscape:connector-curvature="0" /></g><g
           id="g222"
           transform="translate(487.2676,42.6494)"><path
             d="m 0,0 c 0,-0.273 -0.087,-0.561 -0.248,-0.871 -0.16,-0.311 -0.408,-0.602 -0.738,-0.883 -0.33,-0.279 -0.756,-0.504 -1.256,-0.67 -0.504,-0.172 -1.078,-0.256 -1.711,-0.256 -1.349,0 -2.394,0.393 -3.151,1.176 -0.753,0.781 -1.134,1.834 -1.134,3.152 0,0.901 0.175,1.688 0.52,2.375 0.34,0.684 0.847,1.215 1.5,1.588 0.654,0.377 1.435,0.563 2.347,0.563 0.561,0 1.077,-0.08 1.551,-0.246 0.471,-0.166 0.869,-0.373 1.197,-0.641 0.325,-0.256 0.577,-0.537 0.75,-0.832 0.172,-0.297 0.26,-0.57 0.26,-0.826 0,-0.262 -0.101,-0.483 -0.295,-0.664 -0.193,-0.184 -0.427,-0.268 -0.701,-0.268 -0.187,0 -0.338,0.047 -0.455,0.139 -0.119,0.092 -0.254,0.24 -0.402,0.453 -0.266,0.399 -0.545,0.705 -0.834,0.906 -0.289,0.203 -0.66,0.303 -1.104,0.303 -0.644,0 -1.159,-0.25 -1.556,-0.752 -0.394,-0.504 -0.594,-1.187 -0.594,-2.062 0,-0.411 0.047,-0.788 0.154,-1.133 0.098,-0.338 0.248,-0.631 0.44,-0.875 0.189,-0.238 0.423,-0.426 0.693,-0.551 0.269,-0.123 0.574,-0.187 0.896,-0.187 0.43,0 0.808,0.103 1.118,0.302 0.314,0.205 0.584,0.508 0.828,0.928 0.129,0.244 0.279,0.436 0.435,0.574 0.149,0.137 0.336,0.205 0.561,0.205 0.271,0 0.488,-0.099 0.662,-0.302 C -0.093,0.441 0,0.225 0,0"
             style="fill:#ffffff;fill-opacity:1;fill-rule:evenodd;stroke:none"
             id="path224"
             inkscape:connector-curvature="0" /></g><g
           id="g226"
           transform="translate(492.9814,47.1982)"><path
             d="m 0,0 -0.014,0.002 c -0.423,0 -0.799,-0.111 -1.125,-0.332 -0.32,-0.225 -0.572,-0.549 -0.752,-0.977 -0.172,-0.435 -0.26,-0.939 -0.26,-1.513 0,-0.569 0.086,-1.067 0.26,-1.493 0.172,-0.423 0.42,-0.748 0.742,-0.974 0.322,-0.227 0.701,-0.336 1.135,-0.336 l 0.014,0 0,-1.621 -0.014,0 c -0.654,0 -1.25,0.101 -1.781,0.316 -0.522,0.211 -0.976,0.518 -1.366,0.914 -0.384,0.397 -0.679,0.866 -0.871,1.407 -0.205,0.539 -0.306,1.134 -0.306,1.787 0,0.662 0.101,1.265 0.312,1.816 0.195,0.545 0.483,1.016 0.863,1.402 0.377,0.387 0.836,0.686 1.368,0.899 0.543,0.211 1.132,0.312 1.781,0.312 L 0,1.609 0,0 Z m 2.152,-2.82 c 0,0.888 -0.199,1.582 -0.588,2.076 C 1.179,-0.252 0.658,-0.004 0,0 L 0,1.609 C 0.66,1.607 1.25,1.498 1.783,1.293 2.32,1.08 2.781,0.777 3.166,0.383 3.55,-0.014 3.837,-0.48 4.037,-1.023 c 0.201,-0.543 0.3,-1.141 0.3,-1.797 0,-0.645 -0.099,-1.246 -0.3,-1.787 C 3.83,-5.162 3.533,-5.633 3.154,-6.023 2.775,-6.416 2.314,-6.721 1.783,-6.934 1.255,-7.143 0.66,-7.244 0,-7.244 l 0,1.621 c 0.658,0.004 1.179,0.248 1.564,0.746 0.389,0.496 0.588,1.184 0.588,2.057"
             style="fill:#ffffff;fill-opacity:1;fill-rule:evenodd;stroke:none"
             id="path228"
             inkscape:connector-curvature="0" /></g><g
           id="g230"
           transform="translate(506.2803,44.2197)"><path
             d="m 0,0 0,-2.893 c 0,-0.457 -0.104,-0.802 -0.313,-1.033 -0.205,-0.228 -0.484,-0.34 -0.824,-0.34 -0.328,0 -0.592,0.112 -0.799,0.34 -0.205,0.231 -0.307,0.576 -0.307,1.033 l 0,3.471 c 0,0.549 -0.021,0.967 -0.058,1.274 -0.035,0.304 -0.137,0.552 -0.303,0.744 -0.164,0.199 -0.424,0.289 -0.783,0.289 -0.709,0 -1.178,-0.24 -1.401,-0.729 -0.228,-0.49 -0.341,-1.191 -0.341,-2.107 l 0,-2.942 c 0,-0.455 -0.106,-0.793 -0.309,-1.027 -0.203,-0.232 -0.475,-0.346 -0.812,-0.346 -0.327,0 -0.598,0.114 -0.811,0.346 -0.21,0.234 -0.314,0.572 -0.314,1.027 l 0,6.231 c 0,0.408 0.095,0.721 0.285,0.933 0.191,0.208 0.437,0.317 0.742,0.317 0.301,0 0.551,-0.1 0.748,-0.299 0.203,-0.197 0.301,-0.475 0.301,-0.826 l 0,-0.205 c 0.377,0.447 0.779,0.783 1.211,0.996 0.435,0.211 0.91,0.318 1.439,0.318 0.545,0 1.018,-0.107 1.41,-0.326 0.393,-0.217 0.721,-0.549 0.973,-0.988 0.371,0.445 0.764,0.779 1.184,0.994 0.419,0.213 0.886,0.32 1.398,0.32 0.594,0 1.107,-0.117 1.538,-0.347 C 4.285,3.984 4.605,3.652 4.814,3.221 5.005,2.824 5.099,2.201 5.099,1.357 l 0,-4.25 c 0,-0.457 -0.111,-0.802 -0.316,-1.033 -0.203,-0.228 -0.473,-0.34 -0.819,-0.34 -0.326,0 -0.597,0.114 -0.808,0.346 -0.211,0.234 -0.315,0.572 -0.315,1.027 l 0,3.663 C 2.841,1.232 2.82,1.609 2.779,1.896 2.738,2.176 2.634,2.412 2.455,2.602 2.281,2.795 2.015,2.885 1.656,2.885 1.371,2.885 1.103,2.803 0.843,2.635 0.587,2.465 0.386,2.234 0.236,1.945 0.078,1.58 0,0.934 0,0"
             style="fill:#ffffff;fill-opacity:1;fill-rule:evenodd;stroke:none"
             id="path232"
             inkscape:connector-curvature="0" /></g><g
           id="g234"
           transform="translate(401.5879,54.4248)"><path
             d="M 0,0 C -0.046,0.143 -0.093,0.279 -0.138,0.418 0.592,0.486 1.084,1.363 0.727,2.012 0.555,2.4 0.151,2.609 -0.248,2.617 l -0.046,0 C -0.636,2.611 -0.968,2.465 -1.164,2.16 -1.63,1.572 -1.267,0.631 -0.552,0.439 c 0.043,-0.146 0.086,-0.296 0.131,-0.453 -1.098,-0.072 -2.217,-0.314 -3.137,-0.941 0.094,-0.262 0.19,-0.531 0.285,-0.803 1.857,0.819 3.938,0.643 5.895,0.446 0.066,0.257 0.13,0.517 0.197,0.775 C 1.934,-0.139 0.963,0.008 0,0"
             style="fill:#ffffff;fill-opacity:1;fill-rule:evenodd;stroke:none"
             id="path236"
             inkscape:connector-curvature="0" /></g><g
           id="g238"
           transform="translate(412.625,51.4287)"><path
             d="m 0,0 c -0.289,-0.148 -0.347,-0.504 -0.326,-0.797 -0.33,-0.32 -0.174,-0.799 -0.209,-1.197 -0.076,-0.223 -0.343,-0.248 -0.528,-0.33 -0.255,0.387 -0.53,0.763 -0.875,1.082 l 10e-4,0.019 c -0.371,0.35 -0.775,0.672 -1.205,0.948 -0.34,-0.37 -0.703,-0.733 -1.031,-1.114 0.652,-0.716 1.257,-1.49 1.791,-2.3 0.369,-0.62 0.666,-1.28 0.918,-1.952 0.554,0.284 1.099,0.579 1.652,0.871 -0.291,0.672 -0.625,1.329 -0.977,1.977 0.243,0.129 0.571,0.256 0.61,0.576 0.027,0.352 -0.051,0.735 0.158,1.043 0.428,-0.279 1.076,0.033 1.082,0.555 C 1.118,-0.082 0.442,0.301 0,0"
             style="fill:#ffffff;fill-opacity:1;fill-rule:evenodd;stroke:none"
             id="path240"
             inkscape:connector-curvature="0" /></g><g
           id="g242"
           transform="translate(397.6924,51.8115)"><path
             d="m 0,0 0,-1.977 c -0.502,0.002 -1,-0.115 -1.444,-0.351 -0.921,-0.494 -1.57,-1.473 -1.613,-2.522 -0.062,-0.839 0.272,-1.673 0.832,-2.295 C -1.662,-7.766 -0.83,-8.092 0,-8.092 l 0,-2.666 c -1.947,0.098 -3.865,0.52 -5.752,0.992 -0.346,1.748 -0.356,3.641 0.412,5.286 0.793,1.826 2.363,3.244 4.172,4.039 C -0.785,-0.275 -0.395,-0.129 0,0 m 8.705,-6.451 -0.008,0 c -0.529,-0.043 -1.039,0.209 -1.399,0.582 -0.263,0.322 -0.476,0.693 -0.511,1.113 -0.125,0.912 0.519,1.854 1.41,2.067 0.166,0.05 0.336,0.068 0.508,0.064 l 0,2.078 C 7.603,0.223 6.287,0.711 4.938,0.703 3.271,0.723 1.586,0.512 0,0 l 0,-1.977 c 0.295,0 0.588,-0.041 0.871,-0.121 0.32,-0.082 0.615,-0.23 0.889,-0.414 0.566,-0.4 0.995,-0.994 1.181,-1.666 C 3.205,-5.037 3.037,-6.002 2.537,-6.744 2.174,-7.268 1.658,-7.676 1.064,-7.904 0.728,-8.031 0.363,-8.092 0,-8.092 l 0,-2.666 0.086,-0.006 c 1.945,-0.058 3.908,-0.107 5.845,0.166 0.932,0.121 1.862,0.307 2.774,0.551 l 0,3.596 z m 1.9,1.601 c -0.127,-0.896 -0.984,-1.656 -1.9,-1.601 l 0,-3.596 c 1.683,0.451 3.31,1.117 4.814,1.998 0,0 -0.32,1.75 -1.568,3.66 -0.721,1.194 -1.496,2.381 -2.555,3.301 -0.217,0.192 -0.453,0.371 -0.691,0.541 l 0,-2.078 c 0.232,-0.008 0.461,-0.049 0.685,-0.102 0.839,-0.298 1.389,-1.25 1.215,-2.123"
             style="fill:#ffffff;fill-opacity:1;fill-rule:evenodd;stroke:none"
             id="path244"
             inkscape:connector-curvature="0" /></g><g
           id="g246"
           transform="translate(392.374,50.0889)"><path
             d="m 0,0 c -0.776,-0.471 -1.416,-1.133 -1.951,-1.861 -0.155,0.289 -0.202,0.634 -0.403,0.892 -0.119,0.155 -0.326,0.092 -0.488,0.094 -0.207,-0.021 -0.408,0.035 -0.6,0.094 0.227,0.322 0.166,0.81 -0.185,1.019 -0.371,0.27 -0.946,0.035 -1.045,-0.408 -0.158,-0.484 0.36,-0.971 0.836,-0.844 0.252,-0.377 0.709,-0.314 1.101,-0.326 0.172,-0.306 0.305,-0.639 0.53,-0.914 -0.418,-0.82 -0.651,-1.742 -0.67,-2.666 0.533,-0.223 1.068,-0.453 1.609,-0.676 0.024,0.586 0.092,1.162 0.18,1.733 0.181,1.252 0.902,2.338 1.76,3.234 C 0.461,-0.406 0.226,-0.213 0,0"
             style="fill:#ffffff;fill-opacity:1;fill-rule:evenodd;stroke:none"
             id="path248"
             inkscape:connector-curvature="0" /></g><g
           id="g250"
           transform="translate(404.8936,40.665)"><path
             d="m 0,0 c -1.973,-0.432 -4.01,-0.557 -6.026,-0.469 -1.365,0.071 -2.73,0.196 -4.062,0.49 -0.945,0.194 -1.871,0.467 -2.799,0.733 0.147,-1.188 0.629,-2.322 1.313,-3.299 0.808,-1.141 1.89,-2.182 3.238,-2.603 0.982,-0.264 2.148,-0.602 4.065,-0.61 l 0.196,0 0.198,0.004 c 1.783,0.029 3.539,0.258 5.103,0.924 1.008,0.432 1.959,1.025 2.77,1.766 0.703,0.662 1.252,1.486 1.636,2.377 C 5.998,0.146 6.328,1.656 6.294,2.424 4.361,1.324 2.201,0.369 0,0"
             style="fill:#ffffff;fill-opacity:1;fill-rule:evenodd;stroke:none"
             id="path252"
             inkscape:connector-curvature="0" /></g></g></g></g></svg>