<svg xmlns="http://www.w3.org/2000/svg" viewBox="0 0 412 393.8"><title>icon-linkedin</title><path fill="#fff" d="M93.6,127.9V393.8H5.1V127.9Zm5.6-82.1q.3,19.6-13.5,32.7T49.4,91.7h-.5q-22,0-35.4-13.1T0,45.9Q0,26,13.8,13T49.9,0Q72.2,0,85.6,13T99.2,45.9ZM412,241.4V393.8H323.8V251.6q0-28.2-10.9-44.1t-33.9-16q-16.9,0-28.3,9.3a57,57,0,0,0-17,22.9q-3,8-3,21.7V393.8H142.4q.5-107,.5-173.5t-.3-79.4l-.3-12.9h88.2v38.6h-.5a116.7,116.7,0,0,1,11-15,114.4,114.4,0,0,1,15.2-13.9,69.7,69.7,0,0,1,23.3-11.7,106.3,106.3,0,0,1,30.7-4.2q45.9,0,73.8,30.4T412,241.4Z"/></svg>