<svg xmlns="http://www.w3.org/2000/svg" viewBox="0 0 308 260.6"><title>icon-github</title><path fill="#fff" d="M118.5,177.7a53.1,53.1,0,0,1-2.3,15.2,36.4,36.4,0,0,1-8,14.1,17.5,17.5,0,0,1-26.8,0,36.4,36.4,0,0,1-8-14.1,50.9,50.9,0,0,1,0-30.4,36.4,36.4,0,0,1,8-14.1,17.5,17.5,0,0,1,26.8,0,36.4,36.4,0,0,1,8,14.1A53.1,53.1,0,0,1,118.5,177.7Zm118.5,0a53.1,53.1,0,0,1-2.3,15.2,36.4,36.4,0,0,1-8,14.1,17.5,17.5,0,0,1-26.8,0,36.4,36.4,0,0,1-8-14.1,50.9,50.9,0,0,1,0-30.4,36.4,36.4,0,0,1,8-14.1,17.5,17.5,0,0,1,26.8,0,36.4,36.4,0,0,1,8,14.1A53.1,53.1,0,0,1,236.9,177.7Zm29.6,0q0-22.2-12.8-37.8t-34.6-15.5q-7.6,0-36.1,3.9a190.6,190.6,0,0,1-29.1,2,190.6,190.6,0,0,1-29.1-2q-28.1-3.9-36.1-3.9-21.8,0-34.6,15.5T41.5,177.7q0,16.3,5.9,28.4t15,19.1A71.5,71.5,0,0,0,85,236.3a136.2,136.2,0,0,0,25.9,5.5,267.1,267.1,0,0,0,27.6,1.3h31.1a267.1,267.1,0,0,0,27.6-1.3,136.2,136.2,0,0,0,25.9-5.5,71.5,71.5,0,0,0,22.6-11.1q9.1-6.9,15-19.1T266.5,177.7ZM308,145.1q0,38.3-11.3,61.3A74.6,74.6,0,0,1,277.2,231a100.2,100.2,0,0,1-26.1,15.9,158.2,158.2,0,0,1-31.5,8.8,271.4,271.4,0,0,1-31.7,4.1q-13.9.8-30.9.8-14.4,0-26.3-.6t-27.3-2.3a164.5,164.5,0,0,1-28.2-5.6,195,195,0,0,1-25.4-9.5,81.9,81.9,0,0,1-22.4-15,76.9,76.9,0,0,1-15.9-21.3Q0,183.6,0,145.1q0-43.9,25.2-73.3a100,100,0,0,1-5-31.5A89,89,0,0,1,29.6,0q20,0,35.2,7.3t35,22.9A246.2,246.2,0,0,1,157,23.7a219.4,219.4,0,0,1,51.8,5.9q19.4-15.2,34.6-22.4t35-7.2a89,89,0,0,1,9.4,40.4,97.7,97.7,0,0,1-5,31.1Q308,101.1,308,145.1Z"/></svg>