<svg xmlns="http://www.w3.org/2000/svg" xmlns:xlink="http://www.w3.org/1999/xlink" version="1.1" id="Layer_1" x="0px" y="0px" width="20px" height="16.244px" viewBox="1142 1143.878 20 16.244" enable-background="new 1142 1143.878 20 16.244" xml:space="preserve"><path fill="#fff" d="M1162 1145.807c-0.566 0.829-1.252 1.536-2.056 2.119 0.009 0.119 0.013 0.296 0.013 0.533 0 1.1-0.161 2.198-0.482 3.293s-0.811 2.147-1.466 3.154 -1.437 1.897-2.341 2.671c-0.905 0.774-1.997 1.392-3.274 1.853 -1.277 0.462-2.644 0.692-4.099 0.692 -2.292 0-4.391-0.613-6.294-1.841 0.296 0.034 0.626 0.051 0.99 0.051 1.904 0 3.6-0.583 5.089-1.751 -0.888-0.017-1.684-0.29-2.386-0.818s-1.185-1.203-1.447-2.024c0.279 0.043 0.537 0.063 0.774 0.063 0.364 0 0.723-0.046 1.079-0.14 -0.948-0.194-1.732-0.666-2.354-1.415 -0.622-0.749-0.933-1.618-0.933-2.608v-0.051c0.575 0.321 1.192 0.495 1.853 0.521 -0.559-0.373-1.002-0.859-1.333-1.459 -0.33-0.601-0.495-1.252-0.495-1.955 0-0.744 0.186-1.434 0.558-2.068 1.024 1.261 2.27 2.27 3.737 3.026 1.468 0.757 3.04 1.178 4.714 1.263 -0.067-0.321-0.102-0.634-0.102-0.939 0-1.133 0.4-2.1 1.199-2.9 0.8-0.799 1.767-1.199 2.9-1.199 1.184 0 2.183 0.432 2.994 1.295 0.923-0.178 1.79-0.508 2.602-0.99 -0.313 0.973-0.913 1.726-1.802 2.259C1160.427 1146.357 1161.213 1146.145 1162 1145.807z"/></svg>