<?xml version="1.0" encoding="iso-8859-1"?>
<!-- Generator: Adobe Illustrator 17.1.0, SVG Export Plug-In . SVG Version: 6.00 Build 0)  -->
<!DOCTYPE svg PUBLIC "-//W3C//DTD SVG 1.1//EN" "http://www.w3.org/Graphics/SVG/1.1/DTD/svg11.dtd">
<svg version="1.1" id="Capa_1" xmlns="http://www.w3.org/2000/svg" xmlns:xlink="http://www.w3.org/1999/xlink" x="0px" y="0px"
	 viewBox="0 0 205.941 205.941" style="enable-background:new 0 0 205.941 205.941;" xml:space="preserve">
<path d="M27.625,190.736c-0.663,0-16.321-0.098-22.902-8.623c-6.275-8.128-4.516-21.558-4.438-22.125
	c0.136-0.99,0.982-1.728,1.981-1.728h54.569V53.56c0-21.149,17.206-38.354,38.354-38.354h93.504c9.51,0,17.247,7.737,17.247,17.247
	v12.808c0,1.104-0.896,2-2,2h-49.594c-0.461,2.294-0.696,4.651-0.692,7.045l0.18,104.85c0.015,8.649-3.189,16.931-9.02,23.321
	c-4.744,5.198-11.53,8.2-18.619,8.236c-0.794,0.007-1.583-0.029-2.368-0.099c-0.158,0.041-0.324,0.063-0.496,0.063
	C123.333,190.676,28.747,190.736,27.625,190.736z M4.094,162.259c-0.23,3.632-0.266,12.149,3.795,17.409
	c5.394,6.987,19.594,7.067,19.736,7.067c0.884,0,59.787-0.038,84.733-0.054c-1.718-1.107-3.303-2.426-4.712-3.939l-0.163-0.176
	c-0.237-0.258-0.466-0.52-0.688-0.786c-4.521-4.663-6.083-11.898-6.618-16.687c-0.132-1.095-0.203-2.057-0.241-2.835H4.094z
	 M119.113,185.573c2.229,0.762,4.615,1.153,7.064,1.139c5.975-0.03,11.691-2.557,15.684-6.933
	c5.156-5.649,7.988-12.972,7.975-20.618l-0.18-104.85c-0.018-10.44,4.034-20.259,11.411-27.648
	c3.076-3.082,6.576-5.585,10.369-7.458H95.19c-18.943,0-34.354,15.411-34.354,34.354v104.669h41.069c0.543,0,1.063,0.221,1.44,0.612
	c0.364,0.377,0.564,0.882,0.56,1.405c0,0.018,0,0.036,0,0.053c0,0.043-0.021,1.543,0.194,3.742
	c0.421,3.952,1.718,10.264,5.67,15.059C113.307,182.688,116.634,184.578,119.113,185.573z M155.403,43.259h46.538V32.452
	c0-7.304-5.942-13.247-13.247-13.247c-9.371,0-18.177,3.652-24.798,10.284C159.969,33.425,157.091,38.128,155.403,43.259z
	 M138.441,143.176H70.275c-1.104,0-2-0.896-2-2s0.896-2,2-2h68.167c1.104,0,2,0.896,2,2S139.546,143.176,138.441,143.176z
	 M127.608,128.801h-46.5c-1.104,0-2-0.896-2-2s0.896-2,2-2h46.5c1.104,0,2,0.896,2,2S128.712,128.801,127.608,128.801z
	 M138.441,114.426H70.275c-1.104,0-2-0.896-2-2s0.896-2,2-2h68.167c1.104,0,2,0.896,2,2S139.546,114.426,138.441,114.426z
	 M127.608,100.051h-46.5c-1.104,0-2-0.896-2-2s0.896-2,2-2h46.5c1.104,0,2,0.896,2,2S128.712,100.051,127.608,100.051z
	 M138.441,85.676H70.275c-1.104,0-2-0.896-2-2s0.896-2,2-2h68.167c1.104,0,2,0.896,2,2S139.546,85.676,138.441,85.676z
	 M135.275,71.301H73.441c-1.104,0-2-0.896-2-2s0.896-2,2-2h61.833c1.104,0,2,0.896,2,2S136.379,71.301,135.275,71.301z
	 M138.441,56.926H70.275c-1.104,0-2-0.896-2-2s0.896-2,2-2h68.167c1.104,0,2,0.896,2,2S139.546,56.926,138.441,56.926z"/>
<g>
</g>
<g>
</g>
<g>
</g>
<g>
</g>
<g>
</g>
<g>
</g>
<g>
</g>
<g>
</g>
<g>
</g>
<g>
</g>
<g>
</g>
<g>
</g>
<g>
</g>
<g>
</g>
<g>
</g>
</svg>
