<?xml version="1.0" encoding="UTF-8" standalone="no"?>
<svg width="172px" height="172px" viewBox="0 0 172 172" version="1.1" xmlns="http://www.w3.org/2000/svg" xmlns:xlink="http://www.w3.org/1999/xlink" xmlns:sketch="http://www.bohemiancoding.com/sketch/ns">
    <!-- Generator: Sketch 3.3.2 (12043) - http://www.bohemiancoding.com/sketch -->
    <title>Imported Layers</title>
    <desc>Created with Sketch.</desc>
    <defs>
        <linearGradient x1="50%" y1="100%" x2="50%" y2="0%" id="linearGradient-1">
            <stop stop-color="#FFF5EC" offset="30%"></stop>
            <stop stop-color="#EBF4FC" offset="100%"></stop>
        </linearGradient>
        <path d="M82.7574472,171.94 C36.7638641,170.235093 0,132.41131 0,86 C0,38.503 38.504,0 86,0 C133.497,0 172,38.503 172,86 C172,132.41131 135.237091,170.235093 89.2426183,171.94 L82.7574472,171.94 L82.7574472,171.94 Z M52,128 C52,128 58.089,117.073 57.5,104.498 C56.901,91.71 50.875,79.775 50.875,68.5 C50.875,57.225 52.5,47.5 57,47.5 L118,47.5 C118,47.5 115.897,58.397 115.625,67.071 C115.269,78.416 121,88 121,100.333 C121,114.833 117,128 117,128 L52,128 L52,128 Z" id="path-2"></path>
        <path d="M82.7574472,171.94 C36.7638641,170.235093 0,132.41131 0,86 C0,38.503 38.504,0 86,0 C133.497,0 172,38.503 172,86 C172,132.41131 135.237091,170.235093 89.2426183,171.94 L82.7574472,171.94 L82.7574472,171.94 Z M52,128 C52,128 58.089,117.073 57.5,104.498 C56.901,91.71 50.875,79.775 50.875,68.5 C50.875,57.225 52.5,47.5 57,47.5 L118,47.5 C118,47.5 115.897,58.397 115.625,67.071 C115.269,78.416 121,88 121,100.333 C121,114.833 117,128 117,128 L52,128 L52,128 Z" id="path-4"></path>
    </defs>
    <g id="Page-1" stroke="none" stroke-width="1" fill="none" fill-rule="evenodd" sketch:type="MSPage">
        <rect id="white-bg" fill="#FFFFFF" sketch:type="MSShapeGroup" x="-676" y="-305" width="911" height="555" rx="2"></rect>
        <g id="value_owner" sketch:type="MSLayerGroup" fill="url(#linearGradient-1)">
            <circle id="Oval" sketch:type="MSShapeGroup" cx="86" cy="86" r="86"></circle>
        </g>
        <g id="Imported-Layers" sketch:type="MSLayerGroup">
            <g id="Group-7">
                <g id="Group-3">
                    <mask id="mask-3" sketch:name="Clip 2" fill="white">
                        <use xlink:href="#path-2"></use>
                    </mask>
                    <g id="Clip-2"></g>
                    <path d="M-1,-1.1 L173,-1.1 L173,171.94 L-1,171.94 L-1,-1.1 Z" id="Fill-1" sketch:type="MSShapeGroup" mask="url(#mask-3)"></path>
                </g>
                <g id="Group-6">
                    <mask id="mask-5" sketch:name="Clip 5" fill="white">
                        <use xlink:href="#path-4"></use>
                    </mask>
                    <g id="Clip-5"></g>
                    <path d="M-1,-1.1 L173,-1.1 L173,171.94 L-1,171.94 L-1,-1.1 Z" id="Fill-4" sketch:type="MSShapeGroup" mask="url(#mask-5)"></path>
                </g>
            </g>
            <path d="M61,103 C61,110.732 54.732,117 47,117 C39.268,117 33,110.732 33,103 C33,95.268 39.268,89 47,89 C54.732,89 61,95.268 61,103" id="Fill-8" fill="#FCF2F2" sketch:type="MSShapeGroup"></path>
            <path d="M47,118.5 C38.453,118.5 31.5,111.547 31.5,103 C31.5,94.453 38.453,87.5 47,87.5 C55.547,87.5 62.5,94.453 62.5,103 C62.5,111.547 55.547,118.5 47,118.5 L47,118.5 Z M47,90.5 C40.107,90.5 34.5,96.107 34.5,103 C34.5,109.893 40.107,115.5 47,115.5 C53.892,115.5 59.5,109.893 59.5,103 C59.5,96.107 53.892,90.5 47,90.5 L47,90.5 Z" id="Fill-9" fill="#E58477" sketch:type="MSShapeGroup"></path>
            <path d="M55,103 C55,107.418 51.418,111 47,111 C42.582,111 39,107.418 39,103 C39,98.582 42.582,95 47,95 C51.418,95 55,98.582 55,103" id="Fill-10" fill="#FCF2F2" sketch:type="MSShapeGroup"></path>
            <path d="M47,112.5 C41.762,112.5 37.5,108.238 37.5,103 C37.5,97.762 41.762,93.5 47,93.5 C52.238,93.5 56.5,97.762 56.5,103 C56.5,108.238 52.238,112.5 47,112.5 L47,112.5 Z M47,96.5 C43.416,96.5 40.5,99.416 40.5,103 C40.5,106.584 43.416,109.5 47,109.5 C50.584,109.5 53.5,106.584 53.5,103 C53.5,99.416 50.584,96.5 47,96.5 L47,96.5 Z" id="Fill-11" fill="#E58477" sketch:type="MSShapeGroup"></path>
            <path d="M48.5,103 C48.5,103.828 47.828,104.5 47,104.5 C46.172,104.5 45.5,103.828 45.5,103 C45.5,102.172 46.172,101.5 47,101.5 C47.828,101.5 48.5,102.172 48.5,103" id="Fill-12" fill="#FCF2F2" sketch:type="MSShapeGroup"></path>
            <path d="M47,106 C45.346,106 44,104.654 44,103 C44,101.346 45.346,100 47,100 C48.654,100 50,101.346 50,103 C50,104.654 48.654,106 47,106" id="Fill-13" fill="#E58477" sketch:type="MSShapeGroup"></path>
            <path d="M139.742,75.15 C143.374,83.206 139.788,92.681 131.733,96.313 C123.677,99.945 114.202,96.359 110.57,88.303 C106.938,80.247 110.524,70.773 118.58,67.141 C126.635,63.509 136.11,67.095 139.742,75.15" id="Fill-14" fill="#F8FCF2" sketch:type="MSShapeGroup"></path>
            <path d="M125.166,99.23 C118.293,99.23 112.026,95.183 109.203,88.919 C105.237,80.122 109.167,69.739 117.964,65.773 C120.245,64.744 122.662,64.223 125.146,64.223 C132.02,64.223 138.286,68.271 141.109,74.534 C145.075,83.331 141.145,93.714 132.349,97.68 C130.067,98.709 127.65,99.23 125.166,99.23 L125.166,99.23 Z M125.146,67.223 C123.09,67.223 121.088,67.655 119.196,68.508 C111.908,71.794 108.651,80.397 111.938,87.686 C114.277,92.877 119.47,96.23 125.166,96.23 C127.223,96.23 129.225,95.798 131.116,94.945 C138.404,91.659 141.661,83.056 138.375,75.767 C136.035,70.576 130.843,67.223 125.146,67.223 L125.146,67.223 Z" id="Fill-15" fill="#6BA84A" sketch:type="MSShapeGroup"></path>
            <path d="M138.333,91.167 C138.238,91.167 138.141,91.153 138.044,91.124 L123.559,86.758 C123.23,86.659 122.975,86.398 122.884,86.067 C122.792,85.737 122.877,85.383 123.107,85.128 L135.76,71.202 C136.132,70.794 136.764,70.766 137.173,71.135 C137.581,71.506 137.611,72.139 137.24,72.548 L125.653,85.301 L138.622,89.21 C139.15,89.369 139.45,89.927 139.29,90.456 C139.16,90.888 138.763,91.167 138.333,91.167" id="Fill-16" fill="#6BA84A" sketch:type="MSShapeGroup"></path>
            <path d="M143.418,85.487 C144.95,80.292 144.261,74.482 141.037,69.614 C140.428,68.695 139.754,67.847 139.024,67.071 L125.082,80.181 L143.418,85.487" id="Fill-17" fill="#F8F3F0" sketch:type="MSShapeGroup"></path>
            <path d="M143.418,86.486 C143.326,86.486 143.232,86.474 143.14,86.447 L124.804,81.142 C124.459,81.041 124.194,80.765 124.11,80.415 C124.025,80.065 124.136,79.698 124.397,79.452 L138.34,66.343 C138.74,65.965 139.372,65.983 139.753,66.386 C140.528,67.211 141.241,68.111 141.871,69.063 C145.139,73.997 146.053,80.087 144.377,85.77 C144.249,86.204 143.851,86.486 143.418,86.486 L143.418,86.486 Z M127.045,79.708 L142.714,84.241 C143.855,79.408 142.961,74.331 140.203,70.166 C139.821,69.589 139.405,69.032 138.961,68.504 L127.045,79.708 L127.045,79.708 Z" id="Fill-18" fill="#E58A40" sketch:type="MSShapeGroup"></path>
            <path d="M125.082,80.181 L125.945,84.407 L141.648,89.1 L143.418,85.487 L125.082,80.181" id="Fill-19" fill="#EFDED3" sketch:type="MSShapeGroup"></path>
            <path d="M141.647,90.1 C141.553,90.1 141.456,90.086 141.361,90.058 L125.659,85.364 C125.306,85.259 125.039,84.968 124.966,84.606 L124.103,80.381 C124.032,80.038 124.146,79.684 124.404,79.445 C124.66,79.209 125.023,79.122 125.36,79.22 L143.696,84.525 C143.979,84.607 144.213,84.812 144.332,85.081 C144.452,85.352 144.446,85.661 144.316,85.927 L142.546,89.54 C142.374,89.89 142.021,90.1 141.647,90.1 L141.647,90.1 Z M126.806,83.619 L141.122,87.898 L141.996,86.116 L126.393,81.601 L126.806,83.619 L126.806,83.619 Z" id="Fill-20" fill="#E58A40" sketch:type="MSShapeGroup"></path>
            <path d="M117,128 L52,128 C52,128 58.089,117.073 57.5,104.498 C56.901,91.71 50.875,79.775 50.875,68.5 C50.875,57.225 52.5,47.5 57,47.5 L118,47.5 C118,47.5 115.897,58.397 115.625,67.071 C115.269,78.416 121,88 121,100.333 C121,114.833 117,128 117,128" id="Fill-21" fill="#F2F4F8" sketch:type="MSShapeGroup"></path>
            <path d="M117,129.5 L52,129.5 C51.469,129.5 50.977,129.219 50.707,128.761 C50.438,128.303 50.432,127.735 50.69,127.271 C50.748,127.165 56.562,116.545 56.002,104.568 C55.715,98.443 54.129,92.436 52.595,86.626 C50.939,80.354 49.375,74.43 49.375,68.5 C49.375,53.57 51.94,46 57,46 L118,46 C118.447,46 118.872,46.2 119.156,46.545 C119.441,46.891 119.558,47.345 119.473,47.784 C119.452,47.892 117.39,58.668 117.124,67.118 C116.951,72.619 118.269,77.699 119.663,83.078 C121.058,88.459 122.5,94.022 122.5,100.333 C122.5,114.889 118.602,127.89 118.436,128.435 C118.243,129.068 117.66,129.5 117,129.5 L117,129.5 Z M54.413,126.5 L115.864,126.5 C116.784,123.109 119.5,112.101 119.5,100.333 C119.5,94.405 118.106,89.03 116.759,83.831 C115.373,78.484 113.939,72.955 114.126,67.024 C114.336,60.331 115.595,52.469 116.202,49 L57,49 C54.698,49 52.375,55.029 52.375,68.5 C52.375,74.041 53.891,79.782 55.495,85.86 C57.069,91.821 58.697,97.985 58.998,104.428 C59.448,114.031 56.194,122.592 54.413,126.5 L54.413,126.5 Z" id="Fill-22" fill="#9DA9BC" sketch:type="MSShapeGroup"></path>
            <path d="M57,48 C57,48 61,52 58.167,59 L121,59 C121,59 123.848,52 118,48 L57,48" id="Fill-23" fill="#F2F4F8" sketch:type="MSShapeGroup"></path>
            <path d="M121,60 L58.167,60 C57.666,60 57.199,59.75 56.921,59.335 C56.643,58.919 56.59,58.392 56.78,57.929 C59.21,52.031 55.956,48.578 55.923,48.544 C55.504,48.111 55.384,47.47 55.618,46.915 C55.854,46.36 56.397,46 57,46 L118,46 C118.345,46 118.679,46.118 118.945,46.336 C124.283,50.671 123.517,56.596 122.365,59.122 C122.121,59.657 121.588,60 121,60 L121,60 Z M60.251,57 L119.926,57 C120.344,55.4 120.724,51.936 117.448,49 L59.701,49 C60.514,50.814 61.15,53.54 60.251,57 L60.251,57 Z" id="Fill-24" fill="#9DA9BC" sketch:type="MSShapeGroup"></path>
            <path d="M102.125,113.5 C102.125,113.5 98.5,128 93.75,135 C96.5,134.25 98.167,133.5 98.167,133.5 L98.75,138.5 C98.75,138.5 105.118,127.977 106.118,115.227 L102.125,113.5" id="Fill-25" fill="#FCF9ED" sketch:type="MSShapeGroup"></path>
            <path d="M107.743,113.5 C107.743,113.5 111.833,127.5 116.583,134.5 C113.833,133.75 112.333,132.583 112.333,132.583 L112,137.75 C112,137.75 104.75,127.977 103.75,115.227 L107.743,113.5" id="Fill-26" fill="#FCF9ED" sketch:type="MSShapeGroup"></path>
            <path d="M104.886,107.351 C106.942,98.9 108.89,99.335 106.569,107.727 C110.627,102.752 112.9,104.498 108.534,109.235 C116.719,105.349 117.6,107.116 109.295,110.762 C115.934,110.584 115.961,113.413 109.318,113.207 C117.692,116.859 116.845,118.616 108.586,114.726 C113.045,119.466 110.813,121.211 106.658,116.234 C109.16,124.628 107.221,125.058 104.983,116.606 C104.137,122.693 101.322,122.068 102.55,116.065 C97.524,122.904 95.951,121.697 101.19,115.022 C95.904,117.909 94.623,115.391 100.084,112.846 C91.54,113.023 91.521,111.067 100.067,111.155 C94.558,108.653 95.787,106.092 101.129,108.942 C95.752,102.245 97.3,101.02 102.467,107.883 C101.119,101.871 103.918,101.256 104.886,107.351" id="Fill-27" fill="#FCF9ED" sketch:type="MSShapeGroup"></path>
            <path d="M117.824,133.658 C115.455,130.167 113.229,124.791 111.628,120.408 C111.946,120.205 112.201,119.911 112.357,119.549 C112.561,119.078 112.587,118.537 112.437,117.925 C113.353,118.223 114.195,118.424 114.803,118.424 L114.804,118.424 C115.972,118.424 116.538,117.694 116.668,117.069 C116.795,116.462 116.968,115.631 114.313,114.024 C115.465,113.481 115.787,112.701 115.787,111.999 C115.787,111.394 115.52,110.546 114.244,109.954 C116.881,108.346 116.706,107.51 116.578,106.9 C116.446,106.274 115.877,105.544 114.705,105.544 C114.088,105.544 113.235,105.749 112.313,106.052 C112.458,105.435 112.428,104.888 112.22,104.413 C111.902,103.689 111.194,103.239 110.371,103.239 C109.928,103.239 109.469,103.368 109.01,103.587 C109.319,101.244 108.892,100.682 108.669,100.389 C108.345,99.963 107.859,99.72 107.336,99.72 C106.75,99.72 105.876,99.72 104.754,102.582 C104.225,101.914 103.602,101.566 102.902,101.566 C102.291,101.566 101.732,101.845 101.329,102.349 C101.067,102.675 100.889,103.079 100.774,103.532 C99.058,101.792 98.336,101.791 97.962,101.791 C97.307,101.791 96.725,102.154 96.446,102.737 C96.239,103.169 95.905,103.866 97.303,106.189 C95.882,106.227 95.197,107.051 95.029,107.823 C94.886,108.488 95.08,109.17 95.593,109.844 C92.99,110.162 92.619,110.804 92.392,111.198 C92.091,111.721 92.091,112.344 92.392,112.865 C92.618,113.259 92.993,113.906 95.635,114.202 C95.143,114.868 94.961,115.539 95.105,116.19 C95.276,116.965 95.972,117.791 97.407,117.81 C96.081,120.091 96.416,120.779 96.624,121.207 C96.879,121.733 97.386,122.063 97.964,122.122 C96.528,126.309 94.624,131.041 92.509,134.158 C92.156,134.677 92.165,135.361 92.529,135.872 C92.893,136.383 93.537,136.61 94.145,136.447 C95.238,136.149 96.167,135.851 96.901,135.595 L97.26,138.674 C97.334,139.31 97.805,139.83 98.432,139.966 C98.538,139.989 98.645,140 98.75,140 C99.268,140 99.758,139.731 100.033,139.276 C100.207,138.989 102.932,134.428 105.095,127.711 C107.526,134.161 110.597,138.377 110.795,138.644 C111.083,139.031 111.533,139.25 112,139.25 C112.141,139.25 112.284,139.231 112.425,139.188 C113.028,139.011 113.456,138.475 113.497,137.847 L113.677,135.051 C114.368,135.361 115.209,135.68 116.188,135.947 C116.796,136.109 117.44,135.882 117.804,135.372 C118.168,134.861 118.177,134.177 117.824,133.658 L117.824,133.658 Z M99.665,133.397 L99.657,133.326 C99.601,132.852 99.323,132.433 98.907,132.196 C98.679,132.066 98.423,132.001 98.166,132.001 C97.958,132.001 97.748,132.044 97.553,132.132 C97.548,132.134 97.359,132.218 97.012,132.354 C98.755,128.912 100.254,124.841 101.379,121.391 L101.513,121.606 C101.92,122.104 102.478,122.38 103.085,122.38 C103.196,122.38 103.301,122.356 103.408,122.339 L103.434,122.436 C102.385,126.84 100.899,130.677 99.665,133.397 L99.665,133.397 Z M111.718,131.215 C111.211,131.442 110.872,131.932 110.836,132.486 L110.806,132.96 C109.609,130.768 108.19,127.744 107.068,124.194 C107.243,124.238 107.401,124.241 107.543,124.241 C108.106,124.269 108.577,123.999 108.904,123.56 C109.016,123.41 109.18,123.183 109.267,122.688 C110.308,125.45 111.566,128.488 112.952,131.217 C112.565,131.041 112.116,131.036 111.718,131.215 L111.718,131.215 Z" id="Fill-28" fill="#ECB42A" sketch:type="MSShapeGroup"></path>
            <path d="M111.833,112 C111.833,115.774 108.774,118.833 105,118.833 C101.226,118.833 98.167,115.774 98.167,112 C98.167,108.226 101.226,105.167 105,105.167 C108.774,105.167 111.833,108.226 111.833,112" id="Fill-29" fill="#FCF9ED" sketch:type="MSShapeGroup"></path>
            <path d="M68.262,71 L68.213,71 C66.744,71 65.442,71.71 64.808,72.867 C64.542,73.351 64.72,73.954 65.204,74.22 C65.357,74.304 65.521,74.344 65.684,74.344 C66.038,74.344 66.38,74.155 66.561,73.823 C66.678,73.611 66.85,73.459 67.039,73.333 L69.363,73.316 C69.579,73.451 69.775,73.618 69.901,73.859 C69.981,74.015 70.048,74.181 70.114,74.348 C70.349,74.93 70.639,75.654 71.382,76.086 C71.758,76.306 72.119,76.397 72.464,76.397 C73.53,76.397 74.433,75.53 75.084,74.905 C75.601,74.409 76.18,73.844 76.594,73.844 C76.625,73.844 76.655,73.847 76.684,73.853 C76.875,73.892 77.122,74.104 77.384,74.33 C77.753,74.649 78.213,75.046 78.838,75.219 C79.075,75.286 79.305,75.315 79.527,75.315 C80.738,75.315 81.732,74.436 82.495,73.76 C82.768,73.517 83.054,73.335 83.311,73.215 L84.095,73.21 C84.159,73.284 84.228,73.379 84.298,73.483 C84.441,73.697 84.621,73.965 84.878,74.198 C85.349,74.627 85.914,74.836 86.529,74.836 C87.333,74.836 88.223,74.479 89.102,73.788 C89.731,74.258 90.569,74.373 91.242,74.373 C91.603,74.373 91.916,74.34 92.123,74.311 C92.273,74.289 92.42,74.28 92.558,74.28 C93.076,74.28 93.482,74.408 93.552,74.48 C93.532,74.901 93.776,75.288 94.165,75.451 C94.289,75.503 94.42,75.528 94.55,75.528 C94.824,75.528 95.093,75.416 95.286,75.206 C95.892,74.549 96.709,74.074 97.147,74.074 C97.241,74.077 97.287,74.099 97.343,74.167 L97.456,74.338 C97.563,74.511 97.708,74.747 97.943,74.953 C98.321,75.288 98.767,75.427 99.222,75.427 C99.83,75.427 100.453,75.177 100.942,74.814 C101.095,74.701 101.242,74.577 101.39,74.453 C101.626,74.253 101.852,74.064 102.088,74.006 C102.096,74.263 102.204,74.515 102.399,74.699 C102.59,74.881 102.838,74.975 103.089,74.975 C103.234,74.975 103.38,74.944 103.516,74.879 L105.456,73.96 C105.955,73.724 106.168,73.127 105.931,72.628 C105.76,72.267 105.402,72.056 105.027,72.056 C104.884,72.056 104.738,72.087 104.598,72.153 L103.648,72.604 C103.253,72.19 102.681,71.955 102.119,71.955 C101.975,71.955 101.832,71.97 101.692,72.002 C101.005,72.161 100.503,72.584 100.099,72.925 L99.891,73.095 L99.028,73.101 L98.889,72.899 C98.46,72.379 97.877,72.094 97.203,72.075 C97.164,72.073 97.126,72.072 97.087,72.072 C96.306,72.072 95.504,72.464 94.823,72.957 C94.214,72.458 93.349,72.28 92.563,72.28 C92.31,72.28 92.066,72.298 91.841,72.33 C91.627,72.36 91.428,72.373 91.249,72.373 C90.717,72.373 90.359,72.261 90.288,72.171 C90.255,71.777 89.993,71.438 89.619,71.31 C89.511,71.272 89.4,71.253 89.29,71.253 C89.018,71.253 88.751,71.366 88.559,71.572 C87.912,72.267 87.086,72.833 86.558,72.833 C86.425,72.833 86.311,72.797 86.224,72.719 C86.145,72.647 86.054,72.512 85.958,72.367 C85.787,72.113 85.575,71.798 85.24,71.539 C84.831,71.223 84.351,71.068 83.834,71.068 C82.994,71.068 82.055,71.477 81.16,72.269 C80.742,72.642 80.251,73.075 79.828,73.24 L79.285,73.244 C79.108,73.164 78.907,73.003 78.69,72.815 C78.286,72.468 77.784,72.035 77.08,71.893 C76.912,71.859 76.749,71.844 76.591,71.844 C75.495,71.843 74.617,72.593 73.888,73.284 L71.834,73.299 C71.782,73.178 71.734,73.053 71.675,72.939 C71.06,71.757 69.752,71 68.262,71" id="Fill-30" fill="#B2BAC7" sketch:type="MSShapeGroup"></path>
            <path d="M82.674,83.735 C81.976,83.735 81.5,84.182 81.196,84.458 C81.091,84.554 80.973,84.661 80.903,84.7 C80.856,84.726 80.787,84.736 80.705,84.736 C80.524,84.736 80.274,84.686 80.032,84.637 C79.694,84.569 79.325,84.494 78.929,84.494 C78.783,84.494 78.634,84.504 78.481,84.528 C77.75,84.643 77.201,85.038 76.718,85.386 C76.375,85.632 76.051,85.865 75.791,85.888 C75.77,85.891 75.748,85.892 75.725,85.892 C75.508,85.892 75.233,85.781 74.936,85.67 C74.513,85.511 74.033,85.333 73.473,85.319 C72.608,85.32 71.893,85.666 71.249,85.988 C70.76,86.233 70.393,86.405 70.145,86.405 C70.08,86.405 70.024,86.394 69.975,86.369 C69.847,86.304 69.69,86.104 69.525,85.894 C69.318,85.628 69.083,85.328 68.747,85.075 C68.324,84.758 67.81,84.595 67.274,84.595 C66.934,84.595 66.586,84.661 66.246,84.793 C65.372,85.136 64.757,85.847 64.602,86.696 C64.502,87.239 64.861,87.76 65.405,87.859 C65.469,87.872 65.532,87.878 65.594,87.878 C66.065,87.878 66.481,87.536 66.568,87.056 L66.687,86.852 L67.703,86.829 C67.783,86.917 67.865,87.016 67.95,87.126 C68.215,87.464 68.544,87.885 69.07,88.152 C69.435,88.338 69.791,88.411 70.134,88.411 C70.876,88.411 71.558,88.069 72.144,87.778 C72.602,87.548 73.061,87.33 73.427,87.319 C73.649,87.324 73.934,87.431 74.234,87.543 C74.654,87.701 75.167,87.891 75.744,87.891 C75.819,87.891 75.894,87.888 75.971,87.881 C76.776,87.808 77.392,87.365 77.886,87.009 C78.117,86.843 78.338,86.688 78.539,86.591 L79.49,86.571 L79.636,86.597 C79.947,86.66 80.296,86.724 80.663,86.724 C80.992,86.724 81.335,86.673 81.68,86.522 L83.527,86.482 C83.944,86.691 84.38,86.767 84.814,86.767 C85.442,86.767 86.066,86.607 86.621,86.463 L86.833,86.409 L88.73,86.368 C88.983,86.494 89.247,86.679 89.521,86.876 C90.129,87.313 90.817,87.808 91.737,87.887 C91.825,87.894 91.912,87.898 91.997,87.898 C92.315,87.898 92.613,87.851 92.881,87.809 C93.085,87.777 93.282,87.745 93.439,87.745 C93.508,87.745 93.57,87.751 93.621,87.766 C93.701,87.79 93.819,87.852 93.943,87.919 C94.212,88.062 94.546,88.241 94.975,88.296 C95.063,88.307 95.15,88.312 95.234,88.312 C95.954,88.312 96.527,87.942 96.961,87.662 C97.059,87.599 97.158,87.534 97.259,87.477 C97.85,87.131 98.546,87.027 99.302,87.027 C99.852,87.027 100.434,87.082 101.03,87.139 C101.677,87.199 102.336,87.262 102.998,87.262 C103.706,87.262 104.416,87.19 105.121,86.969 C105.648,86.804 105.941,86.243 105.776,85.716 C105.643,85.289 105.25,85.013 104.825,85.013 C104.725,85.013 104.624,85.029 104.523,85.06 C104.045,85.21 103.53,85.261 102.989,85.261 C102.423,85.261 101.829,85.205 101.218,85.148 C100.576,85.087 99.927,85.026 99.28,85.026 C98.247,85.026 97.223,85.182 96.253,85.747 C96.128,85.821 96.003,85.9 95.878,85.98 C95.761,86.056 95.609,86.15 95.476,86.22 L95.03,86.229 L94.887,86.155 C94.697,86.055 94.462,85.929 94.184,85.847 C93.927,85.771 93.678,85.745 93.44,85.745 C93.122,85.745 92.827,85.792 92.567,85.833 C92.352,85.867 92.146,85.897 91.982,85.897 C91.957,85.897 91.933,85.896 91.91,85.894 C91.538,85.862 91.143,85.579 90.687,85.251 C90.173,84.882 89.59,84.463 88.848,84.29 C88.58,84.228 88.313,84.202 88.049,84.202 C87.371,84.202 86.715,84.372 86.117,84.527 C85.568,84.67 85.141,84.772 84.816,84.772 C84.599,84.772 84.427,84.727 84.296,84.617 L84.136,84.463 C83.892,84.216 83.522,83.843 82.937,83.756 C82.846,83.742 82.759,83.735 82.674,83.735" id="Fill-31" fill="#B2BAC7" sketch:type="MSShapeGroup"></path>
            <path d="M67.939,96.739 C67.122,96.739 66.278,97.186 65.82,97.897 C65.4,98.55 65.379,99.309 65.764,99.929 C65.952,100.234 66.279,100.404 66.613,100.404 C66.793,100.404 66.976,100.355 67.14,100.252 C67.457,100.056 67.62,99.709 67.606,99.361 L68.949,99.305 C69.113,99.446 69.279,99.596 69.448,99.756 L69.66,99.954 C70.591,100.82 71.5,101.257 72.369,101.257 C72.599,101.257 72.825,101.227 73.05,101.165 C73.724,100.981 74.214,100.548 74.608,100.199 C74.703,100.116 74.797,100.032 74.896,99.951 C75.201,99.7 75.426,99.659 75.481,99.655 L75.631,99.759 C75.852,99.921 76.189,100.211 76.715,100.211 C76.742,100.211 76.77,100.21 76.798,100.209 C77.476,100.205 77.901,99.781 78.161,99.507 L78.264,99.65 C78.503,99.979 78.799,100.39 79.261,100.653 C79.597,100.844 79.928,100.918 80.245,100.918 C80.896,100.918 81.494,100.608 81.972,100.36 C82.259,100.21 82.638,100.006 82.838,100.006 C82.86,100.006 82.88,100.008 82.897,100.013 L83.101,100.11 C83.339,100.232 83.664,100.399 84.088,100.418 C84.104,100.418 84.121,100.419 84.137,100.419 C84.86,100.419 85.365,100.002 85.703,99.718 C85.79,99.644 85.875,99.569 85.968,99.508 C86.154,99.382 86.393,99.336 86.67,99.336 C87.018,99.336 87.428,99.408 87.87,99.486 C88.37,99.574 88.903,99.668 89.443,99.668 C89.994,99.668 90.552,99.57 91.092,99.269 C91.575,99 91.748,98.39 91.478,97.908 C91.295,97.58 90.955,97.396 90.605,97.396 C90.44,97.396 90.273,97.436 90.118,97.522 C89.93,97.626 89.695,97.665 89.431,97.665 C89.068,97.665 88.649,97.592 88.217,97.516 C87.741,97.432 87.211,97.339 86.671,97.339 C86.058,97.339 85.431,97.459 84.854,97.847 C84.703,97.947 84.556,98.068 84.413,98.191 L84.151,98.399 L84.017,98.332 C83.837,98.239 83.654,98.152 83.462,98.095 C83.251,98.033 83.046,98.007 82.847,98.007 C82.163,98.007 81.557,98.321 81.048,98.586 C80.917,98.654 80.742,98.746 80.584,98.816 L80.161,98.834 C80.073,98.738 79.963,98.586 79.888,98.481 C79.592,98.071 79.073,97.347 78.209,97.347 C78.088,97.347 77.961,97.361 77.826,97.392 C77.301,97.512 76.966,97.86 76.743,98.095 C76.617,98.006 76.489,97.922 76.355,97.857 C76.077,97.722 75.78,97.656 75.472,97.656 C74.87,97.656 74.231,97.91 73.628,98.405 C73.511,98.5 73.396,98.6 73.283,98.702 C73.084,98.878 72.895,99.043 72.721,99.146 L72.042,99.175 C71.748,99.068 71.405,98.846 71.022,98.49 L70.82,98.301 C70.16,97.678 69.339,96.903 68.198,96.755 C68.113,96.745 68.026,96.739 67.939,96.739" id="Fill-32" fill="#B2BAC7" sketch:type="MSShapeGroup"></path>
        </g>
    </g>
</svg>